<svg width="232" height="16" viewBox="0 0 232 16" fill="none" xmlns="http://www.w3.org/2000/svg">
<path d="M0.384 6.256C0.384 9.696 3.136 12.272 6.416 12.272C9.68 12.272 12.416 9.696 12.416 6.256C12.416 2.88 9.68 0.304 6.416 0.304C3.136 0.304 0.384 2.88 0.384 6.256ZM1.472 6.256C1.472 3.408 3.616 1.184 6.416 1.184C9.184 1.184 11.328 3.408 11.328 6.256C11.328 9.184 9.184 11.392 6.416 11.392C3.616 11.392 1.472 9.184 1.472 6.256ZM8.56 7.44C8.416 8.384 7.664 9.072 6.608 9.072C5.088 9.072 4.144 7.76 4.144 6.256C4.144 4.72 4.992 3.52 6.576 3.52C7.632 3.52 8.384 4.176 8.56 5.072H9.568C9.328 3.472 8.08 2.64 6.56 2.64C4.368 2.64 3.056 4.16 3.056 6.288C3.056 8.384 4.448 9.952 6.608 9.952C8.08 9.952 9.248 8.992 9.584 7.44H8.56ZM19.954 4.672C19.906 3.312 20.578 1.856 22.162 1.856C23.362 1.856 24.354 2.672 24.354 3.904C24.354 5.472 23.378 6.176 21.458 7.36C19.858 8.352 18.498 9.312 18.274 12H25.682V10.8H19.858C20.13 9.392 21.618 8.672 23.042 7.808C24.45 6.928 25.794 5.92 25.794 3.92C25.794 1.808 24.226 0.655999 22.242 0.655999C19.842 0.655999 18.482 2.368 18.594 4.672H19.954ZM27.7726 6.432C27.7726 8.928 27.9966 12.192 31.5486 12.192C35.1006 12.192 35.3246 8.928 35.3246 6.432C35.3246 3.92 35.1006 0.655999 31.5486 0.655999C27.9966 0.655999 27.7726 3.92 27.7726 6.432ZM29.2126 6.416C29.2126 4.736 29.2286 1.856 31.5486 1.856C33.8686 1.856 33.8846 4.736 33.8846 6.416C33.8846 8.112 33.8686 10.992 31.5486 10.992C29.2286 10.992 29.2126 8.112 29.2126 6.416ZM38.3752 4.672C38.3272 3.312 38.9992 1.856 40.5832 1.856C41.7832 1.856 42.7752 2.672 42.7752 3.904C42.7752 5.472 41.7992 6.176 39.8792 7.36C38.2792 8.352 36.9192 9.312 36.6952 12H44.1032V10.8H38.2792C38.5512 9.392 40.0392 8.672 41.4632 7.808C42.8712 6.928 44.2152 5.92 44.2152 3.92C44.2152 1.808 42.6472 0.655999 40.6632 0.655999C38.2632 0.655999 36.9032 2.368 37.0152 4.672H38.3752ZM47.5859 4.672C47.5379 3.312 48.2099 1.856 49.7939 1.856C50.9939 1.856 51.9859 2.672 51.9859 3.904C51.9859 5.472 51.0099 6.176 49.0899 7.36C47.4899 8.352 46.1299 9.312 45.9059 12H53.3139V10.8H47.4899C47.7619 9.392 49.2499 8.672 50.6739 7.808C52.0819 6.928 53.4259 5.92 53.4259 3.92C53.4259 1.808 51.8579 0.655999 49.8739 0.655999C47.4739 0.655999 46.1139 2.368 46.2259 4.672H47.5859ZM68.8016 3.92C68.7056 1.408 66.9296 0.304 64.5936 0.304C62.5136 0.304 60.4496 1.328 60.4496 3.648C60.4496 5.744 62.2896 6.272 64.1136 6.672C65.9376 7.072 67.7616 7.344 67.7616 8.912C67.7616 10.56 66.2416 10.992 64.8656 10.992C63.1376 10.992 61.5376 10.16 61.5376 8.24H60.0976C60.0976 11.024 62.2576 12.272 64.8176 12.272C66.8976 12.272 69.2816 11.296 69.2816 8.864C69.2816 6.624 67.4576 5.984 65.6336 5.568C63.7936 5.152 61.9696 4.944 61.9696 3.536C61.9696 2.048 63.2496 1.584 64.5296 1.584C66.0976 1.584 67.1856 2.288 67.3616 3.92H68.8016ZM71.4326 12H72.8726V2.832H72.9046L78.8726 12H80.5366V0.575999H79.0966V9.84H79.0646L73.0486 0.575999H71.4326V12ZM92.4355 0.575999H90.9155V7.872C90.9155 9.888 89.8595 10.992 87.9395 10.992C85.9235 10.992 84.7715 9.888 84.7715 7.872V0.575999H83.2515V7.872C83.2515 10.912 84.9955 12.272 87.9395 12.272C90.7875 12.272 92.4355 10.752 92.4355 7.872V0.575999ZM97.7744 12H99.2944V1.856H103.102V0.575999H93.9664V1.856H97.7744V12ZM109.527 12H111.047V0.575999H109.527V12ZM113.7 12H115.06V7.328C115.06 5.84 115.86 4.736 117.508 4.736C118.548 4.736 119.188 5.392 119.188 6.4V12H120.548V6.56C120.548 4.784 119.876 3.536 117.7 3.536C116.516 3.536 115.588 4.016 115.012 5.04H114.98V3.728H113.7V12ZM130.302 0.575999H128.942V4.832H128.91C128.302 3.856 127.086 3.536 126.238 3.536C123.71 3.536 122.462 5.504 122.462 7.84C122.462 10.176 123.726 12.192 126.27 12.192C127.406 12.192 128.462 11.792 128.91 10.88H128.942V12H130.302V0.575999ZM123.902 7.936C123.902 6.32 124.526 4.736 126.382 4.736C128.254 4.736 128.99 6.24 128.99 7.872C128.99 9.424 128.286 10.992 126.462 10.992C124.702 10.992 123.902 9.488 123.902 7.936ZM139.563 3.728H138.203V8.4C138.203 9.888 137.403 10.992 135.755 10.992C134.715 10.992 134.075 10.336 134.075 9.328V3.728H132.715V9.168C132.715 10.944 133.387 12.192 135.563 12.192C136.747 12.192 137.675 11.712 138.251 10.688H138.283V12H139.563V3.728ZM141.397 9.392C141.477 11.44 143.045 12.192 144.901 12.192C146.581 12.192 148.421 11.552 148.421 9.584C148.421 7.984 147.077 7.536 145.717 7.232C144.453 6.928 143.013 6.768 143.013 5.792C143.013 4.96 143.957 4.736 144.773 4.736C145.669 4.736 146.597 5.072 146.693 6.128H148.053C147.941 4.112 146.485 3.536 144.661 3.536C143.221 3.536 141.573 4.224 141.573 5.888C141.573 7.472 142.933 7.92 144.277 8.224C145.637 8.528 146.981 8.704 146.981 9.76C146.981 10.8 145.829 10.992 144.981 10.992C143.861 10.992 142.805 10.608 142.757 9.392H141.397ZM152.133 1.248H150.773V3.728H149.365V4.928H150.773V10.192C150.773 11.712 151.333 12 152.741 12H153.781V10.8H153.157C152.309 10.8 152.133 10.688 152.133 10.064V4.928H153.781V3.728H152.133V1.248ZM155.564 12H156.924V8.32C156.924 6.224 157.724 4.976 159.916 4.976V3.536C158.444 3.488 157.532 4.144 156.876 5.472H156.844V3.728H155.564V12ZM161.34 12H162.7V3.728H161.34V12ZM162.7 0.575999H161.34V2.24H162.7V0.575999ZM170.247 9.12C170.247 9.872 169.511 10.992 167.719 10.992C166.887 10.992 166.119 10.672 166.119 9.776C166.119 8.768 166.887 8.448 167.783 8.288C168.695 8.128 169.719 8.112 170.247 7.728V9.12ZM172.455 10.912C172.279 10.976 172.151 10.992 172.039 10.992C171.607 10.992 171.607 10.704 171.607 10.064V5.808C171.607 3.872 169.991 3.536 168.503 3.536C166.663 3.536 165.079 4.256 164.999 6.304H166.359C166.423 5.088 167.271 4.736 168.423 4.736C169.287 4.736 170.263 4.928 170.263 6.112C170.263 7.136 168.983 7.04 167.479 7.328C166.071 7.6 164.679 8 164.679 9.872C164.679 11.52 165.911 12.192 167.415 12.192C168.567 12.192 169.575 11.792 170.327 10.912C170.327 11.808 170.775 12.192 171.479 12.192C171.911 12.192 172.215 12.112 172.455 11.968V10.912ZM174.121 12H175.481V0.575999H174.121V12ZM182.905 12H186.825C190.633 12 192.313 9.84 192.313 6.016C192.313 2.336 190.345 0.575999 186.825 0.575999H182.905V12ZM184.425 1.856H186.985C189.785 1.856 190.793 3.504 190.793 6.224C190.793 10.432 187.993 10.72 186.953 10.72H184.425V1.856ZM199.978 9.376C199.738 10.448 198.954 10.992 197.834 10.992C196.026 10.992 195.21 9.712 195.258 8.272H201.45C201.53 6.272 200.634 3.536 197.706 3.536C195.45 3.536 193.818 5.36 193.818 7.84C193.898 10.368 195.146 12.192 197.786 12.192C199.642 12.192 200.954 11.2 201.322 9.376H199.978ZM195.258 7.072C195.354 5.808 196.202 4.736 197.626 4.736C198.97 4.736 199.946 5.776 200.01 7.072H195.258ZM202.652 9.392C202.732 11.44 204.3 12.192 206.156 12.192C207.836 12.192 209.676 11.552 209.676 9.584C209.676 7.984 208.332 7.536 206.972 7.232C205.708 6.928 204.268 6.768 204.268 5.792C204.268 4.96 205.212 4.736 206.028 4.736C206.924 4.736 207.852 5.072 207.948 6.128H209.308C209.196 4.112 207.74 3.536 205.916 3.536C204.476 3.536 202.828 4.224 202.828 5.888C202.828 7.472 204.188 7.92 205.532 8.224C206.892 8.528 208.236 8.704 208.236 9.76C208.236 10.8 207.084 10.992 206.236 10.992C205.116 10.992 204.06 10.608 204.012 9.392H202.652ZM211.58 12H212.94V3.728H211.58V12ZM212.94 0.575999H211.58V2.24H212.94V0.575999ZM218.695 10.896C216.903 10.896 216.359 9.232 216.359 7.744C216.359 6.16 217.063 4.736 218.807 4.736C220.519 4.736 221.159 6.24 221.159 7.696C221.159 9.248 220.487 10.896 218.695 10.896ZM222.503 3.728H221.223V4.912H221.207C220.711 4 219.783 3.536 218.743 3.536C215.879 3.536 214.919 5.952 214.919 7.904C214.919 10.16 216.151 12.096 218.615 12.096C219.655 12.096 220.743 11.6 221.191 10.592H221.223V11.136C221.223 12.992 220.519 14.272 218.743 14.272C217.847 14.272 216.663 13.92 216.599 12.928H215.239C215.319 14.736 217.111 15.36 218.663 15.36C221.271 15.36 222.503 13.984 222.503 11.296V3.728ZM224.875 12H226.235V7.328C226.235 5.84 227.035 4.736 228.683 4.736C229.723 4.736 230.363 5.392 230.363 6.4V12H231.723V6.56C231.723 4.784 231.051 3.536 228.875 3.536C227.691 3.536 226.763 4.016 226.187 5.04H226.155V3.728H224.875V12Z" fill="black"/>
</svg>
