<svg width="118" height="79" viewBox="0 0 118 79" fill="none" xmlns="http://www.w3.org/2000/svg">
<g clip-path="url(#clip0_61_970)">
<path d="M52.4443 79V52.6666H65.5554C65.5554 52.6666 53.1163 53.8571 52.4443 79Z" fill="#F5FF33"/>
<path d="M26.2222 52.6667H52.4444V26.3334C52.4444 33.3174 49.6817 40.0154 44.7641 44.9539C39.8465 49.8923 33.1767 52.6667 26.2222 52.6667Z" fill="#F5FF33"/>
<path d="M0 52.6667H26.2222V26.3334C26.2222 33.3174 23.4595 40.0154 18.5419 44.9539C13.6243 49.8923 6.95457 52.6667 0 52.6667H0Z" fill="#F5FF33"/>
<path d="M26.2222 26.3333H52.4444V0C52.4444 6.98403 49.6817 13.682 44.7641 18.6205C39.8465 23.5589 33.1767 26.3333 26.2222 26.3333Z" fill="#F5FF33"/>
<path d="M91.7779 0H65.5557V26.3333C65.5557 19.3493 68.3184 12.6513 73.236 7.71285C78.1536 2.7744 84.8233 0 91.7779 0V0Z" fill="#F5FF33"/>
<path d="M91.7778 79H118V52.6666C118 59.6507 115.237 66.3486 110.32 71.2871C105.402 76.2256 98.7324 79 91.7778 79Z" fill="#F5FF33"/>
<path d="M118 26.3333V0H91.7778C98.7324 0 105.402 2.7744 110.32 7.71285C115.237 12.6513 118 19.3493 118 26.3333Z" fill="#F5FF33"/>
<path d="M65.5557 52.6666V79H91.7779C84.8233 79 78.1536 76.2256 73.236 71.2871C68.3184 66.3486 65.5557 59.6507 65.5557 52.6666Z" fill="#F5FF33"/>
</g>
<defs>
<clipPath id="clip0_61_970">
<rect width="118" height="79" fill="white"/>
</clipPath>
</defs>
</svg>
