<svg width="80" height="88" viewBox="0 0 80 88" fill="none" xmlns="http://www.w3.org/2000/svg">
<circle opacity="0.4" cx="38" cy="38" r="38" fill="white"/>
<path d="M46.7792 44.6278C46.3517 44.2962 45.8329 44.0858 45.2832 44.0212C44.7335 43.9566 44.1756 44.0404 43.6746 44.263C43.1736 44.4855 42.7502 44.8375 42.4537 45.278C42.1572 45.7185 41.9998 46.2293 42 46.7507V85.2431C42 87.7922 45.3595 88.9692 47.1297 87.0443L57.4243 75.8441C57.8357 75.397 58.3444 75.0384 58.916 74.7926C59.4876 74.5468 60.1086 74.4197 60.737 74.4197H77.0727C79.8129 74.4197 81.0456 71.1859 78.9306 69.547L46.7792 44.6278Z" fill="#F5FF33"/>
</svg>
