<svg width="247" height="207" viewBox="0 0 247 207" fill="none" xmlns="http://www.w3.org/2000/svg">
<path d="M216.353 122.159C217.408 121.056 218.403 120.027 219.388 118.984C219.836 118.489 220.264 118.064 221.006 118.074C221.657 118.074 222.175 118.143 222.1 119.004C222.055 119.528 222.468 119.632 222.886 119.701C224.429 119.958 225.966 120.245 227.514 120.473C228.25 120.581 228.638 120.878 228.509 121.665C228.474 121.937 228.474 122.213 228.509 122.486C228.593 123.242 228.195 123.475 227.514 123.599C226.021 123.816 224.528 124.093 223.07 124.34C222.623 124.415 222.125 124.39 222.075 125.053C222.04 125.641 222.284 125.854 222.861 125.918C223.439 125.983 223.309 126.497 223.309 126.873C223.309 128.886 223.354 130.899 223.309 132.912C223.309 133.758 223.593 134.05 224.424 134.015C225.653 133.966 226.882 134.015 228.111 134.015C228.773 134.015 229.051 134.252 229.041 134.925C229.041 136.632 229.041 138.343 229.041 140.049C229.041 140.742 228.807 141.039 228.076 141.039C226.822 140.999 225.558 141.039 224.304 141.039C223.608 141.039 223.309 141.222 223.309 141.968C223.346 144.072 223.346 146.176 223.309 148.28C223.309 149.071 223.638 149.269 224.359 149.269C225.434 149.234 226.509 149.269 227.578 149.269C228.419 149.234 228.698 149.546 228.693 150.387C228.693 156.456 228.693 162.524 228.693 168.598V170.977C228.693 172.991 228.693 172.991 230.489 172.12C231.343 171.648 232.342 171.505 233.295 171.717C234.248 171.93 235.09 172.483 235.659 173.272C235.773 173.416 235.888 173.559 235.997 173.708C238.052 176.596 237.918 181.246 235.699 184.01C234.32 185.732 232.449 186.142 230.454 185.178C229.877 184.896 229.29 184.634 228.708 184.357C228.335 184.179 228.106 184.238 228.126 184.693C228.144 184.798 228.14 184.906 228.113 185.009C228.087 185.113 228.039 185.21 227.972 185.293C227.905 185.377 227.822 185.445 227.726 185.495C227.631 185.544 227.526 185.572 227.419 185.578C226.966 185.662 227.066 186.073 227.066 186.409C227.066 187.814 227.036 189.219 227.066 190.623C227.066 191.296 226.812 191.568 226.15 191.548C225.489 191.529 224.742 191.548 224.036 191.548C223.603 191.548 223.23 191.454 223.24 190.9C223.24 190.465 223.001 190.312 222.588 190.337C222.304 190.337 222.09 190.475 222.09 190.772C222.09 191.158 221.971 191.618 222.513 191.761C223.056 191.904 223.598 191.969 224.14 192.063C225.319 192.27 226.499 192.483 227.678 192.666C228.26 192.755 228.529 193.012 228.514 193.626C228.459 195.812 228.777 195.49 226.693 195.856L222.797 196.529C222.448 196.588 222.135 196.658 222.08 197.098C222.036 197.434 222.205 197.934 221.692 198.003C221.075 198.082 220.408 198.235 219.876 197.682C219.199 196.974 218.488 196.302 217.826 195.579C217.64 195.359 217.406 195.185 217.141 195.07C216.876 194.955 216.587 194.902 216.299 194.917C214.184 194.951 212.064 194.917 209.945 194.917C209.412 194.917 208.95 194.917 208.95 195.659C208.95 196.4 208.343 196.213 207.915 196.217C204.263 196.217 200.61 196.217 196.968 196.217H169.602C168.373 196.217 168.363 196.217 168.607 197.464C169.105 200.194 169.602 202.905 170.065 205.66C170.299 206.99 170.284 207 168.936 207H104.75H81.1804C79.7972 207 79.7773 207 80.0211 205.605C80.8471 200.892 81.693 196.178 82.509 191.464C82.708 190.351 82.708 190.297 81.5536 190.361C77.7572 190.574 74.135 189.511 70.463 188.848C59.5962 186.869 48.7443 184.856 37.8875 182.853C36.4694 182.591 36.4695 182.596 36.4695 181.186C36.4695 179.173 36.4297 177.155 36.4695 175.147C36.4695 174.237 36.161 174.009 35.3002 174.019C31.9864 174.059 28.6727 174.019 25.3489 174.019C23.5826 174.019 23.5577 174.019 22.6521 172.615C22.2541 172.001 22.0949 171.868 21.7416 172.659C21.5774 173.01 21.0997 173.203 21.045 173.728C21.0152 174.039 20.6122 174.009 20.3435 174.009C15.2484 174.009 10.1534 174.009 5.05835 174.009C4.38664 174.009 4.23736 173.648 4.23736 173.075C4.23736 172.743 4.37171 172.244 3.80946 172.234C3.24722 172.224 2.97854 172.56 3.03327 173.129C3.1079 173.945 2.53569 174.004 1.9635 173.99C1.3913 173.975 0.863899 174.044 0.550434 173.139C-0.484496 170.127 0.306628 167.06 0.0528715 164.038C-0.0267386 163.148 0.615097 162.49 0.809146 161.674C0.963391 161.046 1.88888 161.397 2.476 161.377C2.97356 161.377 3.05814 161.728 3.05814 162.134C3.04563 162.285 3.04563 162.437 3.05814 162.589C3.14273 163.004 3.49598 163.083 3.82438 163.113C4.15277 163.143 4.26721 162.806 4.23238 162.529C4.09804 161.456 4.66526 161.293 5.5957 161.298C10.3823 161.337 15.1738 161.298 19.9603 161.298C20.5027 161.298 21.0749 161.194 21.1694 162.035C21.2142 162.455 21.881 162.529 21.9506 163.078C21.9506 163.262 22.4183 163.197 22.488 163.019C22.6323 162.628 23.1149 162.445 23.1696 162.094C23.294 161.273 23.8314 161.288 24.4434 161.293C28.0955 161.293 31.7476 161.293 35.3898 161.293C36.1909 161.293 36.4695 161.065 36.4496 160.254C36.3998 158.088 36.4496 155.921 36.4197 153.755C36.3897 153.442 36.4523 153.126 36.5999 152.848C36.7475 152.569 36.9737 152.34 37.2507 152.187C45.424 146.997 53.589 141.797 61.7457 136.587C66.99 133.25 72.2326 129.905 77.4736 126.551C78.1073 126.128 78.8549 125.906 79.6181 125.913C88.3354 125.933 97.0527 125.933 105.77 125.913C107.034 125.913 107.034 125.913 107.039 124.632C107.039 120.151 107.014 115.665 107.039 111.179C107.09 110.822 106.997 110.46 106.779 110.171C106.562 109.883 106.238 109.692 105.879 109.641C97.6033 107.112 89.5679 103.861 81.8671 99.9264C73.295 95.5392 65.1729 90.3328 57.6159 84.3808C55.4017 82.6496 53.297 80.7751 51.1476 78.94C50.8341 78.673 50.2122 78.4454 50.4808 77.8865C50.589 77.5809 50.781 77.3115 51.0351 77.1087C51.2892 76.906 51.5953 76.7779 51.9188 76.739C52.5607 76.7044 53.2075 76.739 53.8494 76.7093C75.9179 76.7093 97.9848 76.7093 120.05 76.7093C120.481 76.7515 120.915 76.6588 121.29 76.4443C121.666 76.2297 121.965 75.9039 122.145 75.5124C126.25 68.3603 130.404 61.2379 134.549 54.1056C135.181 53.0175 135.181 53.0175 134.051 52.6218C132.643 52.0961 131.265 51.4951 129.922 50.8214C129.305 50.5147 129.061 49.6145 129.3 48.655C129.479 47.9427 130.061 48.1604 130.504 48.1604C132.529 48.1356 134.559 48.0961 136.579 48.1604C137.49 48.19 137.858 47.8834 138.072 47.0079C140.186 38.7627 142.346 30.5274 144.49 22.2773C144.645 21.6986 144.674 21.0507 145.53 20.9913C145.859 20.9913 145.859 20.5956 145.859 20.3187C145.859 16.1392 145.938 11.9597 145.799 7.78519C145.682 6.85232 145.682 5.90866 145.799 4.97579C145.983 4.16828 145.899 3.32334 145.56 2.56704C145.187 1.76082 145.943 1.02384 146.008 0.212679C146.008 0.0049425 146.351 0 146.565 0C148.008 0 149.451 0 150.894 0C151.392 0 151.645 0.173096 151.625 0.692439C151.613 0.967975 151.706 1.23798 151.884 1.44921C152.015 1.60439 152.098 1.79431 152.122 1.99556C152.146 2.19682 152.11 2.40062 152.018 2.58186C151.731 3.09627 151.58 3.67506 151.58 4.26355C151.58 4.85204 151.731 5.43083 152.018 5.94524C152.097 6.08059 152.138 6.2341 152.138 6.39038C152.138 6.54666 152.097 6.7002 152.018 6.83554C151.496 7.51316 151.64 8.2798 151.635 9.02667C151.635 12.6571 151.635 16.2876 151.635 19.9081C151.635 20.5264 151.605 21.0705 152.481 21.1051C152.939 21.1051 153.033 21.6294 153.208 21.9756L163.86 42.873C164.637 44.3964 165.433 45.9099 166.199 47.4382C166.274 47.6537 166.417 47.839 166.608 47.9659C166.798 48.0927 167.025 48.1541 167.254 48.1406C167.642 48.1406 168.249 47.9526 168.304 48.561C168.363 49.2534 168.717 50.1091 168.01 50.6136C167.775 50.7734 167.597 51.003 167.502 51.2696C167.406 51.5361 167.398 51.8259 167.478 52.0975L170.851 74.0731C170.946 74.7062 171.07 75.3343 171.13 75.9724C171.18 76.5214 171.458 76.7094 171.976 76.6896C172.314 76.6896 172.647 76.6896 172.971 76.6896H244.789C245.216 76.6261 245.653 76.6634 246.063 76.7984C247.227 77.3672 247.297 78.1685 246.327 79.0143C242.46 82.3628 238.5 85.5827 234.325 88.5553C229.32 92.1376 224.092 95.4019 218.672 98.3288C215.836 99.8473 212.995 101.356 210.024 102.602C209.442 102.85 209.208 103.156 209.442 103.789C209.572 104.228 209.677 104.674 209.756 105.125C209.8 105.298 209.8 105.575 209.91 105.619C211.547 106.46 211.835 108.231 212.622 109.621C213.184 110.61 213.756 111.105 214.895 110.946C215.796 110.798 216.06 111.233 216.05 112.094C216.01 115.062 216.05 118.074 216.05 121.061C216.016 121.452 216.123 121.841 216.353 122.159ZM197.446 120.928C197.446 119.587 197.446 118.242 197.446 116.902C197.468 116.631 197.415 116.36 197.293 116.118C197.171 115.876 196.985 115.671 196.754 115.527C195.126 114.342 194.001 112.596 193.6 110.63C193.247 109.111 193.266 109.146 191.749 109.537C191.576 109.559 191.408 109.615 191.257 109.701C191.106 109.788 190.973 109.904 190.867 110.042C190.761 110.18 190.684 110.337 190.639 110.505C190.595 110.674 190.585 110.849 190.609 111.021C190.609 112.119 190.664 113.212 190.659 114.305C190.659 117.896 190.659 121.491 190.659 125.082C190.659 125.661 190.883 125.908 191.48 125.898C193.167 125.898 194.854 125.898 196.54 125.898C197.247 125.898 197.446 125.612 197.431 124.964C197.446 123.613 197.446 122.268 197.446 120.928Z" fill="black"/>
<path d="M130.806 158.416V153.686H132.566C133.974 153.686 135.096 154.06 135.096 155.93C135.096 157.404 134.304 158.416 132.786 158.416H130.806ZM130.806 165.61V160.176H133.138C134.59 160.176 135.602 161.144 135.602 162.838C135.602 164.642 134.788 165.61 133.292 165.61H130.806ZM128.298 167.502H133.27C136.218 167.502 138.11 165.83 138.11 163.212C138.11 160.55 137.01 159.516 135.294 159.208V159.164C136.856 158.68 137.604 157.514 137.604 155.6C137.604 152.828 135.712 151.794 133.38 151.794H128.298V167.502ZM140.136 151.794V162.86C140.136 166.49 141.94 167.81 144.954 167.81C147.946 167.81 149.75 166.49 149.75 162.86V151.794H147.242V163.058C147.242 165.038 146.45 165.918 144.954 165.918C143.436 165.918 142.644 165.038 142.644 163.058V151.794H140.136ZM155.033 167.502H157.541V161.364L161.743 151.794H159.125L156.419 158.57L153.779 151.794H150.985L155.033 161.364V167.502Z" fill="#F5FF33"/>
<path d="M159.116 113.162L146.047 100V108.099L154.699 116.751L146.047 125.403V133.502L159.116 120.341V113.162Z" fill="#F5FF33"/>
<path d="M143.07 113.162L130 100V108.099L138.652 116.751L130 125.403V133.502L143.07 120.341V113.162Z" fill="#F5FF33"/>
</svg>
