<svg width="158" height="114" viewBox="0 0 158 114" fill="none" xmlns="http://www.w3.org/2000/svg">
<path d="M8.63211 103.97H7.63211V100.53H5.86211V99.64H7.63211V97.6H8.63211V103.97ZM8.84211 106.2H2.22211V103.39H3.22211V105.36H8.84211V106.2ZM6.36211 101.85L5.77211 102.64C4.90211 102.33 4.07211 101.61 3.55211 100.87C3.32211 101.61 2.23211 102.5 1.27211 102.92L0.522109 102.17C2.79211 101.25 3.02211 99.81 3.02211 99.23V98.98H1.16211V98.14H5.95211V98.98H4.10211V99.23C4.10211 99.75 4.41211 101.11 6.36211 101.85ZM17.7113 106.4H16.7113V97.6H17.7113V106.4ZM15.7713 104L15.1013 104.72C14.3213 104.38 13.2113 103.16 12.7413 102.08C12.4613 103.06 11.2413 104.41 10.3813 104.9L9.58133 104.27C11.4313 103.25 12.2113 101.66 12.2113 99.5V98.11H13.2613V99.5C13.2613 101.69 14.1213 103.02 15.7713 104ZM27.9205 100.47H26.6305V102.93H25.6305V97.6H26.6305V99.56H27.9205V100.47ZM24.7405 101.58L24.1605 102.34C23.4605 102.16 22.4805 101.48 21.8505 100.66C21.5405 101.44 20.2905 102.3 19.5505 102.58L18.8505 101.88C20.7805 101.15 21.3205 100.2 21.3205 98.98H19.4605V98.14H24.2605V98.98H22.4005C22.4005 100.2 23.0705 101.07 24.7405 101.58ZM26.8705 104.84C26.8705 105.83 25.7305 106.54 23.5505 106.54C21.3805 106.54 20.2305 105.83 20.2305 104.84C20.2305 103.85 21.3805 103.12 23.5505 103.12C25.7305 103.12 26.8705 103.85 26.8705 104.84ZM25.7905 104.85C25.7905 104.29 24.8805 103.92 23.5505 103.92C22.2005 103.92 21.3005 104.29 21.3005 104.85C21.3005 105.39 22.2005 105.76 23.5505 105.76C24.8805 105.76 25.7905 105.39 25.7905 104.85ZM36.1798 106.4H35.1798V97.6H36.1798V106.4ZM34.8198 104.42C34.1898 104.48 32.1098 104.58 30.7498 104.6L28.3498 104.61V103.77L30.8298 103.76C32.3698 103.74 33.9598 103.65 34.8198 103.56V104.42ZM31.3098 98.12C32.7598 98.12 33.8098 99.13 33.8098 100.32C33.8098 101.52 32.7598 102.53 31.3098 102.53C29.8598 102.53 28.8198 101.52 28.8198 100.32C28.8198 99.13 29.8598 98.12 31.3098 98.12ZM32.7798 100.32C32.7798 99.6 32.2398 98.97 31.3098 98.97C30.3898 98.97 29.8498 99.6 29.8498 100.32C29.8498 101.06 30.3898 101.68 31.3098 101.68C32.2398 101.68 32.7798 101.06 32.7798 100.32ZM48.7351 104.08H47.7451V102.24H46.2051V101.39H47.7451V100.41H46.4051V99.57H47.7451V97.6H48.7351V104.08ZM48.9151 106.2H42.3251V103.77H43.3451V105.37H48.9151V106.2ZM44.9551 98.35H42.2251V97.56H44.9551V98.35ZM46.2751 99.78H40.9051V98.98H46.2751V99.78ZM43.5851 103.28C42.1351 103.28 41.2851 102.56 41.2851 101.76C41.2851 100.91 42.1451 100.26 43.5951 100.26C45.1151 100.26 45.8951 100.91 45.8951 101.76C45.8951 102.57 45.1051 103.28 43.5851 103.28ZM44.8151 101.75C44.8151 101.3 44.4751 100.97 43.6051 100.97C42.7351 100.97 42.3851 101.3 42.3851 101.75C42.3851 102.19 42.7251 102.51 43.6051 102.51C44.4751 102.51 44.8151 102.2 44.8151 101.75ZM59.0143 100.47H57.7243V102.93H56.7243V97.6H57.7243V99.56H59.0143V100.47ZM55.8343 101.58L55.2543 102.34C54.5543 102.16 53.5743 101.48 52.9443 100.66C52.6343 101.44 51.3843 102.3 50.6443 102.58L49.9443 101.88C51.8743 101.15 52.4143 100.2 52.4143 98.98H50.5543V98.14H55.3543V98.98H53.4943C53.4943 100.2 54.1643 101.07 55.8343 101.58ZM57.9643 104.84C57.9643 105.83 56.8243 106.54 54.6443 106.54C52.4743 106.54 51.3243 105.83 51.3243 104.84C51.3243 103.85 52.4743 103.12 54.6443 103.12C56.8243 103.12 57.9643 103.85 57.9643 104.84ZM56.8843 104.85C56.8843 104.29 55.9743 103.92 54.6443 103.92C53.2943 103.92 52.3943 104.29 52.3943 104.85C52.3943 105.39 53.2943 105.76 54.6443 105.76C55.9743 105.76 56.8843 105.39 56.8843 104.85ZM67.8896 101.51C67.8896 103.47 66.9696 104.76 65.5096 104.76C64.0596 104.76 63.1096 103.48 63.1096 101.51C63.1096 99.52 64.0596 98.26 65.5096 98.26C66.9696 98.26 67.8896 99.53 67.8896 101.51ZM70.6396 106.4H69.6396V97.6H70.6396V106.4ZM66.9096 101.5C66.9096 100.24 66.4096 99.14 65.5196 99.14C64.6296 99.14 64.0996 100.25 64.0996 101.5C64.0996 102.78 64.6296 103.87 65.5196 103.87C66.4096 103.87 66.9096 102.78 66.9096 101.5ZM79.6588 106.4H78.6588V97.6H79.6588V106.4ZM76.8888 104.53H72.5188V98.67H76.8888V104.53ZM75.8988 103.69V99.51H73.5088V103.69H75.8988ZM89.218 106.4H88.218V97.6H89.218V106.4ZM87.138 103.88L86.448 104.65C85.678 104.14 84.538 103.09 84.268 102.18C83.888 103.36 82.838 104.33 81.938 104.92L81.118 104.24C83.138 103.1 83.718 101.51 83.718 100.06V99.4H81.728V98.53H86.828V99.4H84.828V100.06C84.828 101.48 85.448 102.94 87.138 103.88ZM98.9473 102.45H90.1473V101.69H98.9473V102.45ZM91.2873 101.06V99.09H96.6273V98.53H91.2873V97.8H97.7173V99.76H92.3573V100.33H97.9073V101.06H91.2873ZM97.9073 106.3H91.2873V104.33H96.6373V103.77H91.2873V103.04H97.7073V105H92.3573V105.57H97.9073V106.3ZM107.373 98.27H104.633V97.53H107.373V98.27ZM108.713 99.46H103.273V98.71H108.713V99.46ZM111.813 101.28H110.583V103.72H109.583V97.6H110.583V100.4H111.813V101.28ZM109.243 103.25C108.633 103.33 107.823 103.4 106.853 103.44C105.633 103.49 103.053 103.47 102.913 103.47V102.66H105.493V102.1C104.393 102 103.643 101.58 103.643 100.97C103.643 100.27 104.633 99.77 106.023 99.77C107.423 99.77 108.393 100.26 108.393 100.98C108.393 101.57 107.683 101.99 106.603 102.09V102.64C107.243 102.64 108.493 102.52 109.243 102.44V103.25ZM110.583 106.4H109.563V104.87H104.123V104.09H110.583V106.4ZM106.023 100.47C105.233 100.47 104.693 100.63 104.693 100.97C104.693 101.29 105.233 101.43 106.023 101.43C106.813 101.43 107.353 101.28 107.353 100.97C107.353 100.65 106.813 100.47 106.023 100.47ZM120.182 103.97H119.182V97.6H120.182V103.97ZM120.382 106.2H113.852V103.41H114.872V105.36H120.382V106.2ZM117.352 100.14C117.352 101.38 116.332 102.38 114.912 102.38C113.492 102.38 112.482 101.38 112.482 100.14C112.482 98.9 113.492 97.89 114.912 97.89C116.332 97.89 117.352 98.9 117.352 100.14ZM116.322 100.14C116.322 99.38 115.822 98.76 114.912 98.76C114.022 98.76 113.512 99.38 113.512 100.14C113.512 100.89 114.022 101.51 114.912 101.51C115.822 101.51 116.322 100.89 116.322 100.14ZM124.911 99.08H122.451V98.29H124.911V99.08ZM125.991 100.66H121.391V99.86H125.991V100.66ZM129.521 106.4H128.551V102.12H127.571V106H126.601V97.8H127.571V101.16H128.551V97.6H129.521V106.4ZM125.741 103.11C125.741 104.25 124.871 104.97 123.701 104.97C122.591 104.97 121.661 104.26 121.661 103.11C121.661 102 122.591 101.27 123.701 101.27C124.861 101.27 125.741 102.01 125.741 103.11ZM122.621 103.13C122.621 103.77 123.061 104.17 123.701 104.17C124.351 104.17 124.771 103.77 124.771 103.12C124.771 102.48 124.361 102.06 123.701 102.06C123.051 102.06 122.621 102.48 122.621 103.13ZM139.23 105.31H130.44V104.47H134.31V102.79H131.64V98.13H132.64V99.65H137.04V98.13H138.05V102.79H135.35V104.47H139.23V105.31ZM137.04 101.95V100.49H132.64V101.95H137.04ZM146.169 106H145.199V101.51H143.799V100.61H145.199V97.8H146.169V106ZM148.029 106.4H147.059V97.6H148.029V106.4ZM144.659 104.08L143.949 104.71C143.309 104.21 142.389 103.07 142.179 102.28C141.959 103.11 141.139 104.25 140.329 104.94L139.519 104.34C141.069 103.33 141.659 101.62 141.659 99.79V98.31H142.709V99.79C142.709 101.59 143.319 103.08 144.659 104.08ZM156.669 100.24C156.669 101.57 155.329 102.56 153.239 102.56C151.119 102.56 149.809 101.57 149.809 100.24C149.809 98.91 151.129 97.94 153.239 97.94C155.359 97.94 156.669 98.9 156.669 100.24ZM157.639 105.32H148.839V104.48H151.119V102.74H152.129V104.48H154.379V102.74H155.399V104.48H157.639V105.32ZM155.619 100.25C155.619 99.34 154.559 98.82 153.239 98.82C151.929 98.82 150.859 99.34 150.859 100.25C150.859 101.14 151.929 101.68 153.239 101.68C154.549 101.68 155.619 101.14 155.619 100.25Z" fill="#F5FF33"/>
<circle opacity="0.3" cx="79.5" cy="22.5" r="22.5" fill="white"/>
<path d="M21.9805 78.364C21.7145 76.054 19.8665 74.766 17.6685 74.766C14.5745 74.766 12.7545 77.076 12.7545 80.044C12.7545 82.928 14.5745 85.238 17.6685 85.238C20.1185 85.238 21.8405 83.642 22.0645 81.15H19.9365C19.7685 82.466 19.0125 83.39 17.6685 83.39C15.6945 83.39 14.9525 81.71 14.9525 80.044C14.9525 78.294 15.6945 76.614 17.6685 76.614C18.7605 76.614 19.7125 77.37 19.8525 78.364H21.9805ZM23.7054 85H30.7754V83.152H25.9034V75.004H23.7054V85ZM32.1442 85H34.3422V75.004H32.1442V85ZM45.2051 78.364C44.9391 76.054 43.0911 74.766 40.8931 74.766C37.7991 74.766 35.9791 77.076 35.9791 80.044C35.9791 82.928 37.7991 85.238 40.8931 85.238C43.3431 85.238 45.0651 83.642 45.2891 81.15H43.1611C42.9931 82.466 42.2371 83.39 40.8931 83.39C38.9191 83.39 38.1771 81.71 38.1771 80.044C38.1771 78.294 38.9191 76.614 40.8931 76.614C41.9851 76.614 42.9371 77.37 43.0771 78.364H45.2051ZM46.9301 85H49.1281V81.78L50.3881 80.506L53.3981 85H56.1561L51.8721 78.952L55.7781 75.004H53.0341L49.1281 79.148V75.004H46.9301V85ZM63.4221 85H65.6201V76.852H68.6161V75.004H60.4261V76.852H63.4221V85ZM69.9087 85H72.1067V80.688H76.1527V85H78.3507V75.004H76.1527V78.84H72.1067V75.004H69.9087V85ZM80.4256 85H88.0136V83.152H82.6236V80.702H87.4676V78.994H82.6236V76.852H87.9016V75.004H80.4256V85ZM102.472 78.364C102.206 76.054 100.358 74.766 98.1603 74.766C95.0663 74.766 93.2463 77.076 93.2463 80.044C93.2463 82.928 95.0663 85.238 98.1603 85.238C100.61 85.238 102.332 83.642 102.556 81.15H100.428C100.26 82.466 99.5043 83.39 98.1603 83.39C96.1863 83.39 95.4443 81.71 95.4443 80.044C95.4443 78.294 96.1863 76.614 98.1603 76.614C99.2523 76.614 100.204 77.37 100.344 78.364H102.472ZM104.197 85H106.395V75.004H104.197V85ZM108.466 85H110.664V81.094H112.862C113.968 81.094 114.374 81.556 114.528 82.606C114.64 83.404 114.612 84.37 114.878 85H117.076C116.684 84.44 116.698 83.264 116.656 82.634C116.586 81.626 116.278 80.576 115.2 80.296V80.268C116.306 79.82 116.782 78.938 116.782 77.762C116.782 76.25 115.648 75.004 113.856 75.004H108.466V85ZM110.664 76.712H113.072C114.052 76.712 114.584 77.132 114.584 78.098C114.584 79.106 114.052 79.526 113.072 79.526H110.664V76.712ZM127.502 78.364C127.236 76.054 125.388 74.766 123.19 74.766C120.096 74.766 118.276 77.076 118.276 80.044C118.276 82.928 120.096 85.238 123.19 85.238C125.64 85.238 127.362 83.642 127.586 81.15H125.458C125.29 82.466 124.534 83.39 123.19 83.39C121.216 83.39 120.474 81.71 120.474 80.044C120.474 78.294 121.216 76.614 123.19 76.614C124.282 76.614 125.234 77.37 125.374 78.364H127.502ZM129.227 85H136.297V83.152H131.425V75.004H129.227V85ZM137.665 85H145.253V83.152H139.863V80.702H144.707V78.994H139.863V76.852H145.141V75.004H137.665V85Z" fill="#F5FF33"/>
<path d="M77.2803 29C75.6398 29.0019 74.0671 29.6544 72.9072 30.8144C71.7472 31.9744 71.0947 33.5471 71.0928 35.1875H73.1553C73.1553 34.0935 73.5899 33.0443 74.3635 32.2707C75.137 31.4971 76.1863 31.0625 77.2803 31.0625C78.3743 31.0625 79.4235 31.4971 80.1971 32.2707C80.9707 33.0443 81.4053 34.0935 81.4053 35.1875H83.4678C83.4659 33.5471 82.8134 31.9744 81.6534 30.8144C80.4934 29.6544 78.9207 29.0019 77.2803 29Z" fill="#F5FF33"/>
<path d="M85.5304 57.875H80.9517C79.917 57.8747 78.9203 57.4857 78.159 56.785L68.6715 48.0544C68.45 47.8519 68.2753 47.6035 68.1596 47.3266C68.0439 47.0497 67.99 46.7508 68.0015 46.4509C68.0131 46.151 68.09 45.8573 68.2267 45.5901C68.3634 45.3229 68.5568 45.0888 68.7932 44.9039C69.1984 44.6071 69.695 44.4623 70.1962 44.495C70.6973 44.5276 71.1711 44.7355 71.5343 45.0823L75.2179 48.4463V35.1875C75.2179 34.6405 75.4352 34.1159 75.822 33.7291C76.2088 33.3423 76.7334 33.125 77.2804 33.125C77.8274 33.125 78.352 33.3423 78.7388 33.7291C79.1256 34.1159 79.3429 34.6405 79.3429 35.1875V42.4062C79.3429 41.8592 79.5602 41.3346 79.947 40.9478C80.3338 40.561 80.8584 40.3438 81.4054 40.3438C81.9524 40.3438 82.477 40.561 82.8638 40.9478C83.2506 41.3346 83.4679 41.8592 83.4679 42.4062V43.4375C83.4679 42.8905 83.6852 42.3659 84.072 41.9791C84.4588 41.5923 84.9834 41.375 85.5304 41.375C86.0774 41.375 86.602 41.5923 86.9888 41.9791C87.3756 42.3659 87.5929 42.8905 87.5929 43.4375V44.4688C87.5929 43.9217 87.8102 43.3971 88.197 43.0103C88.5838 42.6235 89.1084 42.4062 89.6554 42.4062C90.2024 42.4062 90.727 42.6235 91.1138 43.0103C91.5006 43.3971 91.7179 43.9217 91.7179 44.4688V51.6875C91.7179 53.3285 91.066 54.9023 89.9056 56.0627C88.7453 57.2231 87.1714 57.875 85.5304 57.875Z" fill="#F5FF33"/>
</svg>
