<svg width="177" height="30" viewBox="0 0 177 30" fill="none" xmlns="http://www.w3.org/2000/svg">
<path d="M71.1832 0.371094C68.7151 4.75251 67.8305 10.0575 67.8305 15.1637C67.8305 20.5012 68.9282 25.245 71.1832 29.9564H69.7205C66.855 25.7062 65.2703 20.3687 65.2703 15.1637C65.2703 9.92501 66.829 4.65379 69.7205 0.371094H71.1832Z" fill="white"/>
<path d="M84.3793 26.5883H81.6969V15.2548H74.2305V26.5883H71.5481V3.06396H74.2305V12.6841H81.6969V3.06396H84.3793V26.5883Z" fill="white"/>
<path d="M100.105 14.8261C100.105 20.7559 99.0991 27.0494 93.0901 27.0494C87.0811 27.0494 86.0757 20.7559 86.0757 14.8261C86.0757 8.89628 87.0811 2.60278 93.0901 2.60278C99.0991 2.60278 100.105 8.89628 100.105 14.8261ZM88.8892 14.8261C88.8892 20.2623 89.3777 24.6774 93.0953 24.6774C96.813 24.6774 97.3014 20.261 97.3014 14.8261C97.3014 9.39119 96.813 4.97468 93.0953 4.97468C89.3777 4.97468 88.8892 9.38989 88.8892 14.8261Z" fill="white"/>
<path d="M101.812 3.06396H108.852C112.266 3.06396 114.428 5.23844 114.428 8.96128C114.428 11.5319 113.606 14.2325 111.077 14.8924V14.9573C112.966 15.1885 114.032 16.8694 114.154 18.8789L114.337 22.8979C114.46 25.4959 114.857 26.1596 115.496 26.5883H112.266C111.808 26.0934 111.594 24.3476 111.533 23.1941L111.351 19.5375C111.137 16.3083 109.491 16.1108 108.121 16.1108H104.494V26.5883H101.812V3.06396ZM104.494 13.7389H107.145C108.73 13.7389 111.625 13.7389 111.625 9.1925C111.625 6.88554 110.196 5.43588 107.693 5.43588H104.494V13.7389Z" fill="white"/>
<path d="M116.105 3.06396H118.788V26.5883H116.105V3.06396Z" fill="white"/>
<path d="M119.732 24.1501L129.516 5.63463H120.28V3.06396H132.318V5.73335L122.535 24.0124H132.44V26.5831H119.732V24.1501Z" fill="white"/>
<path d="M147.1 14.8261C147.1 20.7559 146.093 27.0494 140.086 27.0494C134.078 27.0494 133.071 20.7559 133.071 14.8261C133.071 8.89628 134.077 2.60278 140.086 2.60278C146.095 2.60278 147.1 8.89628 147.1 14.8261ZM135.885 14.8261C135.885 20.2623 136.372 24.6774 140.09 24.6774C143.807 24.6774 144.296 20.261 144.296 14.8261C144.296 9.39119 143.809 4.97468 140.09 4.97468C136.371 4.97468 135.881 9.38989 135.881 14.8261H135.885Z" fill="white"/>
<path d="M148.806 3.06396H152.28L159.473 22.7005H159.534V3.06396H162.216V26.5883H158.528L151.549 7.54541H151.488V26.5883H148.806V3.06396Z" fill="white"/>
<path d="M173.461 9.15996C173.461 6.69192 172.639 4.97467 170.084 4.97467C167.829 4.97467 166.488 6.29313 166.488 8.79754C166.488 15.4223 176.758 11.4656 176.758 20.0648C176.758 25.501 173.07 27.0494 169.993 27.0494C164.904 27.0494 163.41 24.215 163.41 19.2075H166.092C166.092 21.8431 166.244 24.6774 170.175 24.6774C172.309 24.6774 173.955 23.029 173.955 20.5207C173.955 13.8648 163.684 17.7202 163.684 9.08981C163.684 6.91534 164.537 2.59497 170.049 2.59497C174.193 2.59497 176.083 4.83569 176.144 9.15216L173.461 9.15996Z" fill="white"/>
<path d="M6.04507 8.99893C-2.00853 -2.99964 4.2499 -2.99964 8.13381 8.99893C4.2499 -2.99964 17.2266 27.0481 12.4568 19.0153C17.2201 27.0481 17.3292 27.0481 12.4932 19.0153C17.3292 27.0481 17.3292 -2.99964 12.4932 8.99893C17.3292 -2.99964 22.1666 -2.99964 14.1052 8.99893C22.1666 -2.99964 22.1666 32.9974 14.1052 20.9975C22.1666 32.9974 15.5158 32.9974 11.8891 20.9975C15.5158 32.9974 2.92625 3.85111 7.69476 11.2851C2.93145 3.85631 2.82103 3.85631 7.65709 11.2851C2.82103 3.85631 2.82103 32.9974 7.65709 20.9975C2.82103 32.9974 -2.01502 32.9974 6.04507 20.9975C-2.01502 32.9974 -2.01502 -2.99964 6.04507 8.99893Z" fill="white"/>
<path d="M25.8751 8.99893C18.8957 -2.99964 39.1752 -2.99964 32.6297 8.99893C39.17 -2.99964 39.17 0.93233 32.6297 10.3096C39.17 0.93233 23.7266 0.93233 27.4819 10.3096C23.7266 0.93233 23.7266 12.2256 27.4819 14.0766C23.7266 12.2282 38.2906 12.2282 32.3374 14.0766C38.2906 12.2282 38.2906 16.1549 32.3374 15.3872C38.2906 16.1666 23.7266 16.1666 27.4819 15.3872C23.7266 16.1666 23.7266 29.0667 27.4819 19.6894C23.7266 29.0667 39.8221 29.0667 32.8492 19.6894C39.8286 29.0667 39.8286 33 32.8492 21.0001C39.8286 33 18.8905 33 25.8699 21.0001C18.8957 32.9974 18.8957 -2.99964 25.8751 8.99893Z" fill="white"/>
<path d="M43.984 8.99893C31.0501 -2.99964 35.8862 -2.99964 45.596 8.99893C35.8862 -2.99964 41.877 26.4428 47.5925 18.8139C41.877 26.4428 41.9861 26.4428 47.6289 18.8139C41.9861 26.4428 47.5366 -2.99964 49.4786 8.99893C47.5366 -2.99964 53.3625 -2.99964 51.427 8.99893C53.369 -2.99964 58.9195 26.4428 53.2781 18.8139C58.9195 26.4428 59.0299 26.4428 53.3144 18.8139C59.0299 26.4428 65.0194 -2.99964 55.311 8.99893C65.0194 -2.99964 69.8594 -2.99964 56.923 8.99893C69.8555 -2.99964 61.7772 32.9974 54.2302 20.9975C61.7772 32.9974 55.8968 32.9974 52.2701 20.9975C55.8968 32.9974 50.5113 3.85111 50.4749 11.2851C50.5113 3.85631 50.4009 3.85631 50.4385 11.2851C50.4009 3.85631 44.7413 32.9974 48.5511 20.9975C44.7413 32.9974 38.8608 32.9974 46.591 20.9975C38.8543 32.9974 31.054 -2.99964 43.984 8.99893Z" fill="white"/>
</svg>
