<svg width="143" height="30" viewBox="0 0 143 30" fill="none" xmlns="http://www.w3.org/2000/svg">
<path d="M71.1824 0.371094C68.7144 4.75247 67.8298 10.0574 67.8298 15.1636C67.8298 20.501 68.9274 25.2448 71.1824 29.9561H69.7197C66.8543 25.7059 65.2695 20.3685 65.2695 15.1636C65.2695 9.9249 66.8283 4.65375 69.7197 0.371094H71.1824Z" fill="white"/>
<path d="M77.3381 3.06396H80.9336L86.7789 26.588H83.9822L82.4235 20.1309H75.478L73.8634 26.588H71.0615L77.3381 3.06396ZM76.0274 17.7577H81.8727L79.0995 6.39188H79.0384L76.0274 17.7577Z" fill="white"/>
<path d="M86.7866 3.06396H93.4606C96.295 3.06396 99.0371 4.5149 99.0371 9.09372C99.0371 11.2357 97.8485 13.3803 95.8676 14.0025V14.0687C98.5499 14.7598 99.7385 16.968 99.7385 19.8672C99.7385 24.6435 97.2393 26.588 92.6982 26.588H86.7866V3.06396ZM89.4677 13.2114H92.5462C93.6737 13.2114 96.2339 12.9152 96.2339 9.29115C96.2339 6.85301 95.1064 5.43716 92.4851 5.43716H89.4677V13.2114ZM89.4677 24.2161H93.1255C95.9598 24.2161 96.9341 22.1378 96.9341 19.8672C96.9341 16.638 95.0142 15.3858 92.6683 15.3858H89.4677V24.2161Z" fill="white"/>
<path d="M114.793 14.8259C114.793 20.757 113.788 27.0491 107.779 27.0491C101.77 27.0491 100.765 20.757 100.765 14.8259C100.765 8.89492 101.77 2.60278 107.779 2.60278C113.788 2.60278 114.793 8.89622 114.793 14.8259ZM103.578 14.8259C103.578 20.2621 104.067 24.6772 107.784 24.6772C111.502 24.6772 111.99 20.2608 111.99 14.8259C111.99 9.39112 111.502 4.97598 107.784 4.97598C104.067 4.97598 103.578 9.38982 103.578 14.8259V14.8259Z" fill="white"/>
<path d="M116.257 3.06396H118.938V19.6036C118.938 23.0627 119.978 24.6773 122.626 24.6773C125.484 24.6773 126.344 22.8977 126.344 19.6036V3.06396H129.026V19.6036C129.026 24.1174 126.893 27.0492 122.626 27.0492C118.268 27.0492 116.261 24.4512 116.261 19.6036L116.257 3.06396Z" fill="white"/>
<path d="M137.407 26.588H134.726V5.6346H129.27V3.06396H142.894V5.6346H137.408L137.407 26.588Z" fill="white"/>
<path d="M6.04501 8.99883C-2.00851 -2.99961 4.24985 -2.99961 8.13373 8.99883C4.24985 -2.99961 17.2264 27.0543 12.4566 19.0151C17.2199 27.0478 17.329 27.0478 12.493 19.0151C17.329 27.0478 17.329 -2.99961 12.493 8.99883C17.329 -2.99961 22.1663 -2.99961 14.105 8.99883C22.1663 -2.99961 22.1663 32.997 14.105 20.9986C22.1663 32.997 15.5157 32.997 11.889 20.9986C15.5157 32.997 2.92622 3.85238 7.69468 11.285C2.93141 3.85628 2.821 3.85628 7.65701 11.285C2.821 3.85628 2.821 32.997 7.65701 20.9986C2.821 32.997 -2.015 32.997 6.04501 20.9986C-2.015 32.997 -2.015 -2.99831 6.04501 8.99883Z" fill="white"/>
<path d="M25.8748 8.99883C18.8955 -2.99961 39.1748 -2.99961 32.6293 8.99883C39.1696 -2.99961 39.1696 0.932328 32.6293 10.3095C39.1696 0.932328 23.7263 0.932328 27.4816 10.3095C23.7263 0.932328 23.7263 12.2254 27.4816 14.0764C23.7263 12.228 38.2902 12.228 32.3371 14.0764C38.2902 12.228 38.2902 16.1613 32.3371 15.3871C38.2902 16.1665 23.7263 16.1665 27.4816 15.3871C23.7263 16.1665 23.7263 29.0677 27.4816 19.6892C23.7263 29.0677 39.8216 29.0677 32.8488 19.6892C39.8281 29.0677 39.8281 32.9996 32.8488 21.0012C39.8281 32.9996 18.8903 32.9996 25.8696 21.0012C18.8955 32.997 18.8955 -2.99831 25.8748 8.99883Z" fill="white"/>
<path d="M43.9837 8.99883C31.0539 -2.99831 35.886 -2.99831 45.6022 8.99883C35.886 -2.99831 41.8768 26.4425 47.5922 18.8137C41.8768 26.4425 41.9859 26.4425 47.6285 18.8137C41.9859 26.4425 47.5363 -2.99961 49.4782 8.99883C47.5363 -2.99961 53.3621 -2.99961 51.4267 8.99883C53.3621 -2.99831 58.9126 26.4425 53.266 18.8137C58.9074 26.4425 59.0178 26.4425 53.3024 18.8137C59.0178 26.4425 65.0072 -2.99961 55.2989 8.99883C65.0072 -2.99961 69.8471 -2.99961 56.9109 8.99883C69.8433 -2.99961 61.7651 32.997 54.2181 20.9986C61.7651 32.997 55.8847 32.997 52.258 20.9986C55.8847 32.997 50.4992 3.85238 50.4629 11.285C50.4992 3.85628 50.3888 3.85628 50.4265 11.285C50.3888 3.85628 44.7293 32.997 48.5391 20.9986C44.7293 32.997 38.8489 32.997 46.579 20.9986C38.8541 32.997 31.0539 -2.99831 43.9837 8.99883Z" fill="white"/>
</svg>
