<svg width="172" height="30" viewBox="0 0 172 30" fill="none" xmlns="http://www.w3.org/2000/svg">
<path d="M71.1832 0.37085C68.7151 4.75357 67.8305 10.0573 67.8305 15.1635C67.8305 20.501 68.9282 25.2461 71.1832 29.9562H69.7205C66.855 25.7072 65.2703 20.3698 65.2703 15.1635C65.2703 9.92606 66.829 4.65485 69.7205 0.37085H71.1832Z" fill="white"/>
<path d="M71.6091 3.06494H76.1204L80.4785 21.7116H80.5447L84.9028 3.06494H89.4128V26.588H86.7252V6.03698H86.6642L81.8437 26.588H79.1678L74.3526 6.03698H74.2915V26.5945H71.6091V3.06494Z" fill="white"/>
<path d="M91.4807 3.06494H102.726V5.6343H94.1618V13.015H102.237V15.5844H94.1618V24.0186H103.092V26.588H91.4807V3.06494Z" fill="white"/>
<path d="M113.301 9.15458C113.301 6.68654 112.479 4.9706 109.924 4.9706C107.669 4.9706 106.328 6.28776 106.328 8.79217C106.328 15.4169 116.598 11.4616 116.598 20.0594C116.598 25.4956 112.91 27.044 109.833 27.044C104.743 27.044 103.25 24.2109 103.25 19.2034H105.927C105.927 21.839 106.079 24.6721 110.009 24.6721C112.144 24.6721 113.789 23.025 113.789 20.5154C113.789 13.8607 103.518 17.7161 103.518 9.08444C103.518 6.90997 104.372 2.5896 109.883 2.5896C114.027 2.5896 115.917 4.82902 115.978 9.14549L113.301 9.15458Z" fill="white"/>
<path d="M127.015 9.15452C127.015 6.68648 126.193 4.97054 123.638 4.97054C121.378 4.97573 120.033 6.29679 120.033 8.7973C120.033 15.422 130.303 11.4667 130.303 20.0646C130.303 25.5007 126.615 27.0491 123.538 27.0491C118.449 27.0491 116.955 24.2161 116.955 19.2085H119.644C119.644 21.8441 119.796 24.6772 123.728 24.6772C125.861 24.6772 127.506 23.0301 127.506 20.5205C127.506 13.8659 117.235 17.7212 117.235 9.08957C117.235 6.9151 118.089 2.59473 123.6 2.59473C127.744 2.59473 129.634 4.83414 129.695 9.15062L127.015 9.15452Z" fill="white"/>
<path d="M135.763 3.06494H139.359L145.205 26.588H142.402L140.843 20.1308H133.895L132.279 26.588H129.476L135.763 3.06494ZM134.452 17.7589H140.297L137.524 6.3929H137.463L134.452 17.7589Z" fill="white"/>
<path d="M155.542 9.58832C155.42 7.12028 154.567 4.97568 151.915 4.97568C148.198 4.97568 147.709 9.39217 147.709 14.827C147.709 20.2619 148.198 24.6771 151.915 24.6771C155.633 24.6771 155.907 19.8709 155.907 16.7378H151.61V14.3646H158.345V26.5879H156.334V23.3924H156.275C155.695 25.402 153.959 27.049 151.582 27.049C145.913 27.049 144.907 21.1517 144.907 14.827C144.907 8.89596 145.913 2.60376 151.922 2.60376C158.17 2.60376 158.322 8.36858 158.352 9.58832H155.542Z" fill="white"/>
<path d="M160.052 3.06494H171.298V5.6343H162.734V13.015H170.81V15.5844H162.734V24.0186H171.663V26.588H160.052V3.06494Z" fill="white"/>
<path d="M6.04507 8.9999C-2.00853 -2.99997 4.2499 -2.99997 8.13381 8.9999C4.2499 -2.99997 17.2266 27.0478 12.4568 19.0149C17.2201 27.0478 17.3292 27.0478 12.4932 19.0149C17.3292 27.0478 17.3292 -2.99997 12.4932 8.9999C17.3292 -2.99997 22.1666 -2.99997 14.1052 8.9999C22.1666 -2.99997 22.1666 32.997 14.1052 20.9985C22.1666 32.997 15.5158 32.997 11.8891 20.9985C15.5158 32.997 2.92625 3.85209 7.69476 11.2848C2.93145 3.85729 2.82103 3.85729 7.65709 11.2848C2.82103 3.85729 2.82103 32.997 7.65709 20.9985C2.82103 32.997 -2.01502 32.997 6.04507 20.9985C-2.01502 32.997 -2.01502 -2.99997 6.04507 8.9999Z" fill="white"/>
<path d="M25.8751 8.9999C18.8957 -2.99997 39.1752 -2.99997 32.6297 8.9999C39.17 -2.99997 39.17 0.933311 32.6297 10.3106C39.17 0.933311 23.7266 0.933311 27.4819 10.3106C23.7266 0.933311 23.7266 12.2265 27.4819 14.0776C23.7266 12.2291 38.2906 12.2291 32.3374 14.0776C38.2906 12.2291 38.2906 16.1559 32.3374 15.3882C38.2906 16.1611 23.7266 16.1611 27.4819 15.3882C23.7266 16.1611 23.7266 29.0677 27.4819 19.6904C23.7266 29.0677 39.8221 29.0677 32.8492 19.6904C39.8286 29.0677 39.8286 32.9996 32.8492 21.0011C39.8286 32.9996 18.8905 32.9996 25.8699 21.0011C18.8957 32.997 18.8957 -2.99997 25.8751 8.9999Z" fill="white"/>
<path d="M43.984 8.9999C31.0501 -2.99997 35.8862 -2.99997 45.596 8.9999C35.8862 -2.99997 41.877 26.4437 47.5925 18.8136C41.877 26.4437 41.9861 26.4437 47.6289 18.8136C41.9861 26.4437 47.5366 -2.99997 49.4786 8.9999C47.5366 -2.99997 53.3625 -2.99997 51.427 8.9999C53.369 -2.99997 58.9195 26.4437 53.2781 18.8136C58.9195 26.4437 59.0299 26.4437 53.3144 18.8136C59.0299 26.4437 65.0194 -2.99997 55.311 8.9999C65.0194 -2.99997 69.8594 -2.99997 56.923 8.9999C69.8555 -2.99997 61.7772 32.997 54.2302 20.9985C61.7772 32.997 55.8968 32.997 52.2701 20.9985C55.8968 32.997 50.5113 3.85209 50.4749 11.2848C50.5113 3.85729 50.4009 3.85729 50.4385 11.2848C50.4009 3.85729 44.7413 32.997 48.5511 20.9985C44.7413 32.997 38.8608 32.997 46.591 20.9985C38.8543 32.997 31.054 -2.99997 43.984 8.9999Z" fill="white"/>
</svg>
