<svg width="137" height="30" viewBox="0 0 137 30" fill="none" xmlns="http://www.w3.org/2000/svg">
<path d="M71.18 0.368164C68.712 4.74939 67.8275 10.0528 67.8275 15.1602C67.8275 20.4974 68.9251 25.241 71.18 29.9522H69.7174C66.852 25.7021 65.2673 20.3649 65.2673 15.1602C65.2673 9.92165 66.826 4.65067 69.7174 0.368164H71.18Z" fill="white"/>
<path d="M71.5449 3.06616H77.0913C78.9812 3.06616 83.8274 3.06616 83.8274 9.8205C83.8274 14.2017 81.2361 16.6398 77.5485 16.6398H74.2272V26.5881H71.5449V3.06616ZM74.2272 14.2667H77.4238C79.3722 14.2667 81.0192 12.8171 81.0192 9.68671C81.0231 7.12266 79.8917 5.43408 77.2445 5.43408H74.2272V14.2667Z" fill="white"/>
<path d="M84.6794 3.06616H87.3617V24.0189H96.1943V26.5881H84.6794V3.06616Z" fill="white"/>
<path d="M100.954 3.06616H104.549L110.394 26.5881H107.596L106.038 20.1312H99.0949L97.4791 26.5881H94.676L100.954 3.06616ZM99.6431 17.7594H105.495L102.721 6.39397H102.66L99.6431 17.7594Z" fill="white"/>
<path d="M123.718 18.5166C123.474 22.9654 121.859 27.0505 117.105 27.0505C110.919 27.0505 110.091 20.7573 110.091 14.8277C110.091 8.8982 111.097 2.60498 117.105 2.60498C121.554 2.60498 123.413 5.30671 123.535 9.91915H120.732C120.671 7.24988 119.879 4.98329 117.105 4.98329C113.387 4.98329 112.9 9.39958 112.9 14.8342C112.9 20.2689 113.387 24.6839 117.105 24.6839C120.366 24.6839 120.823 21.3898 120.915 18.5231L123.718 18.5166Z" fill="white"/>
<path d="M124.694 3.06616H135.939V5.63541H127.376V13.0158H135.451V15.5851H127.376V24.0189H136.305V26.5881H124.694V3.06616Z" fill="white"/>
<path d="M6.0448 9.00072C-2.00844 -2.99861 4.24971 -2.99861 8.13345 9.00072C4.24971 -2.99861 17.2258 27.0556 12.4562 19.0166C17.2193 27.0491 17.3284 27.0491 12.4926 19.0166C17.3284 27.0491 17.3284 -2.99861 12.4926 9.00072C17.3284 -2.99861 22.1656 -2.99861 14.1045 9.00072C22.1656 -2.99861 22.1656 32.9968 14.1045 20.9988C22.1656 32.9968 15.5152 32.9968 11.8886 20.9988C15.5152 32.9968 2.92612 3.85314 7.69442 11.2855C2.93132 3.85834 2.82091 3.85834 7.65675 11.2855C2.82091 3.85834 2.82091 32.9968 7.65675 20.9988C2.82091 32.9968 -2.01494 32.9968 6.0448 20.9988C-2.01494 32.9968 -2.01494 -2.99861 6.0448 9.00072Z" fill="white"/>
<path d="M25.8739 9.00072C18.8948 -2.99861 39.1734 -2.99861 32.6282 9.00072C39.1682 -2.99861 39.1682 0.934488 32.6282 10.3113C39.1682 0.934488 23.7255 0.934488 27.4806 10.3113C23.7255 0.934488 23.7255 12.2272 27.4806 14.0782C23.7255 12.2298 38.2888 12.2298 32.3359 14.0782C38.2888 12.2298 38.2888 16.1564 32.3359 15.3888C38.2888 16.1616 23.7255 16.1616 27.4806 15.3888C23.7255 16.1616 23.7255 29.0676 27.4806 19.6908C23.7255 29.0676 39.8203 29.0676 32.8477 19.6908C39.8267 29.0676 39.8267 32.9994 32.8477 21.0014C39.8267 32.9994 18.8896 32.9994 25.8687 21.0014C18.8948 32.9968 18.8948 -2.99861 25.8739 9.00072Z" fill="white"/>
<path d="M43.9822 9.0008C31.0528 -2.99854 35.8848 -2.99854 45.6006 9.0008C35.8848 -2.99854 41.8754 26.4439 47.5906 18.8128C41.8754 26.4426 41.9845 26.4426 47.6269 18.8128C41.9845 26.4426 47.5347 -2.99983 49.4766 8.9995C47.5347 -2.99983 53.3603 -2.99983 51.4249 8.9995C53.3603 -2.99854 58.9106 26.4439 53.2642 18.8128C58.9054 26.4426 59.0158 26.4426 53.3006 18.8128C59.0158 26.4426 65.0051 -2.99983 55.297 8.9995C65.0051 -2.99983 69.8448 -2.99983 56.9089 8.9995C69.8409 -2.99983 61.763 32.9956 54.2163 20.9975C61.763 32.9956 55.8828 32.9956 52.2562 20.9975C55.8828 32.9956 50.4975 3.85192 50.4612 11.2843C50.4975 3.85712 50.3871 3.85712 50.4248 11.2843C50.3871 3.85712 44.7278 32.9956 48.5375 20.9975C44.7278 32.9956 38.8476 32.9956 46.5774 20.9975C38.8528 32.9969 31.0528 -2.99854 43.9822 9.0008Z" fill="white"/>
</svg>
