<svg width="140" height="30" viewBox="0 0 140 30" fill="none" xmlns="http://www.w3.org/2000/svg">
<path d="M71.1832 0.37085C68.7151 4.75357 67.8305 10.0573 67.8305 15.1635C67.8305 20.501 68.9282 25.2448 71.1832 29.9562H69.7205C66.855 25.7072 65.2703 20.3646 65.2703 15.1687C65.2703 9.93126 66.829 4.65875 69.7205 0.376047L71.1832 0.37085Z" fill="white"/>
<path d="M80.7826 9.15971C80.7826 6.69167 79.9604 4.97573 77.4053 4.97573C75.1503 4.97573 73.8085 6.29289 73.8085 8.7973C73.8085 15.422 84.0794 11.4654 84.0794 20.0646C84.0794 25.5007 80.3916 27.0491 77.3144 27.0491C72.225 27.0491 70.7312 24.2161 70.7312 19.2085H73.4136C73.4136 21.8441 73.5656 24.6772 77.4962 24.6772C79.6304 24.6772 81.2762 23.0301 81.2762 20.5205C81.2762 13.8659 71.0053 17.7199 71.0053 9.08957C71.0053 6.91509 71.8587 2.59473 77.3702 2.59473C81.5139 2.59473 83.4039 4.83415 83.465 9.15062L80.7826 9.15971Z" fill="white"/>
<path d="M91.877 26.588H89.1947V5.6343H83.739V3.06494H97.3626V5.6343H91.877V26.588Z" fill="white"/>
<path d="M111.564 14.8258C111.564 20.7568 110.559 27.049 104.55 27.049C98.5408 27.049 97.5354 20.7568 97.5354 14.8258C97.5354 8.89466 98.5408 2.60376 104.55 2.60376C110.559 2.60376 111.564 8.89596 111.564 14.8258ZM100.349 14.8258C100.349 20.2619 100.836 24.6771 104.555 24.6771C108.274 24.6771 108.761 20.2606 108.761 14.8258C108.761 9.39087 108.273 4.97568 104.555 4.97568C100.837 4.97568 100.349 9.39087 100.349 14.8258V14.8258Z" fill="white"/>
<path d="M113.271 3.06494H120.311C123.725 3.06494 125.888 5.23941 125.888 8.96226C125.888 11.5316 125.066 14.2335 122.537 14.892V14.9583C124.425 15.1882 125.492 16.8691 125.614 18.8786L125.797 22.9054C125.919 25.5033 126.317 26.1658 126.956 26.5945H123.725C123.268 26.1008 123.054 24.3537 122.992 23.2015L122.811 19.5437C122.596 16.3157 120.95 16.1183 119.58 16.1183H115.953V26.5945H113.271V3.06494ZM115.953 13.7399H118.605C120.189 13.7399 123.085 13.7399 123.085 9.19347C123.085 6.8878 121.656 5.43816 119.153 5.43816H115.953V13.7399Z" fill="white"/>
<path d="M127.567 3.06494H138.813V5.6343H130.248V13.015H138.325V15.5844H130.248V24.0186H139.179V26.588H127.567V3.06494Z" fill="white"/>
<path d="M6.04507 8.9999C-2.00853 -2.99997 4.2499 -2.99997 8.13381 8.9999C4.2499 -2.99997 17.2266 27.0478 12.4568 19.0149C17.2201 27.0478 17.3292 27.0478 12.4932 19.0149C17.3292 27.0478 17.3292 -2.99997 12.4932 8.9999C17.3292 -2.99997 22.1666 -2.99997 14.1052 8.9999C22.1666 -2.99997 22.1666 32.997 14.1052 20.9985C22.1666 32.997 15.5158 32.997 11.8891 20.9985C15.5158 32.997 2.92625 3.85209 7.69476 11.2848C2.93145 3.85729 2.82103 3.85729 7.65709 11.2848C2.82103 3.85729 2.82103 32.997 7.65709 20.9985C2.82103 32.997 -2.01502 32.997 6.04507 20.9985C-2.01502 32.997 -2.01502 -2.99997 6.04507 8.9999Z" fill="white"/>
<path d="M25.8751 8.9999C18.8957 -2.99997 39.1752 -2.99997 32.6297 8.9999C39.17 -2.99997 39.17 0.933309 32.6297 10.3106C39.17 0.933309 23.7266 0.933309 27.4819 10.3106C23.7266 0.933309 23.7266 12.2252 27.4819 14.0776C23.7266 12.2278 38.2906 12.2278 32.3374 14.0776C38.2906 12.2278 38.2906 16.1559 32.3374 15.3882C38.2906 16.1676 23.7266 16.1676 27.4819 15.3882C23.7266 16.1676 23.7266 29.0677 27.4819 19.6904C23.7266 29.0677 39.8221 29.0677 32.8492 19.6904C39.8286 29.0677 39.8286 32.9996 32.8492 21.0011C39.8286 32.9996 18.8905 32.9996 25.8699 21.0011C18.8957 32.997 18.8957 -2.99997 25.8751 8.9999Z" fill="white"/>
<path d="M43.984 8.9999C31.0501 -2.99997 35.8862 -2.99997 45.596 8.9999C35.8862 -2.99997 41.877 26.4437 47.5925 18.8136C41.877 26.4437 41.9861 26.4437 47.6289 18.8136C41.9861 26.4437 47.5366 -2.99997 49.4786 8.9999C47.5366 -2.99997 53.3625 -2.99997 51.427 8.9999C53.3625 -2.99997 58.913 26.4437 53.2664 18.8136C58.9078 26.4437 59.0182 26.4437 53.3028 18.8136C59.0182 26.4437 65.0078 -2.99997 55.2993 8.9999C65.0078 -2.99997 69.8477 -2.99997 56.9113 8.9999C69.8438 -2.99997 61.7655 32.997 54.2185 20.9985C61.7655 32.997 55.8851 32.997 52.2584 20.9985C55.8851 32.997 50.4996 3.85209 50.4632 11.2848C50.4996 3.85729 50.3892 3.85729 50.4268 11.2848C50.3892 3.85729 44.7296 32.997 48.5394 20.9985C44.7296 32.997 38.8491 32.997 46.5793 20.9985C38.8543 32.997 31.054 -2.99997 43.984 8.9999Z" fill="white"/>
</svg>
