<svg width="150" height="30" viewBox="0 0 150 30" fill="none" xmlns="http://www.w3.org/2000/svg">
<path d="M71.1824 0.371094C68.7144 4.75247 67.8298 10.0574 67.8298 15.1636C67.8298 20.501 68.9274 25.2448 71.1824 29.9561H69.7197C66.8543 25.7059 65.2695 20.3685 65.2695 15.1636C65.2695 9.9249 66.8283 4.65375 69.7197 0.371094H71.1824Z" fill="white"/>
<path d="M71.5474 3.06787H74.2297L77.5563 22.3054H77.6174L80.6907 3.06787H83.9212L86.9997 22.308H87.0608L90.3822 3.06787H93.0645L88.5845 26.588H85.3228L82.3352 7.54536H82.2741L79.1346 26.588H75.8742L71.5474 3.06787Z" fill="white"/>
<path d="M107.266 14.8259C107.266 20.757 106.259 27.0491 100.252 27.0491C94.244 27.0491 93.2373 20.757 93.2373 14.8259C93.2373 8.89491 94.2427 2.60278 100.252 2.60278C106.261 2.60278 107.266 8.89621 107.266 14.8259ZM96.0508 14.8259C96.0508 20.2621 96.538 24.6772 100.256 24.6772C103.973 24.6772 104.462 20.2608 104.462 14.8259C104.462 9.39111 103.974 4.97596 100.256 4.97596C96.5367 4.97596 96.0508 9.38982 96.0508 14.8259Z" fill="white"/>
<path d="M108.973 3.06787H116.012C119.426 3.06787 121.59 5.24232 121.59 8.96513C121.59 11.5345 120.766 14.2363 118.237 14.8949V14.9611C120.127 15.191 121.193 16.8719 121.316 18.8813L121.499 22.9003C121.62 25.4982 122.018 26.162 122.656 26.5906H119.426C118.968 26.0957 118.755 24.3499 118.694 23.1965L118.511 19.5399C118.298 16.312 116.652 16.1133 115.281 16.1133H111.654V26.5906H108.973V3.06787ZM111.654 13.7414H114.306C115.891 13.7414 118.785 13.7414 118.785 9.19504C118.785 6.8894 117.356 5.43976 114.855 5.43976H111.654V13.7414Z" fill="white"/>
<path d="M123.265 3.06787H125.947V14.4662H126.009L133.542 3.06787H136.53L129.948 12.8854L137.08 26.5906H134.092L128.21 15.2573L125.955 18.5852V26.5906H123.265V3.06787Z" fill="white"/>
<path d="M146.214 9.15989C146.214 6.69188 145.392 4.97595 142.837 4.97595C140.582 4.97595 139.241 6.29309 139.241 8.79748C139.241 15.4221 149.511 11.4655 149.511 20.0646C149.511 25.5007 145.823 27.0491 142.746 27.0491C137.656 27.0491 136.163 24.2161 136.163 19.2086H138.845C138.845 21.8442 138.997 24.6772 142.928 24.6772C145.062 24.6772 146.707 23.0301 146.707 20.5205C146.707 13.866 136.437 17.72 136.437 9.08974C136.437 6.91529 137.29 2.59497 142.802 2.59497C146.945 2.59497 148.835 4.83566 148.896 9.15209L146.214 9.15989Z" fill="white"/>
<path d="M6.04501 8.99883C-2.00851 -2.99961 4.24985 -2.99961 8.13373 8.99883C4.24985 -2.99961 17.2264 27.0478 12.4566 19.0151C17.2199 27.0478 17.329 27.0478 12.493 19.0151C17.329 27.0478 17.329 -2.99961 12.493 8.99883C17.329 -2.99961 22.1663 -2.99961 14.105 8.99883C22.1663 -2.99961 22.1663 32.997 14.105 20.9986C22.1663 32.997 15.5157 32.997 11.889 20.9986C15.5157 32.997 2.92622 3.85237 7.69468 11.285C2.93141 3.85627 2.821 3.85627 7.65701 11.285C2.821 3.85627 2.821 32.997 7.65701 20.9986C2.821 32.997 -2.015 32.997 6.04501 20.9986C-2.015 32.997 -2.015 -2.99961 6.04501 8.99883Z" fill="white"/>
<path d="M25.8748 8.99883C18.8955 -2.99961 39.1748 -2.99961 32.6293 8.99883C39.1696 -2.99961 39.1696 0.93232 32.6293 10.3095C39.1696 0.93232 23.7263 0.93232 27.4816 10.3095C23.7263 0.93232 23.7263 12.2254 27.4816 14.0764C23.7263 12.228 38.2902 12.228 32.3371 14.0764C38.2902 12.228 38.2902 16.1548 32.3371 15.3884C38.2902 16.1678 23.7263 16.1678 27.4816 15.3884C23.7263 16.1678 23.7263 29.0677 27.4816 19.6905C23.7263 29.0677 39.8216 29.0677 32.8488 19.6905C39.8281 29.0677 39.8281 32.9996 32.8488 21.0012C39.8281 32.9996 18.8903 32.9996 25.8696 21.0012C18.8955 32.997 18.8955 -2.99961 25.8748 8.99883Z" fill="white"/>
<path d="M43.9836 8.99883C31.0499 -2.99961 35.8859 -2.99961 45.5956 8.99883C35.8859 -2.99961 41.8767 26.4425 47.5921 18.8137C41.8767 26.4425 41.9858 26.4425 47.6285 18.8137C41.9858 26.4425 47.5363 -2.99961 49.4782 8.99883C47.5363 -2.99961 53.3621 -2.99961 51.4266 8.99883C53.3686 -2.99961 58.919 26.4425 53.2776 18.8137C58.919 26.4425 59.0294 26.4425 53.314 18.8137C59.0294 26.4425 65.0189 -2.99961 55.3105 8.99883C65.0189 -2.99961 69.8588 -2.99961 56.9225 8.99883C69.8549 -2.99961 61.7767 32.997 54.2298 20.9986C61.7767 32.997 55.8963 32.997 52.2697 20.9986C55.8963 32.997 50.5109 3.85237 50.4745 11.285C50.5109 3.85627 50.4005 3.85627 50.4381 11.285C50.4005 3.85627 44.7409 32.997 48.5507 20.9986C44.7409 32.997 38.8605 32.997 46.5906 20.9986C38.8541 32.997 31.0538 -2.99961 43.9836 8.99883Z" fill="white"/>
</svg>
