<svg width="854" height="269" viewBox="0 0 854 269" fill="none" xmlns="http://www.w3.org/2000/svg">
<path d="M391.756 65.5105L410.941 60.8438L439.415 54.2859L467.811 48.1551L496.056 42.4819L524.148 37.2356L552.026 32.4316L579.63 28.0546L606.944 24.1199L633.892 20.597L660.475 17.5163L686.599 14.8627L712.251 12.6209L737.384 10.8212L761.953 9.43341L785.897 8.45738L809.2 7.90833L827.959 7.75586L846.229 7.89311" stroke="#070001" stroke-miterlimit="10"/>
<path d="M384.48 67.4019V176.536" stroke="#070001" stroke-miterlimit="10"/>
<path d="M853 261.193V207.693" stroke="#070001" stroke-miterlimit="10"/>
<path d="M415.014 204.781V207.693" stroke="#070001" stroke-miterlimit="10"/>
<path d="M853 123.509V207.694" stroke="#070001" stroke-miterlimit="10"/>
<path d="M402.797 207.693V176.536" stroke="#070001" stroke-miterlimit="10"/>
<path d="M233.971 261.193H54.5605" stroke="#070001" stroke-miterlimit="10"/>
<path d="M11.4014 208.807L34.0488 196.667L57.1689 184.893L80.7314 173.532L104.69 162.551L131.211 151.037L158.114 139.98L185.382 129.381L212.956 119.239L240.788 109.555L268.85 100.313L297.094 91.5282L325.461 83.186L353.919 75.2861L382.437 67.8438" stroke="#070001" stroke-miterlimit="10"/>
<path d="M382.436 67.8441L384.189 67.4019" stroke="#070001" stroke-miterlimit="10"/>
<path d="M54.5611 261.194L11.4014 208.807" stroke="#070001" stroke-miterlimit="10"/>
<path d="M846.227 7.89331V117.623V207.694H782.769" stroke="#070001" stroke-miterlimit="10"/>
<path d="M853 117.623V1.24402L846.335 1.1373L827.958 1L809.093 1.15252L785.683 1.70157L761.617 2.67759L736.957 4.06542L711.717 5.89553L685.958 8.1374L659.742 10.791L633.068 13.8869L606.014 17.4098L578.623 21.3751L550.912 25.752L522.958 30.5865L494.774 35.848L466.423 41.5366L437.95 47.6826L409.385 54.2557L380.775 61.2863L352.164 68.7592L323.6 76.6744L295.126 85.047L266.79 93.8773L238.622 103.15L210.668 112.88L182.987 123.067L155.612 133.712L128.573 144.815L101.945 156.375L77.8487 167.416L54.1642 178.839L30.922 190.674L8.13736 202.89L1 206.809L51.3733 267.965H233.971H521.6H853" stroke="#070001" stroke-miterlimit="10"/>
<path d="M402.797 207.693H396.696" stroke="#070001" stroke-miterlimit="10"/>
<path d="M396.696 207.693V176.536" stroke="#070001" stroke-miterlimit="10"/>
<path d="M408.912 207.693H402.797" stroke="#070001" stroke-miterlimit="10"/>
<path d="M853 267.964V261.193" stroke="#070001" stroke-miterlimit="10"/>
<path d="M387.592 66.5479V172.312H387.897H387.592H427.045V176.536H384.48V207.694H390.596" stroke="#070001" stroke-miterlimit="10"/>
<path d="M415.014 207.693H710.864V204.781H415.014" stroke="#070001" stroke-miterlimit="10"/>
<path d="M782.769 207.693V261.193H521.6" stroke="#070001" stroke-miterlimit="10"/>
<path d="M384.481 261.193H233.971" stroke="#070001" stroke-miterlimit="10"/>
<path d="M415.013 207.693H408.913" stroke="#070001" stroke-miterlimit="10"/>
<path d="M415.014 176.536V204.781" stroke="#070001" stroke-miterlimit="10"/>
<path d="M408.913 207.693V176.536" stroke="#070001" stroke-miterlimit="10"/>
<path d="M384.48 261.193H521.6" stroke="#070001" stroke-miterlimit="10"/>
<path d="M396.697 207.693H390.597" stroke="#070001" stroke-miterlimit="10"/>
<path d="M390.597 207.693V176.536" stroke="#070001" stroke-miterlimit="10"/>
<path d="M853 123.509V117.623" stroke="#070001" stroke-miterlimit="10"/>
<path d="M391.755 65.5105L384.19 67.4016" stroke="#070001" stroke-miterlimit="10"/>
<path d="M339.568 192.382H213.932V216.905H339.568V192.382Z" stroke="#070001" stroke-miterlimit="10"/>
<path d="M445.331 117.577L420.198 117.333" stroke="#070001" stroke-linecap="round" stroke-linejoin="round"/>
<path d="M445.561 114.801L420.732 110.912" stroke="#070001" stroke-linecap="round" stroke-linejoin="round"/>
<path d="M446.2 112.087L422.195 104.629" stroke="#070001" stroke-linecap="round" stroke-linejoin="round"/>
<path d="M447.223 109.479L424.545 98.6355" stroke="#070001" stroke-linecap="round" stroke-linejoin="round"/>
<path d="M448.61 107.054L427.763 93.0381" stroke="#070001" stroke-linecap="round" stroke-linejoin="round"/>
<path d="M454.635 101.335L441.702 79.8005" stroke="#070001" stroke-linecap="round" stroke-linejoin="round"/>
<path d="M452.362 102.951L436.425 83.522" stroke="#070001" stroke-linecap="round" stroke-linejoin="round"/>
<path d="M450.333 104.873L431.742 87.96" stroke="#070001" stroke-linecap="round" stroke-linejoin="round"/>
<path d="M465.324 98.6199L466.392 73.5171" stroke="#070001" stroke-linecap="round" stroke-linejoin="round"/>
<path d="M462.533 98.6964L459.94 73.7156" stroke="#070001" stroke-linecap="round" stroke-linejoin="round"/>
<path d="M459.774 99.1995L453.582 74.844" stroke="#070001" stroke-linecap="round" stroke-linejoin="round"/>
<path d="M457.135 100.084L447.466 76.8879" stroke="#070001" stroke-linecap="round" stroke-linejoin="round"/>
<path d="M468.085 98.94L472.797 74.249" stroke="#070001" stroke-linecap="round" stroke-linejoin="round"/>
<path d="M470.785 99.657L479.036 75.9116" stroke="#070001" stroke-linecap="round" stroke-linejoin="round"/>
<path d="M473.349 100.755L484.954 78.4587" stroke="#070001" stroke-linecap="round" stroke-linejoin="round"/>
<path d="M475.725 102.22L490.457 81.8445" stroke="#070001" stroke-linecap="round" stroke-linejoin="round"/>
<path d="M479.723 106.093L499.686 90.7964" stroke="#070001" stroke-linecap="round" stroke-linejoin="round"/>
<path d="M477.86 104.019L495.399 85.9927" stroke="#070001" stroke-linecap="round" stroke-linejoin="round"/>
<path d="M483.229 113.627L507.783 108.213" stroke="#070001" stroke-linecap="round" stroke-linejoin="round"/>
<path d="M482.436 110.958L505.937 102.036" stroke="#070001" stroke-linecap="round" stroke-linejoin="round"/>
<path d="M481.262 108.426L503.223 96.1953" stroke="#070001" stroke-linecap="round" stroke-linejoin="round"/>
<path d="M483.626 119.178L508.698 121.039" stroke="#070001" stroke-linecap="round" stroke-linejoin="round"/>
<path d="M483.626 116.387L508.713 114.603" stroke="#070001" stroke-linecap="round" stroke-linejoin="round"/>
<path d="M483.213 121.938L507.736 127.429" stroke="#070001" stroke-linecap="round" stroke-linejoin="round"/>
<path d="M482.498 124.348L506.106 132.965C508.42 126.661 509.269 119.914 508.587 113.234C507.905 106.554 505.711 100.117 502.172 94.4108C498.615 88.7027 493.807 83.8785 488.11 80.3036C482.413 76.7286 475.978 74.4966 469.291 73.7765C462.603 73.0633 455.839 73.8787 449.512 76.1614C443.184 78.444 437.458 82.1341 432.765 86.9532C428.065 91.7701 424.524 97.5942 422.41 103.984C420.296 110.373 419.665 117.16 420.565 123.83L445.469 120.413C445.078 117.529 445.348 114.594 446.259 111.829C447.17 109.065 448.697 106.544 450.727 104.457C452.756 102.37 455.234 100.773 457.972 99.7853C460.71 98.7978 463.637 98.4462 466.531 98.7572C469.421 99.066 472.203 100.028 474.666 101.572C477.129 103.115 479.208 105.198 480.747 107.664C482.285 110.13 483.243 112.913 483.546 115.804C483.85 118.695 483.491 121.616 482.498 124.348V124.348Z" stroke="#070001" stroke-linecap="round" stroke-linejoin="round"/>
<path d="M591.676 157.735V138.589H610.822V157.735H591.676Z" stroke="black"/>
<path d="M591.676 116.269V97.1223H610.822V116.269H591.676Z" stroke="black"/>
<path d="M675.491 157.735V138.589H694.638V157.735H675.491Z" stroke="black"/>
<path d="M675.491 116.269V97.1223H694.638V116.269H675.491Z" stroke="black"/>
<path d="M756.368 157.735V138.589H775.514V157.735H756.368Z" stroke="black"/>
<path d="M756.368 116.269V97.1223H775.514V116.269H756.368Z" stroke="black"/>
</svg>
