<svg width="774" height="560" viewBox="0 0 774 560" fill="none" xmlns="http://www.w3.org/2000/svg">
<path d="M1 558.9H754.905V555.949V440.896H773V10.112V1H372.869V10.112V422.263H1V431.634H382.476V23.9847V11.146H763.931V23.9847V431.634H745.233V543.821V549.163H1V558.9Z" stroke="#070001" stroke-miterlimit="10"/>
<path d="M512.16 138.106V102.206H548.061V138.106H512.16Z" stroke="black"/>
<path d="M613.404 138.106V102.206H649.305V138.106H613.404Z" stroke="black"/>
<path d="M512.16 277.156V241.256H548.061V277.156H512.16Z" stroke="black"/>
<path d="M613.404 277.156V241.256H649.305V277.156H613.404Z" stroke="black"/>
<path d="M512.16 418.877V382.976H548.061V418.877H512.16Z" stroke="black"/>
<path d="M613.404 418.877V382.976H649.305V418.877H613.404Z" stroke="black"/>
<path d="M12.77 460C11.2197 461.549 9.98997 463.389 9.15093 465.413C8.31189 467.438 7.88004 469.608 7.88004 471.8C7.88004 473.992 8.31189 476.162 9.15093 478.187C9.98997 480.211 11.2197 482.051 12.77 483.6L1 471.83L12.77 460Z" fill="black"/>
<path d="M1.00004 527.6C2.55028 526.051 3.78005 524.211 4.61909 522.187C5.45813 520.162 5.88998 517.992 5.88998 515.8C5.88998 513.608 5.45813 511.438 4.61909 509.413C3.78005 507.389 2.55028 505.549 1.00004 504L12.77 515.77L1.00004 527.6Z" fill="black"/>
</svg>
