<svg width="636" height="624" viewBox="0 0 636 624" fill="none" xmlns="http://www.w3.org/2000/svg">
<path d="M54.8774 12.77C53.3281 11.2197 51.4886 9.98997 49.4639 9.15093C47.4392 8.31189 45.2691 7.88004 43.0774 7.88004C40.8857 7.88004 38.7155 8.31189 36.6908 9.15093C34.6661 9.98997 32.8266 11.2197 31.2773 12.77L43.0473 1L54.8774 12.77Z" fill="black"/>
<path d="M466.404 386.358V374.084H513.747V386.358H466.404Z" stroke="black"/>
<path d="M245.742 537.984V525.71H293.085V537.984H245.742Z" stroke="black"/>
<path d="M415.635 537.984V525.71H462.978V537.984H415.635Z" stroke="black"/>
<path d="M500.611 537.963V525.689H547.954V537.963H500.611Z" stroke="black"/>
<path d="M330.678 537.984V525.71H378.021V537.984H330.678Z" stroke="black"/>
<path d="M228.379 562.044V551.417" stroke="#070001" stroke-miterlimit="10"/>
<path d="M228.72 551.417H228.379" stroke="#070001" stroke-miterlimit="10"/>
<path d="M228.379 572.67V562.043" stroke="#070001" stroke-miterlimit="10"/>
<path d="M228.379 572.671H228.72" stroke="#070001" stroke-miterlimit="10"/>
<path d="M625.972 273.429V321.251" stroke="#070001" stroke-miterlimit="10"/>
<path d="M449.442 538.484H396.307" stroke="#070001" stroke-miterlimit="10"/>
<path d="M177.209 518.212H228.359V551.437" stroke="#070001" stroke-miterlimit="10"/>
<path d="M396.306 538.484H343.191" stroke="#070001" stroke-miterlimit="10"/>
<path d="M332.705 51.0623H297.676V68.8476H332.705V51.0623Z" stroke="#070001" stroke-miterlimit="10"/>
<path d="M555.189 521.823V509.549H625.752V521.823H578.731H555.189Z" stroke="black"/>
<path d="M10.8852 509.951H64.0004V518.212H10.8852V614.056H124.294V623.359H10.8852H1V1.35547H18.665L18.6449 11.4412H10.8852V14.8899V509.951Z" stroke="#070001" stroke-miterlimit="10"/>
<path d="M177.208 518.212H124.093V509.951H177.208H230.323H236.96V538.504H290.075H343.191" stroke="#070001" stroke-miterlimit="10"/>
<path d="M520.021 117.853H573.137" stroke="#070001" stroke-miterlimit="10"/>
<path d="M520.022 117.853H513.385V64.7373" stroke="#070001" stroke-miterlimit="10"/>
<path d="M502.557 538.484H449.441" stroke="#070001" stroke-miterlimit="10"/>
<path d="M502.557 538.504H555.632V522.323" stroke="#070001" stroke-miterlimit="10"/>
<mask id="path-23-inside-1_398_1076" fill="white">
<path d="M626.453 363.778H613.179V411.5H626.453"/>
</mask>
<path d="M613.179 363.778V362.778H612.179V363.778H613.179ZM613.179 411.5H612.179V412.5H613.179V411.5ZM626.453 362.778H613.179V364.778H626.453V362.778ZM612.179 363.778V411.5H614.179V363.778H612.179ZM613.179 412.5H626.453V410.5H613.179V412.5Z" fill="black" mask="url(#path-23-inside-1_398_1076)"/>
<mask id="path-25-inside-2_398_1076" fill="white">
<path d="M626.453 273.489H613.179V321.191H626.453"/>
</mask>
<path d="M613.179 273.489V272.489H612.179V273.489H613.179ZM613.179 321.191H612.179V322.191H613.179V321.191ZM626.453 272.489H613.179V274.489H626.453V272.489ZM612.179 273.489V321.191H614.179V273.489H612.179ZM613.179 322.191H626.453V320.191H613.179V322.191Z" fill="black" mask="url(#path-25-inside-2_398_1076)"/>
<mask id="path-27-inside-3_398_1076" fill="white">
<path d="M533.355 117.853V131.146H581.057V117.853"/>
</mask>
<path d="M533.355 131.146H532.355V132.146H533.355V131.146ZM581.057 131.146V132.146H582.057V131.146H581.057ZM532.355 117.853V131.146H534.355V117.853H532.355ZM533.355 132.146H581.057V130.146H533.355V132.146ZM582.057 131.146V117.853H580.057V131.146H582.057Z" fill="black" mask="url(#path-27-inside-3_398_1076)"/>
<mask id="path-29-inside-4_398_1076" fill="white">
<path d="M626.453 183.179H613.179V230.9H626.453"/>
</mask>
<path d="M613.179 183.179V182.179H612.179V183.179H613.179ZM613.179 230.9H612.179V231.9H613.179V230.9ZM626.453 182.179H613.179V184.179H626.453V182.179ZM612.179 183.179V230.9H614.179V183.179H612.179ZM613.179 231.9H626.453V229.9H613.179V231.9Z" fill="black" mask="url(#path-29-inside-4_398_1076)"/>
<mask id="path-31-inside-5_398_1076" fill="white">
<path d="M513.384 38.0291H500.09V85.7305H513.384"/>
</mask>
<path d="M500.09 38.0291V37.0291H499.09V38.0291H500.09ZM500.09 85.7305H499.09V86.7305H500.09V85.7305ZM513.384 37.0291H500.09V39.0291H513.384V37.0291ZM499.09 38.0291V85.7305H501.09V38.0291H499.09ZM500.09 86.7305H513.384V84.7305H500.09V86.7305Z" fill="black" mask="url(#path-31-inside-5_398_1076)"/>
<path d="M466.404 242.932V230.658H513.747V242.932H466.404Z" stroke="black"/>
<path d="M171.051 230.298H183.325V277.641H171.051V230.298Z" stroke="black"/>
<mask id="path-35-inside-6_398_1076" fill="white">
<path d="M356.866 128.099V176.442H343.572V128.46V128.319H317.024V115.045H356.866V128.319"/>
</mask>
<path d="M356.866 176.442V177.442H357.866V176.442H356.866ZM343.572 176.442H342.572V177.442H343.572V176.442ZM343.572 128.319H344.572V127.319H343.572V128.319ZM317.024 128.319H316.024V129.319H317.024V128.319ZM317.024 115.045V114.045H316.024V115.045H317.024ZM356.866 115.045H357.866V114.045H356.866V115.045ZM355.866 128.099V176.442H357.866V128.099H355.866ZM356.866 175.442H343.572V177.442H356.866V175.442ZM344.572 176.442V128.46H342.572V176.442H344.572ZM344.572 128.46V128.319H342.572V128.46H344.572ZM343.572 127.319H317.024V129.319H343.572V127.319ZM318.024 128.319V115.045H316.024V128.319H318.024ZM317.024 116.045H356.866V114.045H317.024V116.045ZM355.866 115.045V128.319H357.866V115.045H355.866Z" fill="black" mask="url(#path-35-inside-6_398_1076)"/>
<path d="M344.072 217.104H356.346V264.447H344.072V217.104Z" stroke="black"/>
<path d="M344.072 305.168H356.346V352.511H344.072V305.168Z" stroke="black"/>
<path d="M344.092 393.353H356.366V440.696H344.092V393.353Z" stroke="black"/>
<path d="M171.051 318.562H183.325V365.906H171.051V318.562Z" stroke="black"/>
<path d="M171.051 406.807H183.325V454.15H171.051V406.807Z" stroke="black"/>
<path d="M122.167 117.232V104.958H169.51V117.232H122.167Z" stroke="black"/>
<path d="M210.232 117.232V104.958H257.575V117.232H210.232Z" stroke="black"/>
<path d="M34.2036 117.232V104.958H81.5467V117.232H34.2036Z" stroke="black"/>
<mask id="path-45-inside-7_398_1076" fill="white">
<path d="M10.8247 243.512H24.0985V195.811H10.8247"/>
</mask>
<path d="M24.0985 243.512V244.512H25.0985V243.512H24.0985ZM24.0985 195.811H25.0985V194.811H24.0985V195.811ZM10.8247 244.512H24.0985V242.512H10.8247V244.512ZM25.0985 243.512V195.811H23.0985V243.512H25.0985ZM24.0985 194.811H10.8247V196.811H24.0985V194.811Z" fill="black" mask="url(#path-45-inside-7_398_1076)"/>
<mask id="path-47-inside-8_398_1076" fill="white">
<path d="M10.8247 333.822H24.0985V286.101H10.8247"/>
</mask>
<path d="M24.0985 333.822V334.822H25.0985V333.822H24.0985ZM24.0985 286.101H25.0985V285.101H24.0985V286.101ZM10.8247 334.822H24.0985V332.822H10.8247V334.822ZM25.0985 333.822V286.101H23.0985V333.822H25.0985ZM24.0985 285.101H10.8247V287.101H24.0985V285.101Z" fill="black" mask="url(#path-47-inside-8_398_1076)"/>
<mask id="path-49-inside-9_398_1076" fill="white">
<path d="M10.8247 424.112H24.0985V376.411H10.8247"/>
</mask>
<path d="M24.0985 424.112V425.112H25.0985V424.112H24.0985ZM24.0985 376.411H25.0985V375.411H24.0985V376.411ZM10.8247 425.112H24.0985V423.112H10.8247V425.112ZM25.0985 424.112V376.411H23.0985V424.112H25.0985ZM24.0985 375.411H10.8247V377.411H24.0985V375.411Z" fill="black" mask="url(#path-49-inside-9_398_1076)"/>
<path d="M513.385 64.7369V11.6216V11.4412H64.8022V1.35547H523.33V108.709H634.754V623.299H626.252H454.414H408.477H170.231V614.056H228.379V581.974V572.67" stroke="#070001" stroke-miterlimit="10"/>
<path d="M626.252 522.323V117.853H573.137" stroke="#070001" stroke-miterlimit="10"/>
</svg>
