<svg width="399" height="338" viewBox="0 0 399 338" fill="none" xmlns="http://www.w3.org/2000/svg">
<path d="M349.494 199.468C351.198 197.667 352.805 195.987 354.397 194.283C355.12 193.475 355.811 192.781 357.009 192.797C358.062 192.797 358.898 192.91 358.777 194.315C358.705 195.171 359.372 195.341 360.047 195.454C362.539 195.874 365.022 196.342 367.522 196.714C368.712 196.891 369.339 197.376 369.13 198.66C369.073 199.105 369.073 199.556 369.13 200.001C369.266 201.236 368.623 201.616 367.522 201.818C365.111 202.173 362.7 202.626 360.345 203.029C359.621 203.15 358.817 203.11 358.737 204.192C358.681 205.153 359.075 205.501 360.007 205.606C360.939 205.711 360.73 206.551 360.73 207.164C360.73 210.451 360.803 213.739 360.73 217.026C360.73 218.407 361.189 218.883 362.531 218.827C364.516 218.746 366.501 218.827 368.487 218.827C369.556 218.827 370.006 219.214 369.99 220.313C369.99 223.099 369.99 225.893 369.99 228.68C369.99 229.81 369.612 230.295 368.43 230.295C366.405 230.23 364.363 230.295 362.338 230.295C361.213 230.295 360.73 230.594 360.73 231.813C360.789 235.248 360.789 238.683 360.73 242.119C360.73 243.411 361.261 243.734 362.426 243.734C364.162 243.677 365.899 243.734 367.627 243.734C368.985 243.677 369.435 244.186 369.427 245.559C369.427 255.469 369.427 265.378 369.427 275.296V279.181C369.427 282.468 369.427 282.468 372.329 281.046C373.708 280.275 375.321 280.041 376.861 280.388C378.401 280.735 379.76 281.639 380.68 282.928C380.865 283.162 381.049 283.396 381.226 283.639C384.546 288.355 384.329 295.947 380.744 300.461C378.517 303.272 375.495 303.942 372.272 302.367C371.34 301.907 370.391 301.479 369.451 301.027C368.848 300.736 368.479 300.833 368.511 301.576C368.541 301.748 368.534 301.924 368.491 302.093C368.448 302.262 368.37 302.419 368.263 302.556C368.155 302.693 368.02 302.805 367.866 302.885C367.712 302.965 367.543 303.012 367.369 303.022C366.638 303.159 366.799 303.829 366.799 304.378C366.799 306.672 366.751 308.966 366.799 311.259C366.799 312.358 366.389 312.802 365.32 312.77C364.251 312.737 363.045 312.77 361.904 312.77C361.205 312.77 360.602 312.616 360.618 311.712C360.618 311.001 360.232 310.751 359.565 310.791C359.107 310.791 358.761 311.017 358.761 311.502C358.761 312.132 358.568 312.883 359.444 313.117C360.32 313.351 361.197 313.456 362.073 313.61C363.978 313.949 365.882 314.296 367.787 314.595C368.728 314.74 369.162 315.16 369.138 316.162C369.049 319.732 369.564 319.207 366.196 319.804L359.902 320.903C359.34 321 358.834 321.113 358.745 321.831C358.673 322.381 358.946 323.196 358.118 323.309C357.121 323.439 356.044 323.689 355.184 322.784C354.091 321.629 352.942 320.531 351.873 319.352C351.573 318.992 351.194 318.707 350.766 318.519C350.338 318.332 349.872 318.246 349.405 318.27C345.99 318.326 342.566 318.27 339.142 318.27C338.281 318.27 337.534 318.27 337.534 319.481C337.534 320.693 336.553 320.386 335.862 320.394C329.963 320.394 324.063 320.394 318.18 320.394H273.973C271.988 320.394 271.972 320.394 272.366 322.429C273.169 326.887 273.973 331.313 274.72 335.811C275.098 337.984 275.074 338 272.896 338H169.212H131.138C128.903 338 128.871 338 129.265 335.723C130.599 328.026 131.966 320.329 133.284 312.633C133.605 310.815 133.605 310.726 131.74 310.831C125.608 311.179 119.757 309.442 113.825 308.36C96.2708 305.13 78.7408 301.843 61.2029 298.572C58.9122 298.144 58.9122 298.152 58.9122 295.85C58.9122 292.563 58.8479 289.268 58.9122 285.989C58.9122 284.503 58.4139 284.131 57.0234 284.147C51.6704 284.212 46.3174 284.147 40.9483 284.147C38.095 284.147 38.0547 284.147 36.5919 281.854C35.9489 280.852 35.6917 280.634 35.1211 281.926C34.8558 282.5 34.0842 282.815 33.9958 283.671C33.9476 284.18 33.2966 284.131 32.8625 284.131C24.6321 284.131 16.4016 284.131 8.17118 284.131C7.08611 284.131 6.84497 283.542 6.84497 282.605C6.84497 282.064 7.06199 281.248 6.15375 281.232C5.24551 281.216 4.81148 281.765 4.89989 282.694C5.02046 284.026 4.09612 284.123 3.1718 284.099C2.24748 284.075 1.39553 284.188 0.889163 282.71C-0.782648 277.791 0.495323 272.784 0.0854078 267.85C-0.0431931 266.396 0.993618 265.322 1.30708 263.989C1.55625 262.963 3.05126 263.537 3.99969 263.504C4.80345 263.504 4.94007 264.078 4.94007 264.74C4.91986 264.987 4.91986 265.236 4.94007 265.483C5.07671 266.162 5.64736 266.291 6.17784 266.339C6.70832 266.388 6.89319 265.839 6.83692 265.386C6.61991 263.634 7.53618 263.367 9.0392 263.375C16.7713 263.44 24.5115 263.375 32.2436 263.375C33.1197 263.375 34.044 263.206 34.1967 264.579C34.2691 265.265 35.3462 265.386 35.4587 266.283C35.4587 266.582 36.2142 266.477 36.3267 266.186C36.5598 265.548 37.3394 265.249 37.4278 264.676C37.6288 263.335 38.4969 263.359 39.4855 263.367C45.3851 263.367 51.2846 263.367 57.1681 263.367C58.4622 263.367 58.9123 262.996 58.8801 261.671C58.7998 258.134 58.8801 254.596 58.8319 251.059C58.7834 250.547 58.8845 250.033 59.123 249.578C59.3614 249.123 59.7267 248.748 60.1742 248.499C73.3772 240.024 86.5668 231.533 99.743 223.026C108.215 217.577 116.683 212.115 125.15 206.64C126.173 205.949 127.381 205.586 128.614 205.598C142.696 205.63 156.777 205.63 170.859 205.598C172.901 205.598 172.901 205.598 172.909 203.506C172.909 196.189 172.869 188.864 172.909 181.538C172.992 180.956 172.841 180.364 172.49 179.893C172.138 179.422 171.616 179.111 171.036 179.027C157.667 174.897 144.687 169.589 132.247 163.165C118.4 156.001 105.279 147.5 93.0718 137.781C89.4951 134.954 86.0952 131.894 82.623 128.897C82.1166 128.461 81.112 128.09 81.546 127.177C81.7206 126.678 82.0308 126.238 82.4413 125.907C82.8518 125.576 83.3463 125.367 83.8689 125.303C84.9057 125.247 85.9506 125.303 86.9874 125.255C122.637 125.255 158.283 125.255 193.927 125.255C194.623 125.324 195.324 125.172 195.93 124.822C196.537 124.472 197.02 123.94 197.311 123.3C203.942 111.622 210.653 99.9923 217.348 88.3463C218.369 86.5696 218.369 86.5696 216.545 85.9235C214.27 85.0652 212.043 84.0838 209.874 82.9837C208.877 82.483 208.483 81.0131 208.869 79.4463C209.158 78.2833 210.099 78.6386 210.814 78.6386C214.085 78.5983 217.365 78.5337 220.628 78.6386C222.099 78.6871 222.693 78.1864 223.039 76.7569C226.455 63.2937 229.943 49.8467 233.407 36.3755C233.657 35.4306 233.705 34.3726 235.087 34.2757C235.618 34.2757 235.618 33.6296 235.618 33.1773C235.618 26.3529 235.746 19.5284 235.521 12.712C235.333 11.1888 235.333 9.64796 235.521 8.12473C235.818 6.80618 235.683 5.42651 235.136 4.19159C234.533 2.87515 235.754 1.67178 235.859 0.347274C235.859 0.00807037 236.414 0 236.759 0C239.09 0 241.421 0 243.752 0C244.556 0 244.966 0.28264 244.933 1.13065C244.914 1.58056 245.063 2.02144 245.351 2.36634C245.563 2.61974 245.697 2.92984 245.735 3.25846C245.774 3.58708 245.716 3.91985 245.568 4.21579C245.104 5.05575 244.86 6.00082 244.86 6.96174C244.86 7.92266 245.104 8.86774 245.568 9.70769C245.695 9.92869 245.762 10.1793 245.762 10.4345C245.762 10.6897 245.695 10.9404 245.568 11.1614C244.724 12.2679 244.958 13.5197 244.949 14.7392C244.949 20.6672 244.949 26.5952 244.949 32.507C244.949 33.5165 244.901 34.4049 246.316 34.4614C247.055 34.4614 247.208 35.3175 247.489 35.8829L264.698 70.0051C265.952 72.4926 267.238 74.9639 268.475 77.4595C268.596 77.8114 268.828 78.114 269.135 78.3211C269.443 78.5281 269.81 78.6284 270.179 78.6064C270.806 78.6064 271.787 78.2994 271.875 79.2928C271.972 80.4235 272.542 81.8207 271.401 82.6445C271.021 82.9054 270.734 83.2803 270.579 83.7156C270.425 84.1508 270.411 84.624 270.541 85.0674L275.991 120.95C276.143 121.984 276.344 123.01 276.441 124.052C276.521 124.948 276.971 125.255 277.807 125.223C278.354 125.223 278.892 125.223 279.415 125.223H395.429C396.119 125.119 396.824 125.18 397.486 125.4C399.367 126.329 399.479 127.637 397.912 129.018C391.667 134.486 385.269 139.744 378.526 144.598C370.44 150.447 361.994 155.777 353.239 160.556C348.658 163.036 344.069 165.499 339.27 167.534C338.33 167.938 337.952 168.439 338.33 169.473C338.54 170.189 338.709 170.917 338.836 171.653C338.908 171.936 338.908 172.388 339.085 172.461C341.73 173.834 342.196 176.725 343.466 178.994C344.374 180.61 345.298 181.417 347.139 181.159C348.594 180.917 349.02 181.627 349.004 183.033C348.939 187.878 349.004 192.797 349.004 197.675C348.948 198.312 349.122 198.948 349.494 199.468ZM318.951 197.457C318.951 195.268 318.951 193.071 318.951 190.883C318.987 190.442 318.901 189.999 318.705 189.603C318.508 189.208 318.206 188.874 317.834 188.637C315.204 186.703 313.386 183.852 312.738 180.642C312.168 178.163 312.2 178.219 309.748 178.857C309.468 178.893 309.198 178.984 308.953 179.126C308.709 179.267 308.495 179.456 308.323 179.682C308.152 179.907 308.027 180.164 307.956 180.439C307.884 180.713 307.868 180.999 307.908 181.28C307.908 183.073 307.996 184.858 307.988 186.643C307.988 192.506 307.988 198.377 307.988 204.241C307.988 205.186 308.35 205.59 309.314 205.573C312.039 205.573 314.764 205.573 317.488 205.573C318.63 205.573 318.951 205.105 318.927 204.047C318.951 201.842 318.951 199.645 318.951 197.457Z" fill="black"/>
</svg>
