<svg width="25" height="29" viewBox="0 0 25 29" fill="none" xmlns="http://www.w3.org/2000/svg">
<path d="M10.4674 16.0684C10.4674 17.1238 9.70178 17.4574 8.76116 17.4574H6.29475V14.5645H8.81038C9.82756 14.5699 10.4674 14.991 10.4674 16.0684ZM10.0463 11.5676C10.0463 10.5996 9.29709 10.3699 8.46584 10.3699H6.30022V12.8199H8.63538C9.46116 12.8199 10.0463 12.459 10.0463 11.5676ZM17.2815 12.8363C16.2807 12.8363 15.6135 13.4598 15.5479 14.4605H18.9494C18.8565 13.4488 18.3315 12.8363 17.2815 12.8363ZM24.7682 4.41992V23.6699C24.7682 25.1191 23.5924 26.2949 22.1432 26.2949H2.89319C1.44397 26.2949 0.268188 25.1191 0.268188 23.6699V4.41992C0.268188 2.9707 1.44397 1.79492 2.89319 1.79492H22.1432C23.5924 1.79492 24.7682 2.9707 24.7682 4.41992ZM15.1268 10.1621H19.3815V9.12852H15.1268V10.1621ZM12.7752 16.1941C12.7752 14.8762 12.1518 13.7387 10.8612 13.3723C11.8018 12.9238 12.294 12.4043 12.294 11.3488C12.294 9.25977 10.7354 8.75117 8.93616 8.75117H3.98694V19.2512H9.07835C10.9869 19.2402 12.7752 18.327 12.7752 16.1941ZM21.0494 15.3848C21.0494 13.1371 19.7315 11.2613 17.3526 11.2613C15.0338 11.2613 13.4643 13.0004 13.4643 15.2863C13.4643 17.6543 14.9573 19.2785 17.3526 19.2785C19.1682 19.2785 20.344 18.4637 20.9127 16.7191H19.0697C18.8674 17.3699 18.0526 17.709 17.4182 17.709C16.1932 17.709 15.5533 16.9926 15.5533 15.7785H21.033C21.0385 15.6527 21.0494 15.516 21.0494 15.3848Z" fill="black"/>
</svg>
