<svg width="28" height="29" viewBox="0 0 28 29" fill="none" xmlns="http://www.w3.org/2000/svg">
<path d="M18.9467 13.5179L20.7783 11.6862L16.4033 7.31119L14.5717 9.14286L9.74168 4.32453C8.83168 3.41453 7.35002 3.41453 6.44002 4.32453L4.22335 6.54119C3.31335 7.45119 3.31335 8.93286 4.22335 9.84286L9.04168 14.6612L3.50002 20.2145V24.5895H7.87502L13.4283 19.0362L18.2467 23.8545C19.355 24.9629 20.8483 24.5545 21.5483 23.8545L23.765 21.6379C24.675 20.7279 24.675 19.2462 23.765 18.3362L18.9467 13.5179ZM10.71 13.0045L5.88002 8.18619L8.08502 5.96953L9.56668 7.45119L8.19002 8.83953L9.83502 10.4845L11.2233 9.09619L12.915 10.7879L10.71 13.0045ZM19.9033 22.2095L15.085 17.3912L17.3017 15.1745L18.9934 16.8662L17.605 18.2545L19.25 19.8995L20.6383 18.5112L22.12 19.9929L19.9033 22.2095ZM24.1617 8.30286C24.2698 8.19493 24.3556 8.06672 24.4142 7.92559C24.4727 7.78445 24.5029 7.63316 24.5029 7.48036C24.5029 7.32756 24.4727 7.17627 24.4142 7.03513C24.3556 6.894 24.2698 6.76579 24.1617 6.65786L21.4317 3.92786C20.8834 3.37953 20.125 3.58953 19.7867 3.92786L17.6517 6.06286L22.0267 10.4379L24.1617 8.30286Z" fill="black"/>
</svg>
