<svg width="25" height="29" viewBox="0 0 25 29" fill="none" xmlns="http://www.w3.org/2000/svg">
<path d="M12.5182 11.2168C11.9413 11.217 11.3774 11.3882 10.8979 11.7089C10.4183 12.0296 10.0446 12.4852 9.82398 13.0182C9.60337 13.5513 9.54576 14.1378 9.65843 14.7035C9.77111 15.2693 10.049 15.789 10.457 16.1968C10.865 16.6047 11.3848 16.8824 11.9506 16.9949C12.5164 17.1073 13.1029 17.0495 13.6358 16.8287C14.1688 16.6079 14.6243 16.234 14.9448 15.7543C15.2653 15.2746 15.4363 14.7107 15.4363 14.1338C15.4357 13.3601 15.1281 12.6183 14.5809 12.0714C14.0337 11.5244 13.2918 11.217 12.5182 11.2168ZM19.3383 8.97457C19.1898 8.59823 18.9655 8.25643 18.6794 7.97035C18.3934 7.68427 18.0516 7.46002 17.6752 7.31152C16.5268 6.85816 13.7924 6.95988 12.5182 6.95988C11.244 6.95988 8.51233 6.85434 7.36061 7.31152C6.98427 7.46002 6.64246 7.68427 6.35639 7.97035C6.07031 8.25643 5.84606 8.59823 5.69756 8.97457C5.24475 10.123 5.34592 12.8601 5.34592 14.1332C5.34592 15.4064 5.24475 18.1402 5.69975 19.2925C5.84825 19.6688 6.0725 20.0106 6.35857 20.2967C6.64465 20.5828 6.98646 20.807 7.3628 20.9555C8.51124 21.4089 11.2456 21.3071 12.5204 21.3071C13.7951 21.3071 16.5257 21.4127 17.6774 20.9555C18.0537 20.807 18.3956 20.5828 18.6816 20.2967C18.9677 20.0106 19.192 19.6688 19.3405 19.2925C19.7971 18.144 19.6921 15.4069 19.6921 14.1338C19.6921 12.8607 19.7971 10.1274 19.3405 8.97512L19.3383 8.97457ZM12.5182 18.6182C11.6313 18.6182 10.7643 18.3552 10.0268 17.8624C9.28935 17.3697 8.71458 16.6693 8.37517 15.8499C8.03575 15.0305 7.94695 14.1288 8.11998 13.2589C8.29301 12.389 8.72011 11.59 9.34726 10.9629C9.97441 10.3357 10.7734 9.90861 11.6433 9.73558C12.5132 9.56255 13.4149 9.65136 14.2343 9.99077C15.0537 10.3302 15.7541 10.905 16.2468 11.6424C16.7396 12.3799 17.0026 13.2469 17.0026 14.1338C17.0033 14.7229 16.8878 15.3063 16.6627 15.8507C16.4376 16.3951 16.1073 16.8898 15.6907 17.3063C15.2742 17.7229 14.7795 18.0532 14.2351 18.2783C13.6907 18.5034 13.1073 18.6189 12.5182 18.6182ZM17.1874 10.508C16.9804 10.5081 16.7779 10.4468 16.6057 10.3319C16.4335 10.2169 16.2993 10.0535 16.22 9.86223C16.1407 9.67098 16.1199 9.4605 16.1602 9.25742C16.2005 9.05434 16.3002 8.86778 16.4465 8.72134C16.5929 8.5749 16.7794 8.47516 16.9825 8.43472C17.1855 8.39429 17.396 8.41499 17.5873 8.4942C17.7786 8.5734 17.9421 8.70756 18.0571 8.87971C18.1722 9.05185 18.2336 9.25424 18.2336 9.46129C18.2342 9.59878 18.2076 9.73503 18.1554 9.86223C18.1032 9.98943 18.0264 10.1051 17.9294 10.2025C17.8324 10.3 17.7171 10.3773 17.5902 10.4301C17.4632 10.4829 17.3271 10.5101 17.1896 10.5102L17.1874 10.508ZM22.1432 1.88379H2.89319C2.197 1.88379 1.52932 2.16035 1.03703 2.65263C0.54475 3.14492 0.268188 3.8126 0.268188 4.50879L0.268188 23.7588C0.268188 24.455 0.54475 25.1227 1.03703 25.6149C1.52932 26.1072 2.197 26.3838 2.89319 26.3838H22.1432C22.8394 26.3838 23.5071 26.1072 23.9993 25.6149C24.4916 25.1227 24.7682 24.455 24.7682 23.7588V4.50879C24.7682 3.8126 24.4916 3.14492 23.9993 2.65263C23.5071 2.16035 22.8394 1.88379 22.1432 1.88379ZM21.2069 17.7432C21.1364 19.1448 20.8165 20.3868 19.7933 21.4072C18.7701 22.4277 17.5292 22.7542 16.1292 22.8209C14.6849 22.9024 10.3548 22.9024 8.91045 22.8209C7.50881 22.7504 6.27124 22.4299 5.24639 21.4072C4.22155 20.3846 3.89944 19.1421 3.83272 17.7432C3.75124 16.2983 3.75124 11.9676 3.83272 10.5244C3.90327 9.12277 4.21936 7.88082 5.24639 6.86035C6.27342 5.83988 7.51428 5.51723 8.91045 5.45051C10.3548 5.36902 14.6849 5.36902 16.1292 5.45051C17.5308 5.52105 18.7723 5.84152 19.7933 6.86418C20.8143 7.88684 21.1402 9.12934 21.2069 10.531C21.2884 11.9704 21.2884 16.2972 21.2069 17.7432Z" fill="black"/>
</svg>
