<svg width="28" height="28" viewBox="0 0 28 28" fill="none" xmlns="http://www.w3.org/2000/svg">
<path d="M23.3333 25.6669H4.66666C4.04782 25.6669 3.45433 25.421 3.01675 24.9834C2.57916 24.5459 2.33333 23.9524 2.33333 23.3335V10.5574C2.35272 10.1717 2.46607 9.79665 2.66351 9.46481C2.86095 9.13297 3.13649 8.8544 3.46616 8.65336L12.7995 3.05336C13.162 2.836 13.5767 2.72119 13.9994 2.72119C14.4221 2.72119 14.8368 2.836 15.1993 3.05336L24.5327 8.65336C25.2338 9.07686 25.6643 9.8352 25.6667 10.6542V23.3335C25.6667 23.9524 25.4208 24.5459 24.9832 24.9834C24.5457 25.421 23.9522 25.6669 23.3333 25.6669ZM4.66666 11.5129V23.3335H23.3333V11.5129L14 17.7347L4.66666 11.5129ZM14 5.0542L6.202 9.73253L14 14.9312L21.7968 9.73253L14 5.0542Z" fill="black"/>
</svg>
