<svg width="62" height="62" viewBox="0 0 62 62" fill="none" xmlns="http://www.w3.org/2000/svg">
<path fill-rule="evenodd" clip-rule="evenodd" d="M30.9998 0H61.9999V31.0001V62.0003H30.9998H-0.000312805V31.0001V0H30.9998ZM30.9998 0C13.8789 0 -0.000312805 13.8792 -0.000312805 31.0001C-0.000312805 48.121 13.8789 62.0003 30.9998 62.0003C48.1207 62.0003 61.9999 48.121 61.9999 31.0001C61.9999 13.8792 48.1207 0 30.9998 0Z" fill="#F5FF33"/>
<path fill-rule="evenodd" clip-rule="evenodd" d="M30.9999 62.0001C30.9999 44.8792 44.8791 31 62 31L30.9999 31H-0.000255585C17.1206 31 30.9999 44.8792 30.9999 62.0001Z" fill="#F5FF33"/>
<path d="M62 31L30.9999 31L30.9999 -0.000125885C30.9999 17.1208 44.8791 31 62 31Z" fill="#F5FF33"/>
<path d="M30.9999 -0.000125885L30.9999 31L-0.000247955 31C17.1206 31 30.9999 17.1208 30.9999 -0.000125885Z" fill="#F5FF33"/>
</svg>
