<svg width="104" height="105" viewBox="0 0 104 105" fill="none" xmlns="http://www.w3.org/2000/svg">
<path d="M0 104.491H51.9187V52.564C51.8973 66.3293 46.4204 79.5246 36.6884 89.2582C26.9564 98.9917 13.7631 104.469 0 104.491Z" fill="black"/>
<path d="M52.0161 52.4829C65.7858 52.4829 78.9916 57.9538 88.7283 67.692C98.4649 77.4302 103.935 90.638 103.935 104.41V52.4829H52.0161Z" fill="black"/>
<path d="M0 0.491211V52.4182H51.9187C38.149 52.4182 24.9433 46.9474 15.2066 37.2092C5.46996 27.471 0 14.2631 0 0.491211Z" fill="black"/>
<path d="M104 0.491211H52.0811V52.4182C52.0811 38.6463 57.5511 25.4384 67.2878 15.7002C77.0244 5.96203 90.2301 0.491211 104 0.491211Z" fill="black"/>
</svg>
