<svg width="104" height="105" viewBox="0 0 104 105" fill="none" xmlns="http://www.w3.org/2000/svg">
<path d="M51.9997 52.2999H0V0.373047C-8.33111e-06 7.19901 1.34556 13.958 3.95978 20.2634C6.57401 26.5687 10.4056 32.2967 15.2353 37.1196C20.065 41.9425 25.798 45.7658 32.1064 48.3706C38.4148 50.9753 45.1748 52.3105 51.9997 52.2999Z" fill="black"/>
<path d="M52.0002 0.308657C58.8251 0.297992 65.5851 1.63328 71.8935 4.23807C78.202 6.84286 83.935 10.666 88.7646 15.4889C93.5943 20.3118 97.4259 26.0398 100.04 32.3452C102.654 38.6505 104 45.4095 104 52.2355V0.308657H52.0002Z" fill="black"/>
<path d="M52.0002 52.3C65.7774 52.3 78.9915 57.7683 88.741 67.5042C98.4905 77.24 103.978 90.4476 104 104.227V52.3H52.0002Z" fill="black"/>
<path d="M51.9997 104.308H0V52.3813C-8.33111e-06 59.2073 1.34556 65.9662 3.95978 72.2716C6.57401 78.5769 10.4056 84.3049 15.2353 89.1278C20.065 93.9507 25.798 97.774 32.1064 100.379C38.4148 102.984 45.1748 104.319 51.9997 104.308Z" fill="black"/>
</svg>
