<svg width="104" height="105" viewBox="0 0 104 105" fill="none" xmlns="http://www.w3.org/2000/svg">
<path d="M52.0405 104.308H104V52.3809C103.978 66.1462 98.4972 79.3415 88.7576 89.075C79.018 98.8086 65.8144 104.286 52.0405 104.308Z" fill="black"/>
<path d="M52.0405 0.308105C65.821 0.308105 79.0371 5.77893 88.7814 15.5171C98.5256 25.2553 104 38.4632 104 52.2351V0.308105H52.0405Z" fill="black"/>
<path d="M0 52.2998V104.227H52.0406C38.2526 104.227 25.0282 98.7586 15.271 89.0227C5.51386 79.2868 0.0215101 66.0791 0 52.2998Z" fill="black"/>
<path d="M52.0406 0.308169H0V52.2351C-8.33765e-06 45.4092 1.34672 38.6501 3.96299 32.3448C6.57927 26.0394 10.4138 20.3114 15.2472 15.4885C20.0807 10.6655 25.8183 6.84239 32.1317 4.23759C38.445 1.6328 45.2104 0.297503 52.0406 0.308169Z" fill="black"/>
</svg>
