<svg width="104" height="105" viewBox="0 0 104 105" fill="none" xmlns="http://www.w3.org/2000/svg">
<path d="M52.0413 0.308105C65.8216 0.308105 79.0374 5.78321 88.7816 15.529C98.5258 25.2748 104 38.493 104 52.2757V0.308105H52.0413Z" fill="black"/>
<path d="M52.0413 52.3398C65.8216 52.3398 79.0374 57.8149 88.7816 67.5608C98.5258 77.3066 104 90.5248 104 104.307V52.3398H52.0413Z" fill="black"/>
<path d="M0 0.308105C13.7804 0.308105 26.9964 5.78321 36.7406 15.529C46.4848 25.2748 51.959 38.493 51.959 52.2757V0.308105H0Z" fill="black"/>
<path d="M0 52.3398C13.7738 52.3613 26.9772 57.8434 36.7168 67.5845C46.4563 77.3257 51.9375 90.5314 51.959 104.307V52.3398H0Z" fill="black"/>
</svg>
