<svg width="104" height="105" viewBox="0 0 104 105" fill="none" xmlns="http://www.w3.org/2000/svg">
<path fill-rule="evenodd" clip-rule="evenodd" d="M1.06951e-05 52.3849C0.00438307 45.5703 1.34935 38.823 3.95839 32.5279C6.57169 26.2225 10.4019 20.4945 15.2298 15.6716C20.0578 10.8486 25.7888 7.02545 32.095 4.42065C38.3512 1.83649 45.0518 0.50179 51.8191 0.491211H0V52.3783V52.4183V52.4827V52.4842V104.305L51.9602 104.305C51.9602 104.327 51.9602 104.349 51.9603 104.371V104.305V104.177C51.9608 103.898 51.9636 103.619 51.9687 103.341C51.9757 103.662 51.9799 103.984 51.981 104.305L51.9813 104.41V104.305V102.8C52.1608 96.5261 53.4849 90.3328 55.8935 84.523C58.503 78.2286 62.3342 72.5081 67.1678 67.6889C72.0014 62.8696 77.7425 59.0463 84.0627 56.4376C90.3828 53.8289 97.1578 52.4862 104 52.4862L51.9813 52.4862V52.4842L103.784 52.4842C103.849 52.4843 103.914 52.4843 103.978 52.4842H103.784C97.0261 52.4715 90.3353 51.1386 84.0872 48.5595C77.7791 45.9557 72.0462 42.1328 67.2165 37.3096C62.3868 32.4865 58.5552 26.7577 55.9408 20.4513C53.3531 14.2089 52.0083 7.52171 51.9813 0.765053V0.557099L51.9811 0.704002L51.9809 0.557099V0.765023C51.9538 7.52032 50.6096 14.2062 48.0229 20.4475C45.4096 26.7529 41.5794 32.4809 36.7514 37.3039C31.9234 42.1268 26.1924 45.9501 19.8862 48.5549C13.7314 51.0972 7.14654 52.4301 0.491076 52.4827H0.000268571L1.06951e-05 52.3849ZM51.9603 103.01V104.177C51.9602 104.22 51.9602 104.263 51.9602 104.305C38.1955 104.3 24.9947 98.8323 15.2536 89.1014C5.53251 79.3904 0.0496206 66.2254 0.000272677 52.4842L0.000268571 52.4827C0.109511 52.4827 0.218718 52.483 0.327888 52.4837L0.162215 52.4842H0.402476C14.0294 52.5896 27.0766 58.0459 36.7277 67.6869C46.1432 77.0925 51.5827 89.7383 51.9603 103.01ZM52.1431 0.491298C58.9104 0.501878 65.6109 1.83657 71.8671 4.42074C78.1733 7.02554 83.9043 10.8487 88.7323 15.6716C93.5603 20.4946 97.3905 26.2226 100.004 32.528C102.617 38.8334 103.962 45.5924 103.962 52.4184V0.491298H52.1431ZM103.978 104.491H52.0134C65.7768 104.487 78.9772 99.0215 88.7191 89.2928C98.4686 79.5564 103.957 66.3463 103.978 52.5641V104.491Z" fill="black"/>
</svg>
