<svg width="97" height="47" viewBox="0 0 97 47" fill="none" xmlns="http://www.w3.org/2000/svg">
<path d="M3.08459 12.1241L1.67578 21.3892C2.98013 20.397 4.59288 19.8979 6.22934 19.9797H6.79687L7.68487 14.088C40.1006 16.76 68.5569 13.9344 91.3581 4.36201L89.0546 19.0579C89.8224 18.5969 91.4315 18.4567 94.0955 18.4567L96.9999 -0.0200195C68.7639 13.2129 35.9944 16.1654 3.08459 12.1241Z" fill="black"/>
<path d="M67.9763 21.5693H72.8704L71.1878 32.4977H66.3071L67.9763 21.5693Z" fill="black"/>
<path d="M29.1645 30.2467C29.0576 30.5118 28.8726 30.7382 28.6341 30.8957C28.3956 31.0531 28.1148 31.1343 27.8291 31.1285C27.5494 31.1053 27.2858 30.9875 27.0819 30.7944C26.878 30.6014 26.7459 30.3446 26.7075 30.0664C26.5168 29.0497 26.5055 28.0075 26.6741 26.9869C26.9678 24.4285 27.6489 23.1927 28.7305 23.2662C29.0087 23.2876 29.2714 23.4031 29.4753 23.5937C29.6791 23.7843 29.8121 24.0387 29.8522 24.3149C30.0545 25.3006 30.0726 26.3153 29.9056 27.3076C29.8366 28.323 29.588 29.3182 29.1712 30.2467M34.1854 22.5848C33.1572 21.5895 31.4346 21.0952 29.0376 21.0952C24.3238 21.0952 21.7199 23.0992 21.2258 27.1072C20.9587 29.2447 21.326 30.8279 22.3408 31.8365C23.3557 32.8452 25.0783 33.3462 27.502 33.3462C29.9257 33.3462 31.7484 32.8519 33.0237 31.8499C34.2989 30.8479 35.0801 29.3115 35.3405 27.2274C35.6009 25.1432 35.1736 23.5735 34.1721 22.5848H34.1854Z" fill="black"/>
<path d="M44.4806 30.2467C44.3729 30.5113 44.1878 30.7371 43.9494 30.8945C43.7111 31.0519 43.4308 31.1334 43.1453 31.1285C42.8667 31.1039 42.6047 30.9854 42.4021 30.7925C42.1996 30.5996 42.0685 30.3436 42.0303 30.0664C41.8401 29.0498 41.8266 28.0081 41.9902 26.9869C42.2906 24.4285 42.9717 23.1927 44.0533 23.2662C44.3315 23.2876 44.5942 23.4031 44.7981 23.5937C45.0019 23.7843 45.1349 24.0387 45.175 24.315C45.3735 25.3009 45.3938 26.3145 45.2351 27.3076C45.1579 28.3225 44.9072 29.3166 44.494 30.2467M49.5082 22.5849C48.4756 21.5873 46.7574 21.0908 44.3538 21.0952C39.6444 21.0952 37.0405 23.0992 36.542 27.1072C36.2749 29.2448 36.6488 30.8279 37.6637 31.8366C38.6785 32.8452 40.3945 33.3462 42.8181 33.3462C45.2418 33.3462 47.0712 32.8519 48.3465 31.8499C49.6217 30.8479 50.3963 29.3116 50.6633 27.2274C50.9304 25.1433 50.5298 23.5735 49.4949 22.5849H49.5082Z" fill="black"/>
<path d="M91.7453 20.0261C89.522 20.0261 88.0598 20.6473 86.8846 21.9299L82.8051 27.02L79.4668 21.5692H78.1314C77.1562 21.5139 76.1958 21.8262 75.4394 22.4445C74.683 23.0627 74.1856 23.9421 74.0452 24.9091L72.8901 32.4775H77.7842L78.8592 25.4435L82.7718 32.2704L87.9462 26.2585L86.9848 32.4441H91.9256L93.8485 19.9727L91.7453 20.0261Z" fill="black"/>
<path d="M18.5616 21.5692C17.6659 21.5501 16.7753 21.7084 15.9411 22.0352C15.1069 22.3619 14.3455 22.8506 13.7009 23.473L9.88179 27.0201L6.54341 21.5692H5.20806C4.23289 21.514 3.27243 21.8263 2.51604 22.4445C1.75965 23.0628 1.26224 23.9422 1.12188 24.9092L-0.0332031 32.4776H4.86087L5.93582 25.4436L9.84842 32.2705L14.7692 27.835L14.0615 32.511H18.9555L20.618 21.5826L18.5616 21.5692Z" fill="black"/>
<path d="M65.1588 31.8763C64.6781 31.2083 63.1557 28.1623 63.1557 28.1623C63.012 27.8233 62.7777 27.5305 62.4785 27.3161C62.1793 27.1016 61.8269 26.9737 61.4598 26.9465C62.655 26.8664 64.4177 25.9913 64.6781 24.2746C64.845 23.1924 64.3108 21.5625 60.8589 21.5625H53.0405L51.3779 32.5443H55.9916L56.7728 27.7214H57.9479C58.1331 27.7287 58.3122 27.7901 58.4629 27.8982C58.6136 28.0062 58.7294 28.1561 58.7958 28.3293C59.0028 28.7301 60.0844 30.7274 60.4383 31.3152C60.5451 31.4822 60.6453 31.6492 60.7454 31.8162C60.8928 32.048 61.0959 32.2392 61.3362 32.3723C61.5764 32.5053 61.8462 32.5759 62.1208 32.5777L66.1269 32.5443C65.7524 32.4081 65.4191 32.1781 65.1588 31.8763ZM59.9843 24.348C59.9027 24.9896 59.5826 25.5768 59.0876 25.9928C58.5927 26.4087 57.9593 26.6229 57.3136 26.5925C57.1783 26.6079 57.0416 26.6079 56.9063 26.5925L57.5406 22.3775C57.7505 22.3467 57.9629 22.3355 58.1749 22.3441C58.4363 22.3204 58.6996 22.358 58.9439 22.4539C59.1882 22.5497 59.4069 22.7013 59.5825 22.8964C59.7581 23.0915 59.8858 23.3249 59.9556 23.5781C60.0253 23.8312 60.0351 24.0971 59.9843 24.3547V24.348Z" fill="black"/>
<path d="M50.129 38.1157H50.0022H45.6489V39.0042H50.129V38.1157Z" fill="black"/>
<path d="M50.8171 37.8887V40.5606H49.8223V41.5226H50.8171V46.9266H51.7919V37.8887H50.8171Z" fill="black"/>
<path d="M52.4595 37.8618V46.8864H53.4476V37.8618H53.3208H52.4595Z" fill="black"/>
<path d="M57.7742 37.9886C57.4196 37.9827 57.0693 38.068 56.7572 38.2365C56.445 38.4049 56.1814 38.6508 55.9915 38.9505C55.567 39.7135 55.3442 40.5723 55.3442 41.4455C55.3442 42.3187 55.567 43.1774 55.9915 43.9404C56.181 44.2409 56.4444 44.4878 56.7566 44.6573C57.0687 44.8269 57.419 44.9136 57.7742 44.909C58.1283 44.9138 58.4776 44.8264 58.7878 44.6555C59.0979 44.4845 59.3584 44.2358 59.5435 43.9337C59.968 43.172 60.1908 42.3143 60.1908 41.4421C60.1908 40.57 59.968 39.7123 59.5435 38.9505C59.3567 38.6509 59.0956 38.4049 58.7855 38.2363C58.4754 38.0677 58.127 37.9824 57.7742 37.9886ZM57.7742 44.0005C57.5512 43.9972 57.3343 43.9274 57.1511 43.8C56.968 43.6727 56.8269 43.4937 56.746 43.2858C56.4696 42.7162 56.3345 42.0884 56.352 41.4555C56.3364 40.8313 56.4716 40.2126 56.746 39.6519C56.8247 39.4418 56.9656 39.2607 57.15 39.1329C57.3343 39.0051 57.5532 38.9366 57.7775 38.9366C58.0018 38.9366 58.2207 39.0051 58.4051 39.1329C58.5894 39.2607 58.7303 39.4418 58.8091 39.6519C59.0753 40.2174 59.2056 40.8373 59.1897 41.4622C59.2058 42.0935 59.0755 42.72 58.8091 43.2925C58.7243 43.4969 58.5806 43.6716 58.3963 43.7941C58.212 43.9166 57.9955 43.9815 57.7742 43.9805V44.0005Z" fill="black"/>
<path d="M61.6333 37.8618V46.8864H62.6415V37.8618H62.5146H61.6333Z" fill="black"/>
<path d="M24.811 42.8716V43.7467H29.0775V46.9998H30.099V43.7467H34.2319V42.8716H24.811Z" fill="black"/>
<path d="M32.9962 38.1157H26.0591V41.8097H32.9962V38.1157ZM27.0673 40.9347V38.9975H31.9881V40.9347H27.0673Z" fill="black"/>
<path d="M36.9092 43.5996V46.8861H43.419V43.5996H36.9092ZM37.9107 46.0177V44.4546H42.4108V46.0177H37.9107Z" fill="black"/>
<path d="M42.4443 37.8618V43.2726H43.4325V37.8618H43.3056H42.4443Z" fill="black"/>
<path d="M36.8624 41.95V40.8879H40.9085V38.1357H35.8408V39.0175H39.8869V40.0262H35.8408V42.8184H41.249V41.95H36.8624Z" fill="black"/>
<path d="M47.3316 38.8169H46.3501V43.4461H47.3316V38.8169Z" fill="black"/>
<path d="M49.4213 38.79H48.4331V43.446H49.4213V38.79Z" fill="black"/>
<path d="M50.4762 43.3257H45.4619V44.2141H50.4762V43.3257Z" fill="black"/>
<path d="M69.8657 38.1157H69.7388H64.7446V39.0042H69.8657V38.1157Z" fill="black"/>
<path d="M72.0625 37.8887H71.228V40.6274H69.8525V41.5159H71.228V46.9133H72.2228V37.8887H72.0625Z" fill="black"/>
<path d="M66.5272 38.9106H65.5391V43.5666H66.5272V38.9106Z" fill="black"/>
<path d="M69.0912 38.9106H68.103V43.5666H69.0912V38.9106Z" fill="black"/>
<path d="M70.6135 43.3594H64.4976V44.2478H70.6135V43.3594Z" fill="black"/>
</svg>
