<svg width="159" height="77" viewBox="0 0 159 77" fill="none" xmlns="http://www.w3.org/2000/svg">
<path d="M5.05611 19.863L2.74683 35.0419C4.88488 33.4165 7.52846 32.5987 10.2109 32.7328H11.1412L12.5968 23.0804C65.7318 27.4579 112.377 22.8287 149.752 7.14636L145.976 31.2225C147.235 30.4674 149.872 30.2376 154.239 30.2376L159 -0.0327148C112.716 21.6468 59.001 26.4839 5.05611 19.863Z" fill="white"/>
<path d="M111.425 35.3372H119.447L116.689 53.2411H108.689L111.425 35.3372Z" fill="white"/>
<path d="M47.8055 49.5532C47.6302 49.9875 47.327 50.3583 46.936 50.6163C46.5451 50.8743 46.0849 51.0074 45.6166 50.9978C45.158 50.9598 44.726 50.7668 44.3918 50.4505C44.0575 50.1342 43.8411 49.7135 43.7779 49.2577C43.4655 47.5921 43.4469 45.8846 43.7232 44.2127C44.2048 40.0212 45.3211 37.9966 47.0941 38.117C47.5501 38.152 47.9807 38.3412 48.3149 38.6535C48.6491 38.9658 48.867 39.3826 48.9327 39.8352C49.2644 41.45 49.294 43.1123 49.0203 44.738C48.9072 46.4016 48.4996 48.032 47.8164 49.5532M56.0356 37.0007C54.3502 35.3701 51.5266 34.5603 47.5975 34.5603C39.8708 34.5603 35.6025 37.8434 34.7926 44.4096C34.3548 47.9116 34.9568 50.5053 36.6203 52.1578C38.2839 53.8103 41.1075 54.6311 45.0803 54.6311C49.0531 54.6311 52.0409 53.8213 54.1313 52.1797C56.2217 50.5381 57.5022 48.0211 57.929 44.6066C58.3559 41.1922 57.6554 38.6204 56.0138 37.0007H56.0356Z" fill="white"/>
<path d="M72.9117 49.5532C72.7351 49.9867 72.4316 50.3566 72.0409 50.6145C71.6503 50.8723 71.1908 51.0059 70.7228 50.9978C70.2661 50.9575 69.8366 50.7635 69.5046 50.4474C69.1726 50.1313 68.9577 49.7119 68.895 49.2578C68.5834 47.5923 68.5612 45.8857 68.8294 44.2127C69.3219 40.0213 70.4382 37.9967 72.2112 38.1171C72.6673 38.1521 73.0978 38.3413 73.432 38.6536C73.7662 38.9659 73.9841 39.3826 74.0499 39.8352C74.3752 41.4505 74.4085 43.111 74.1484 44.738C74.0218 46.4008 73.6109 48.0295 72.9335 49.5532M81.1528 37.0008C79.46 35.3665 76.6437 34.5531 72.7037 34.5604C64.9843 34.5604 60.7159 37.8435 59.8988 44.4097C59.461 47.9117 60.0739 50.5054 61.7374 52.1579C63.401 53.8104 66.2137 54.6311 70.1865 54.6311C74.1593 54.6311 77.1581 53.8213 79.2485 52.1797C81.3388 50.5382 82.6084 48.0211 83.0462 44.6067C83.4839 41.1922 82.8273 38.6205 81.1309 37.0008H81.1528Z" fill="white"/>
<path d="M150.387 32.809C146.742 32.809 144.345 33.8268 142.419 35.928L135.732 44.2671L130.26 35.337H128.071C126.473 35.2465 124.898 35.7581 123.658 36.771C122.419 37.7839 121.603 39.2245 121.373 40.8089L119.48 53.2081H127.502L129.264 41.6843L135.677 52.8688L144.159 43.0195L142.583 53.1534H150.682L153.834 32.7214L150.387 32.809Z" fill="white"/>
<path d="M30.4257 35.3374C28.9575 35.306 27.4977 35.5654 26.1302 36.1007C24.7628 36.636 23.5148 37.4366 22.4582 38.4563L16.198 44.2675L10.7258 35.3374H8.5369C6.93843 35.2469 5.36407 35.7585 4.12421 36.7714C2.88436 37.7843 2.06902 39.2249 1.83895 40.8093L-0.0544434 53.2085H7.96781L9.72984 41.6847L16.1433 52.8692L24.2093 45.6026L23.0492 53.2632H31.0714L33.7966 35.3593L30.4257 35.3374Z" fill="white"/>
<path d="M106.807 52.223C106.019 51.1287 103.523 46.1383 103.523 46.1383C103.288 45.583 102.903 45.1033 102.413 44.752C101.923 44.4006 101.345 44.1911 100.743 44.1466C102.702 44.0152 105.592 42.5816 106.019 39.7691C106.292 37.9962 105.417 35.3259 99.7583 35.3259H86.9425L84.2173 53.3174H91.7799L93.0604 45.416H94.9866C95.2902 45.428 95.5838 45.5286 95.8308 45.7056C96.0779 45.8826 96.2676 46.1282 96.3765 46.4119C96.7158 47.0685 98.4888 50.3407 99.0688 51.3038C99.2439 51.5774 99.4081 51.8509 99.5723 52.1245C99.8138 52.5044 100.147 52.8176 100.541 53.0355C100.934 53.2535 101.377 53.3692 101.827 53.3721L108.393 53.3174C107.78 53.0943 107.233 52.7175 106.807 52.223ZM98.3246 39.8895C98.1909 40.9405 97.6661 41.9026 96.8548 42.584C96.0435 43.2655 95.0052 43.6163 93.9469 43.5665C93.725 43.5919 93.501 43.5919 93.2792 43.5665L94.319 36.6611C94.6631 36.6107 95.0112 36.5924 95.3587 36.6063C95.7871 36.5676 96.2187 36.6292 96.6192 36.7863C97.0197 36.9433 97.3781 37.1916 97.666 37.5113C97.9538 37.831 98.1632 38.2133 98.2775 38.628C98.3918 39.0427 98.408 39.4784 98.3246 39.9004V39.8895Z" fill="white"/>
<path d="M82.1706 62.4448H81.9626H74.8269V63.9003H82.1706V62.4448Z" fill="white"/>
<path d="M83.2979 62.073V66.4505H81.6672V68.0264H83.2979V76.8798H84.8958V62.073H83.2979Z" fill="white"/>
<path d="M85.99 62.0291V76.814H87.6098V62.0291H87.4018H85.99Z" fill="white"/>
<path d="M94.7019 62.2368C94.1206 62.2272 93.5465 62.367 93.0348 62.643C92.5231 62.9189 92.0909 63.3217 91.7797 63.8127C91.0839 65.0627 90.7188 66.4696 90.7188 67.9002C90.7188 69.3308 91.0839 70.7377 91.7797 71.9877C92.0904 72.48 92.5222 72.8844 93.0338 73.1622C93.5454 73.44 94.1197 73.582 94.7019 73.5745C95.2823 73.5824 95.8548 73.4393 96.3633 73.1592C96.8717 72.879 97.2986 72.4716 97.6021 71.9768C98.2979 70.7288 98.6632 69.3236 98.6632 67.8948C98.6632 66.4659 98.2979 65.0608 97.6021 63.8127C97.296 63.322 96.8679 62.9189 96.3596 62.6427C95.8513 62.3665 95.2802 62.2267 94.7019 62.2368ZM94.7019 72.0862C94.3363 72.0807 93.9807 71.9663 93.6805 71.7577C93.3803 71.5491 93.1491 71.2558 93.0164 70.9152C92.5634 69.9821 92.3419 68.9535 92.3707 67.9166C92.3451 66.8941 92.5666 65.8805 93.0164 64.9618C93.1455 64.6176 93.3765 64.321 93.6787 64.1116C93.9808 63.9022 94.3397 63.79 94.7073 63.79C95.075 63.79 95.4338 63.9022 95.736 64.1116C96.0381 64.321 96.2692 64.6176 96.3982 64.9618C96.8346 65.8883 97.0482 66.9039 97.0221 67.9276C97.0485 68.9619 96.835 69.9882 96.3982 70.9262C96.2592 71.2612 96.0237 71.5472 95.7216 71.748C95.4195 71.9487 95.0646 72.055 94.7019 72.0534V72.0862Z" fill="white"/>
<path d="M101.028 62.0291V76.814H102.68V62.0291H102.472H101.028Z" fill="white"/>
<path d="M40.6697 70.2368V71.6704H47.6631V77H49.3376V71.6704H56.1122V70.2368H40.6697Z" fill="white"/>
<path d="M54.087 62.4448H42.7158V68.4967H54.087V62.4448ZM44.3684 67.0631V63.8894H52.4344V67.0631H44.3684Z" fill="white"/>
<path d="M60.5005 71.4294V76.8137H71.1713V71.4294H60.5005ZM62.1421 75.3911V72.8302H69.5186V75.3911H62.1421Z" fill="white"/>
<path d="M69.5732 62.0291V70.8935H71.193V62.0291H70.9851H69.5732Z" fill="white"/>
<path d="M60.4242 68.7262V66.9861H67.0565V62.4773H58.7498V63.9219H65.382V65.5744H58.7498V70.1489H67.6147V68.7262H60.4242Z" fill="white"/>
<path d="M77.5847 63.5938H75.9758V71.1777H77.5847V63.5938Z" fill="white"/>
<path d="M81.0104 63.5498H79.3906V71.1776H81.0104V63.5498Z" fill="white"/>
<path d="M82.7395 70.9807H74.5203V72.4362H82.7395V70.9807Z" fill="white"/>
<path d="M114.522 62.4448H114.314H106.128V63.9003H114.522V62.4448Z" fill="white"/>
<path d="M118.123 62.073H116.755V66.5599H114.5V68.0154H116.755V76.858H118.385V62.073H118.123Z" fill="white"/>
<path d="M109.05 63.7471H107.43V71.3748H109.05V63.7471Z" fill="white"/>
<path d="M113.253 63.7471H111.633V71.3748H113.253V63.7471Z" fill="white"/>
<path d="M115.748 71.0356H105.723V72.4912H115.748V71.0356Z" fill="white"/>
</svg>
