<svg width="97" height="37" viewBox="0 0 97 37" fill="none" xmlns="http://www.w3.org/2000/svg">
<path fill-rule="evenodd" clip-rule="evenodd" d="M8.1692 1.09955H11.5178L7.28602 8.42992V13.1946H4.25019V8.42992L0 1.09955H3.44062L5.11494 4.41654C5.42722 5.09855 5.66767 5.81096 5.83248 6.54235C6.01455 5.80763 6.26086 5.09018 6.56849 4.39822L8.2244 1.09955H8.1692ZM15.0504 4.26994C15.6734 4.22427 16.2988 4.31475 16.883 4.53503C17.4672 4.75531 17.9959 5.10008 18.4323 5.54521C18.8687 5.99034 19.2022 6.52507 19.4094 7.11199C19.6166 7.69891 19.6925 8.32384 19.6318 8.94304C19.6895 9.57346 19.6063 10.2088 19.3882 10.8034C19.1702 11.398 18.8227 11.9371 18.3706 12.3821C17.9186 12.8271 17.3732 13.1669 16.7737 13.3771C16.1742 13.5873 15.5355 13.6627 14.9033 13.5978C14.2814 13.6633 13.6528 13.5902 13.0629 13.3836C12.473 13.1771 11.9366 12.8424 11.4927 12.4037C11.0488 11.9651 10.7084 11.4336 10.4964 10.8477C10.2843 10.2618 10.2059 9.6362 10.2667 9.01635C10.2067 8.37655 10.2895 7.73147 10.509 7.12722C10.7284 6.52297 11.0792 5.9745 11.5363 5.521C11.9933 5.06751 12.5454 4.72021 13.1529 4.50394C13.7604 4.28766 14.4083 4.20776 15.0504 4.26994ZM14.9585 11.7652C16.136 11.7652 16.7984 10.7573 16.7984 8.94304C16.7984 7.12877 16.2464 6.06587 14.9585 6.06587C13.6705 6.06587 13.1186 7.11045 13.1186 8.92472C13.1186 10.739 13.7625 11.7652 14.9585 11.7652ZM25.6299 4.23328C26.2536 4.18803 26.8797 4.27864 27.4646 4.4988C28.0495 4.71895 28.5793 5.06338 29.0171 5.50812C29.4548 5.95287 29.7901 6.48725 29.9995 7.07411C30.2089 7.66097 30.2875 8.28623 30.2297 8.90639C30.2893 9.53728 30.2085 10.1735 29.9929 10.7697C29.7772 11.3659 29.4322 11.9073 28.9823 12.3554C28.5325 12.8035 27.9888 13.1472 27.3903 13.3619C26.7917 13.5767 26.1529 13.6572 25.5195 13.5978C24.897 13.6628 24.2677 13.5895 23.677 13.383C23.0864 13.1766 22.5491 12.8422 22.1038 12.404C21.6586 11.9658 21.3165 11.4346 21.1022 10.8488C20.8879 10.263 20.8067 9.63715 20.8646 9.01635C20.805 8.37824 20.8874 7.7349 21.1058 7.1321C21.3243 6.5293 21.6734 5.98185 22.1284 5.5287C22.5833 5.07554 23.1329 4.72782 23.7381 4.51025C24.3433 4.29269 24.9893 4.21064 25.6299 4.26994V4.23328ZM25.5195 11.7652C26.7155 11.7652 27.3594 10.7573 27.3594 8.94304C27.3594 7.12877 26.8075 6.06587 25.5195 6.06587C24.2316 6.06587 23.6796 7.11045 23.6796 8.92472C23.6796 10.739 24.342 11.7652 25.5195 11.7652ZM37.4789 4.34324C37.8971 4.31459 38.3165 4.37933 38.7064 4.53273C39.0962 4.68612 39.4468 4.92431 39.7324 5.22989C40.0181 5.53547 40.2316 5.90073 40.3574 6.29901C40.4832 6.69728 40.5181 7.11852 40.4596 7.53195V13.2313H37.6077V7.73353C37.6077 6.72561 37.2029 6.21248 36.3198 6.21248C35.4366 6.21248 34.8662 6.90887 34.8662 7.93512V13.1946H32.0328V4.61813H34.7191V5.99257C34.9776 5.49024 35.3745 5.07173 35.8633 4.7861C36.3522 4.50047 36.9126 4.35956 37.4789 4.37989V4.34324ZM48.5184 4.34324V0H51.315V13.268H48.7024V11.9851C48.4221 12.4748 48.01 12.8767 47.5126 13.1455C47.0152 13.4142 46.4523 13.5392 45.8873 13.5062C43.6794 13.5062 42.2075 11.6736 42.2075 9.053C42.2075 6.43239 43.7163 4.26994 46.0161 4.26994C46.5477 4.26354 47.0717 4.39542 47.5363 4.65254C48.001 4.90966 48.3902 5.28312 48.6656 5.73601C48.6095 5.28603 48.5788 4.83329 48.5736 4.37989L48.5184 4.34324ZM46.8808 11.7652C48.04 11.7652 48.7208 10.684 48.7208 8.88806C48.7208 7.09213 48.1504 6.10253 46.9729 6.10253C45.7953 6.10253 45.2249 7.16543 45.2249 8.96137C45.2249 10.7573 45.7585 11.7652 46.8808 11.7652ZM57.8099 4.23328C58.4293 4.18911 59.0508 4.28124 59.6304 4.50313C60.2101 4.72503 60.7336 5.07125 61.1638 5.51724C61.594 5.96323 61.9204 6.49806 62.1198 7.08378C62.3192 7.66949 62.3868 8.29175 62.3177 8.90639C62.3177 9.01635 62.3177 9.16295 62.3177 9.36454H56.2276C56.2276 10.4091 56.4116 11.7469 57.9019 11.7469C58.2303 11.7781 58.5579 11.6808 58.8155 11.4755C59.0731 11.2703 59.2403 10.9733 59.2819 10.6473H62.1705C61.9459 11.5969 61.3707 12.4276 60.5594 12.9742C59.7481 13.5209 58.7601 13.7435 57.7915 13.5978C57.1748 13.6551 56.5529 13.5756 55.9707 13.3651C55.3884 13.1545 54.8602 12.8182 54.424 12.3802C53.9877 11.9422 53.6543 11.4134 53.4476 10.8318C53.2409 10.2501 53.1661 9.63017 53.2286 9.01635C53.1596 8.39206 53.2292 7.76032 53.4324 7.16578C53.6356 6.57124 53.9674 6.0284 54.4044 5.57566C54.8414 5.12291 55.373 4.77129 55.9615 4.54567C56.5499 4.32004 57.1809 4.22591 57.8099 4.26994V4.23328ZM56.2092 7.89846H59.2635C59.2635 6.54235 58.7299 5.91927 57.7915 5.91927C56.8532 5.91927 56.3564 6.52402 56.2092 7.89846ZM69.0886 8.35661C70.7077 8.92471 71.2965 9.6944 71.2965 10.8673C71.2965 12.5899 69.7694 13.6161 67.4511 13.6161C65.1328 13.6161 63.6608 12.5899 63.4584 10.5191H66.2551C66.3471 11.2888 66.5495 11.9485 67.4878 11.9485C68.4262 11.9485 68.6102 11.5453 68.6102 11.0688C68.6102 10.5924 68.3342 10.2625 67.3775 9.91431L66.0527 9.43784C64.4888 8.86974 63.808 8.17336 63.808 6.94552C63.808 5.33284 65.28 4.26994 67.4878 4.26994C70.6709 4.26994 71.1677 6.10253 71.2781 7.1471H68.5918C68.5918 6.30411 68.1502 5.88262 67.4878 5.88262C66.8255 5.88262 66.4943 6.17583 66.4943 6.6523C66.4943 7.12877 66.7519 7.53195 68.003 7.97177L69.0886 8.35661ZM81.8391 4.28826C82.4668 4.29322 83.089 4.40477 83.679 4.61813H87.1197V6.26746H86.4389C86.0738 6.27825 85.7088 6.24128 85.3533 6.1575C85.543 6.35681 85.6884 6.59357 85.7804 6.85243C85.8723 7.11129 85.9086 7.3865 85.8869 7.66023C85.8869 9.85934 83.7159 10.6473 81.8208 10.6473C81.4349 10.6747 81.0475 10.6747 80.6616 10.6473C80.5817 10.6927 80.5167 10.7601 80.4743 10.8413C80.4319 10.9226 80.4138 11.0143 80.4224 11.1055C80.4224 11.4537 80.6616 11.6186 81.6735 11.7286L82.7959 11.8569C84.875 12.0951 86.9541 12.5532 86.9541 14.8806C86.9541 17.208 84.2126 17.9594 81.9863 17.9594C79.76 17.9594 77.3498 17.3913 77.3498 15.3571C77.3498 13.3229 79.5209 13.213 79.6313 13.1946C79.7417 13.1763 78.2329 12.8831 78.2329 11.7286C78.2329 10.8673 79.3001 10.3358 79.4105 10.2808C78.865 10.0652 78.402 9.68314 78.088 9.18931C77.774 8.69548 77.6251 8.11529 77.6625 7.53195C77.6698 6.7439 77.975 5.98753 78.5171 5.41356C79.0593 4.83958 79.7987 4.49014 80.588 4.43487C80.9921 4.40155 81.3982 4.40155 81.8023 4.43487L81.8391 4.28826ZM81.1032 13.5978C81.1032 13.5978 79.9624 13.891 79.9624 14.8257C79.9624 15.7603 80.9744 16.2001 82.0967 16.2001C83.2191 16.2001 84.3046 15.8153 84.3046 14.9539C84.3046 14.0926 83.7711 13.946 82.3359 13.7628L81.1032 13.5978ZM81.8023 9.07132C82.5383 9.07132 83.1271 8.6315 83.1271 7.45864C83.1271 6.28578 82.5567 5.79099 81.8023 5.79099C81.048 5.79099 80.5328 6.28578 80.5328 7.45864C80.5328 8.6315 81.1032 9.07132 81.8023 9.07132ZM94.0194 4.43487C94.4376 4.40622 94.8569 4.47096 95.2467 4.62435C95.6366 4.77775 95.9872 5.01594 96.2728 5.32152C96.5584 5.6271 96.772 5.99236 96.8978 6.39064C97.0236 6.78891 97.0585 7.21014 97 7.62358V13.3229H94.1481V7.82516C94.1481 6.81724 93.7434 6.30411 92.8602 6.30411C91.9771 6.30411 91.4067 7.00049 91.4067 8.02674V13.2863H88.5732V4.61813H91.2043V5.99257C91.4628 5.49024 91.8597 5.07173 92.3485 4.7861C92.8373 4.50047 93.3978 4.35956 93.9642 4.37989L94.0194 4.43487ZM74.3323 0.054979C74.567 0.0248938 74.8055 0.0441571 75.0322 0.111527C75.259 0.178898 75.469 0.292877 75.6488 0.446109C75.8287 0.599342 75.9742 0.788421 76.0761 1.00115C76.178 1.21387 76.234 1.44551 76.2404 1.68112C76.2469 1.91673 76.2037 2.15107 76.1137 2.36902C76.0236 2.58697 75.8886 2.78369 75.7175 2.94647C75.5463 3.10925 75.3428 3.23448 75.1201 3.31409C74.8974 3.39369 74.6603 3.42589 74.4243 3.40862H74.3323C74.0964 3.43321 73.858 3.40816 73.6325 3.3351C73.407 3.26204 73.1994 3.14259 73.0232 2.98449C72.847 2.8264 72.7061 2.63319 72.6096 2.41739C72.5132 2.20159 72.4634 1.96801 72.4634 1.7318C72.4634 1.49558 72.5132 1.26201 72.6096 1.04621C72.7061 0.830407 72.847 0.637196 73.0232 0.479102C73.1994 0.321009 73.407 0.201558 73.6325 0.128494C73.858 0.0554302 74.0964 0.0303855 74.3323 0.054979ZM72.9156 13.3229V4.61813H75.7674V13.268L72.9156 13.3229ZM5.28053 28.9733C5.77435 29.0059 6.26671 28.8908 6.69443 28.6428C7.12215 28.3949 7.46574 28.0253 7.68115 27.5815C7.89655 27.1377 7.97394 26.6399 7.90339 26.152C7.83284 25.6641 7.61756 25.2083 7.28518 24.8431C6.9528 24.4779 6.51847 24.2199 6.03788 24.1022C5.55728 23.9845 5.05232 24.0125 4.58781 24.1826C4.1233 24.3527 3.72043 24.6571 3.43079 25.0568C3.14116 25.4565 2.97797 25.9333 2.96223 26.426C2.9126 26.7514 2.93639 27.0838 3.0318 27.399C3.1272 27.7142 3.29186 28.0042 3.51384 28.2481C3.73582 28.4921 4.00951 28.6837 4.31509 28.8091C4.62068 28.9345 4.95048 28.9906 5.28053 28.9733ZM2.41028 34.2511C2.41028 35.7172 3.84539 36.3769 5.5565 36.3769C6.88124 36.3769 8.57398 35.7355 8.57398 34.1778C8.57398 32.6201 7.52523 32.3452 5.81412 32.107L4.30538 31.8504C3.81327 32.0533 3.38381 32.3822 3.06066 32.8038C2.7375 33.2255 2.53217 33.7248 2.46547 34.2511H2.41028ZM5.28053 23.4205C5.78836 23.4137 6.29127 23.5201 6.75243 23.732H9.60433V24.3551H8.4084C8.07789 24.3849 7.74534 24.3849 7.41483 24.3551C7.75077 24.618 8.01576 24.96 8.18599 25.3503C8.35622 25.7406 8.42633 26.1669 8.38998 26.5909C8.40081 26.9963 8.32707 27.3996 8.17341 27.7752C8.01976 28.1509 7.78955 28.4907 7.49731 28.7731C7.20507 29.0556 6.85718 29.2746 6.47562 29.4163C6.09405 29.558 5.6871 29.6193 5.28053 29.5963C4.84259 29.606 4.40641 29.5378 3.99257 29.3947C3.81736 29.5008 3.66847 29.6448 3.55696 29.8162C3.44546 29.9875 3.37426 30.1818 3.34865 30.3843C3.34865 30.9158 3.9374 31.0807 4.82055 31.2273L6.12687 31.4656C7.654 31.7405 9.34671 32.1986 9.34671 34.1228C9.34671 36.0471 7.41483 36.9817 5.51973 36.9817C3.62462 36.9817 1.60071 36.3219 1.60071 34.3244C1.64848 33.7398 1.86494 33.1813 2.22403 32.7164C2.58311 32.2514 3.06951 31.8998 3.62462 31.7038C3.62462 31.7038 2.57586 31.4656 2.57586 30.5676C2.60968 30.2778 2.71249 30.0003 2.8757 29.758C3.03891 29.5158 3.25781 29.3158 3.51423 29.1748C2.95864 28.7967 2.53851 28.252 2.31488 27.6199C2.09124 26.9877 2.07571 26.3011 2.27058 25.6596C2.46544 25.018 2.86056 24.4551 3.39851 24.0525C3.93646 23.6498 4.58925 23.4285 5.26211 23.4205H5.28053ZM12.1434 25.9495C12.3512 25.2473 12.7876 24.6339 13.3838 24.2059C13.9801 23.7779 14.7023 23.5596 15.4368 23.5854V24.3185H15.216C14.782 24.3387 14.3567 24.4468 13.966 24.636C13.5753 24.8252 13.2273 25.0917 12.9433 25.4191C12.6593 25.7466 12.4452 26.1282 12.314 26.5408C12.1828 26.9533 12.1373 27.3881 12.1802 27.8187V32.3269H11.4258V23.732H12.1066V25.9495H12.1434ZM17.5343 28.0753C17.5343 30.6043 18.6934 32.0154 20.6621 32.0154C22.6308 32.0154 23.79 30.6043 23.79 28.0753C23.79 25.5463 22.7044 24.0436 20.6621 24.0436C18.6198 24.0436 17.5343 25.4913 17.5343 28.0753ZM24.5996 28.0753C24.5996 30.8792 23.1828 32.6568 20.6621 32.6568C18.1415 32.6568 16.7615 30.9525 16.7615 28.0753C16.7615 25.1981 18.2151 23.4205 20.6621 23.4205C23.1092 23.4205 24.5996 25.1065 24.5996 28.0753ZM33.7991 32.3269H33.0999V30.4943C32.9094 31.1318 32.507 31.6858 31.9587 32.0654C31.4104 32.4451 30.7488 32.6277 30.0825 32.5835C28.2426 32.5835 27.1754 31.4473 27.1754 29.3398V23.842H27.9298V29.1932C27.9298 31.0258 28.6842 31.9787 30.1193 31.9787C30.5109 31.9946 30.9014 31.9288 31.266 31.7856C31.6306 31.6425 31.9613 31.4251 32.2366 31.1474C32.512 30.8696 32.7261 30.5377 32.8653 30.1728C33.0045 29.8079 33.0656 29.418 33.0448 29.0282V23.732H33.8175V32.3269H33.7991ZM37.6997 28.1303C37.6997 30.6043 38.8589 32.0337 40.662 32.0337C42.4651 32.0337 43.4219 30.476 43.4219 27.9653C43.4219 25.4547 42.4283 24.1352 40.662 24.1352C38.8957 24.1352 37.6997 25.6013 37.6997 28.1303ZM37.6997 25.0149C37.6997 25.3631 37.6997 25.8945 37.6997 25.8945C37.8666 25.1941 38.2745 24.5741 38.8526 24.1422C39.4308 23.7103 40.1426 23.4939 40.8644 23.5305C42.9619 23.5305 44.305 25.2164 44.305 27.9104C44.305 30.6043 42.9067 32.6568 40.6252 32.6568C39.9414 32.6698 39.2732 32.4525 38.7288 32.0401C38.1845 31.6277 37.7959 31.0442 37.6261 30.3843C37.6261 30.8242 37.6261 31.3556 37.6261 31.5389V36.6335H36.8902V23.8053H37.5341V25.0882L37.6997 25.0149Z" fill="black"/>
</svg>
