<svg width="354" height="60" viewBox="0 0 354 60" fill="none" xmlns="http://www.w3.org/2000/svg">
<path d="M142.366 0.742432C137.43 9.50527 135.661 20.1152 135.661 30.3277C135.661 41.0027 137.856 50.4903 142.366 59.913H139.441C133.71 51.4126 130.541 40.7377 130.541 30.3277C130.541 19.8503 133.658 9.30783 139.441 0.742432H142.366Z" fill="white"/>
<path d="M168.759 53.1763H163.394V30.5093H148.461V53.1763H143.097V6.12769H148.461V25.368H163.394V6.12769H168.759V53.1763Z" fill="white"/>
<path d="M200.21 29.6521C200.21 41.5117 198.199 54.0987 186.181 54.0987C174.163 54.0987 172.152 41.5117 172.152 29.6521C172.152 17.7926 174.163 5.20557 186.181 5.20557C198.199 5.20557 200.21 17.7926 200.21 29.6521ZM177.779 29.6521C177.779 40.5245 178.756 49.3549 186.191 49.3549C193.626 49.3549 194.603 40.5219 194.603 29.6521C194.603 18.7824 193.626 9.94937 186.191 9.94937C178.756 9.94937 177.779 18.7798 177.779 29.6521Z" fill="white"/>
<path d="M203.623 6.12769H217.704C224.531 6.12769 228.857 10.4766 228.857 17.9223C228.857 23.0636 227.212 28.4648 222.154 29.7845V29.9144C225.932 30.3768 228.064 33.7386 228.309 37.7576L228.675 45.7956C228.919 50.9915 229.714 52.319 230.992 53.1763H224.531C223.617 52.1865 223.188 48.6949 223.066 46.3879L222.702 39.0747C222.274 32.6163 218.982 32.2214 216.241 32.2214H208.988V53.1763H203.623V6.12769ZM208.988 27.4775H214.29C217.46 27.4775 223.25 27.4775 223.25 18.3848C223.25 13.7708 220.393 10.8715 215.387 10.8715H208.988V27.4775Z" fill="white"/>
<path d="M232.211 6.12769H237.576V53.1763H232.211V6.12769Z" fill="white"/>
<path d="M239.464 48.3L259.032 11.269H240.561V6.12769H264.636V11.4665L245.071 48.0246H264.88V53.1659H239.464V48.3Z" fill="white"/>
<path d="M294.2 29.6521C294.2 41.5117 292.187 54.0987 280.171 54.0987C268.156 54.0987 266.143 41.5117 266.143 29.6521C266.143 17.7926 268.153 5.20557 280.171 5.20557C292.189 5.20557 294.2 17.7926 294.2 29.6521ZM271.77 29.6521C271.77 40.5245 272.744 49.3549 280.179 49.3549C287.615 49.3549 288.591 40.5219 288.591 29.6521C288.591 18.7824 287.617 9.94937 280.179 9.94937C272.741 9.94937 271.762 18.7798 271.762 29.6521H271.77Z" fill="white"/>
<path d="M297.611 6.12769H304.56L318.945 45.4007H319.067V6.12769H324.432V53.1763H317.056L303.098 15.0906H302.976V53.1763H297.611V6.12769Z" fill="white"/>
<path d="M346.923 18.3199C346.923 13.3838 345.278 9.94935 340.168 9.94935C335.658 9.94935 332.977 12.5863 332.977 17.5951C332.977 30.8446 353.516 22.9312 353.516 40.1296C353.516 51.002 346.141 54.0987 339.986 54.0987C329.807 54.0987 326.82 48.43 326.82 38.415H332.185C332.185 43.6862 332.489 49.3549 340.35 49.3549C344.618 49.3549 347.91 46.0581 347.91 41.0415C347.91 27.7296 327.368 35.4403 327.368 18.1796C327.368 13.8307 329.075 5.18994 340.098 5.18994C348.385 5.18994 352.165 9.67138 352.287 18.3043L346.923 18.3199Z" fill="white"/>
<path d="M12.0901 17.9979C-4.01706 -5.99928 8.4998 -5.99928 16.2676 17.9979C8.4998 -5.99928 34.4532 54.0962 24.9136 38.0305C34.4402 54.0962 34.6584 54.0962 24.9863 38.0305C34.6584 54.0962 34.6584 -5.99928 24.9863 17.9979C34.6584 -5.99928 44.3331 -5.99928 28.2103 17.9979C44.3331 -5.99928 44.3331 65.9947 28.2103 41.995C44.3331 65.9947 31.0317 65.9947 23.7783 41.995C31.0317 65.9947 5.8525 7.70223 15.3895 22.5702C5.86289 7.71262 5.64207 7.71262 15.3142 22.5702C5.64207 7.71262 5.64207 65.9947 15.3142 41.995C5.64207 65.9947 -4.03005 65.9947 12.0901 41.995C-4.03005 65.9947 -4.03005 -5.99928 12.0901 17.9979Z" fill="white"/>
<path d="M51.7501 17.9979C37.7914 -5.99929 78.3504 -5.99929 65.2594 17.9979C78.34 -5.99929 78.34 1.86466 65.2594 20.6192C78.34 1.86466 47.4531 1.86466 54.9638 20.6192C47.4531 1.86466 47.4531 24.4511 54.9638 28.1532C47.4531 24.4563 76.5812 24.4563 64.6749 28.1532C76.5812 24.4563 76.5812 32.3099 64.6749 30.7745C76.5812 32.3333 47.4531 32.3333 54.9638 30.7745C47.4531 32.3333 47.4531 58.1334 54.9638 39.3789C47.4531 58.1334 79.6442 58.1334 65.6984 39.3789C79.6572 58.1334 79.6572 65.9999 65.6984 42.0002C79.6572 65.9999 37.781 65.9999 51.7397 42.0002C37.7914 65.9947 37.7914 -5.99929 51.7501 17.9979Z" fill="white"/>
<path d="M87.9679 17.9979C62.1003 -5.99928 71.7724 -5.99928 91.1919 17.9979C71.7724 -5.99928 83.7541 52.8855 95.185 37.6278C83.7541 52.8855 83.9723 52.8855 95.2577 37.6278C83.9723 52.8855 95.0733 -5.99928 98.9572 17.9979C95.0733 -5.99928 106.725 -5.99928 102.854 17.9979C106.738 -5.99928 117.839 52.8855 106.556 37.6278C117.839 52.8855 118.06 52.8855 106.629 37.6278C118.06 52.8855 130.039 -5.99928 110.622 17.9979C130.039 -5.99928 139.719 -5.99928 113.846 17.9979C139.711 -5.99928 123.554 65.9947 108.46 41.995C123.554 65.9947 111.794 65.9947 104.54 41.995C111.794 65.9947 101.023 7.70223 100.95 22.5702C101.023 7.71262 100.802 7.71262 100.877 22.5702C100.802 7.71262 89.4825 65.9947 97.1023 41.995C89.4825 65.9947 77.7216 65.9947 93.182 41.995C77.7087 65.9947 62.1081 -5.99928 87.9679 17.9979Z" fill="white"/>
</svg>
