<svg width="209" height="209" viewBox="0 0 209 209" fill="none" xmlns="http://www.w3.org/2000/svg">
<path d="M104.499 104.483H0V0.129761C-1.67423e-05 13.8473 2.70406 27.4303 7.95764 40.1017C13.2112 52.773 20.9112 64.284 30.617 73.9762C40.3228 83.6684 51.844 91.3517 64.5214 96.5863C77.1989 101.821 90.784 104.504 104.499 104.483Z" fill="white"/>
<path d="M104.5 0.000127393C118.216 -0.0213063 131.801 2.66211 144.478 7.89674C157.156 13.1314 168.677 20.8144 178.383 30.5066C188.088 40.1988 195.788 51.7099 201.042 64.3812C206.295 77.0525 209 90.6355 209 104.353V0.000127393H104.5Z" fill="white"/>
<path d="M104.501 104.483C132.187 104.483 158.743 115.472 178.335 135.037C197.928 154.603 208.957 181.145 209 208.836V104.483H104.501Z" fill="white"/>
<path d="M104.499 208.999H0V104.646C-1.67423e-05 118.364 2.70406 131.947 7.95764 144.618C13.2112 157.289 20.9112 168.8 30.617 178.493C40.3228 188.185 51.844 195.868 64.5214 201.103C77.1989 206.337 90.784 209.021 104.499 208.999Z" fill="white"/>
</svg>
