<svg width="209" height="209" viewBox="0 0 209 209" fill="none" xmlns="http://www.w3.org/2000/svg">
<path d="M104.582 0C132.275 0 158.834 11.0028 178.416 30.5881C197.998 50.1734 209 76.7368 209 104.435V0H104.582Z" fill="white"/>
<path d="M104.583 104.564C132.276 104.564 158.835 115.567 178.417 135.153C197.999 154.738 209 181.301 209 208.999V104.564H104.583Z" fill="white"/>
<path d="M0 0C27.6932 0 54.2522 11.0028 73.8343 30.5881C93.4163 50.1734 104.417 76.7368 104.417 104.435V0H0Z" fill="white"/>
<path d="M0 104.564C27.6799 104.608 54.2138 115.624 73.7865 135.2C93.3591 154.776 104.374 181.315 104.417 208.999V104.564H0Z" fill="white"/>
</svg>
