<svg width="209" height="209" viewBox="0 0 209 209" fill="none" xmlns="http://www.w3.org/2000/svg">
<path d="M0 208.999H104.337V104.646C104.294 132.309 93.2871 158.826 73.7295 178.387C54.1719 197.948 27.6586 208.956 0 208.999Z" fill="white"/>
<path d="M104.533 104.483C132.205 104.483 158.743 115.477 178.31 135.048C197.877 154.618 208.869 181.16 208.869 208.836V104.483H104.533Z" fill="white"/>
<path d="M0 0V104.353H104.337C76.6649 104.353 50.1263 93.359 30.5594 73.789C10.9925 54.2189 0 27.6762 0 0Z" fill="white"/>
<path d="M209 0H104.663V104.353C104.663 76.677 115.656 50.1343 135.223 30.5643C154.79 10.9942 181.328 0 209 0Z" fill="white"/>
</svg>
