<svg width="209" height="208" viewBox="0 0 209 208" fill="none" xmlns="http://www.w3.org/2000/svg">
<path fill-rule="evenodd" clip-rule="evenodd" d="M104.788 0.000126787C118.388 0.0212863 131.853 2.69074 144.426 7.85918C157.099 13.0689 168.616 20.7154 178.318 30.3615C188.02 40.0076 195.718 51.4639 200.969 64.075C206.221 76.686 208.924 90.2044 208.924 103.857V0.000126787H104.788ZM208.957 207.857H104.528C132.186 207.848 158.714 196.917 178.292 177.459C197.884 157.986 208.914 131.565 208.957 104V207.857ZM0 104V207.857H104.462C76.7854 207.857 50.2397 196.92 30.6539 177.448C11.068 157.975 0.0431777 131.559 0 104ZM104.136 0.000126787H104.462L104.462 0.00012649C104.354 -4.22749e-05 104.245 -4.21506e-05 104.136 0.000126787ZM104.136 0.000126787H0V103.857C-1.67364e-05 90.2044 2.7031 76.686 7.95483 64.075C13.2066 51.4639 20.9037 40.0076 30.6061 30.3615C40.3085 20.7154 51.8256 13.0689 64.4986 7.85918C77.0712 2.69074 90.5367 0.0212863 104.136 0.000126787ZM0 103.99H0.325982C0.21733 103.99 0.108669 103.99 0 103.99ZM104.42 205.047C103.663 178.503 92.7311 153.208 73.8085 134.395C54.4225 115.122 28.2178 104.21 0.846578 103.99H0.325982C0.445783 103.99 0.565573 103.989 0.685352 103.989C0.45698 103.987 0.228529 103.986 0 103.986H1.02387C14.3862 103.877 27.6062 101.211 39.9636 96.1309C52.6366 90.9212 64.1538 83.2745 73.8561 73.6284C83.5585 63.9823 91.2557 52.526 96.5074 39.9149C101.723 27.3904 104.425 13.971 104.462 0.414226V0.133152L104.462 0.331891L104.462 0.133152V0.414228C104.499 13.9737 107.202 27.3958 112.42 39.9224C117.674 52.5356 125.374 63.9933 135.08 73.6399C144.786 83.2864 156.307 90.9324 168.983 96.1402C181.54 101.298 194.985 103.964 208.566 103.99L104.462 103.99V103.993L209 103.993C195.25 103.993 181.635 106.679 168.934 111.896C156.233 117.114 144.695 124.76 134.981 134.399C125.268 144.038 117.569 155.479 112.324 168.068C107.484 179.69 104.823 192.078 104.462 204.627V207.843C104.461 207.13 104.453 206.419 104.437 205.708C104.427 206.264 104.421 206.82 104.42 207.377V205.047ZM104.42 207.377C104.42 207.507 104.42 207.636 104.42 207.766V207.377ZM208.566 103.99H208.957C208.874 103.99 208.791 103.99 208.708 103.99C208.661 103.99 208.613 103.99 208.566 103.99Z" fill="white"/>
</svg>
