<svg width="210" height="209" viewBox="0 0 210 209" fill="none" xmlns="http://www.w3.org/2000/svg">
<path d="M105.082 209H210V104.646C209.957 132.309 198.889 158.827 179.222 178.388C159.556 197.948 132.895 208.957 105.082 209Z" fill="white"/>
<path d="M105.082 0C132.908 0 159.594 10.9943 179.27 30.5644C198.946 50.1345 210 76.6773 210 104.354V0H105.082Z" fill="white"/>
<path d="M0 104.483V208.837H105.082C77.2409 208.837 50.5377 197.848 30.8357 178.282C11.1338 158.717 0.0434338 132.174 0 104.483Z" fill="white"/>
<path d="M105.082 0.000127393H0V104.354C-1.68356e-05 90.6361 2.71933 77.053 8.0022 64.3816C13.2851 51.7102 21.0278 40.1991 30.7877 30.5068C40.5476 20.8145 52.1331 13.1315 64.8813 7.89679C77.6294 2.66213 91.2902 -0.0213064 105.082 0.000127393Z" fill="white"/>
</svg>
