<svg width="159" height="62" viewBox="0 0 159 62" fill="none" xmlns="http://www.w3.org/2000/svg">
<path fill-rule="evenodd" clip-rule="evenodd" d="M13.3908 1.8425H18.8798L11.9431 14.1258V22.11H6.9668V14.1258L0 1.8425H5.63978L8.38429 7.40069C8.89617 8.54352 9.2903 9.73728 9.56046 10.9629C9.85891 9.7317 10.2626 8.52949 10.7669 7.36998L13.4812 1.8425H13.3908ZM24.6703 7.15503C25.6914 7.07851 26.7166 7.23012 27.6742 7.59924C28.6317 7.96836 29.4985 8.54609 30.2138 9.29198C30.9291 10.0379 31.4758 10.9339 31.8154 11.9174C32.155 12.9009 32.2794 13.9481 32.18 14.9856C32.2745 16.042 32.1381 17.1066 31.7807 18.103C31.4233 19.0993 30.8536 20.0028 30.1127 20.7484C29.3717 21.4941 28.4778 22.0634 27.4951 22.4156C26.5124 22.7678 25.4654 22.8942 24.4291 22.7855C23.4098 22.8953 22.3793 22.7727 21.4123 22.4266C20.4454 22.0805 19.5662 21.5196 18.8385 20.7846C18.1109 20.0496 17.553 19.1589 17.2054 18.1772C16.8578 17.1954 16.7292 16.1471 16.8289 15.1085C16.7306 14.0364 16.8663 12.9554 17.226 11.9429C17.5858 10.9304 18.1608 10.0113 18.91 9.25141C19.6592 8.49151 20.5641 7.90955 21.5599 7.54714C22.5557 7.18473 23.6178 7.05084 24.6703 7.15503ZM24.5196 19.7147C26.4497 19.7147 27.5355 18.0258 27.5355 14.9856C27.5355 11.9455 26.6307 10.1644 24.5196 10.1644C22.4084 10.1644 21.5036 11.9148 21.5036 14.9549C21.5036 17.9951 22.5592 19.7147 24.5196 19.7147ZM42.0119 7.09361C43.0342 7.01779 44.0605 7.16961 45.0193 7.53852C45.9781 7.90744 46.8465 8.48459 47.5641 9.22983C48.2817 9.97508 48.8311 10.8705 49.1744 11.8539C49.5177 12.8373 49.6465 13.885 49.5518 14.9242C49.6495 15.9814 49.517 17.0475 49.1635 18.0465C48.8101 19.0456 48.2445 19.9528 47.5071 20.7037C46.7697 21.4545 45.8786 22.0304 44.8974 22.3903C43.9163 22.7501 42.8693 22.8851 41.831 22.7855C40.8105 22.8945 39.779 22.7716 38.8108 22.4256C37.8426 22.0797 36.9619 21.5194 36.2321 20.7851C35.5022 20.0507 34.9414 19.1607 34.5902 18.1791C34.2389 17.1975 34.1059 16.1487 34.2007 15.1085C34.1031 14.0392 34.2381 12.9612 34.5962 11.9511C34.9542 10.941 35.5265 10.0236 36.2723 9.26431C37.0181 8.50496 37.9189 7.92229 38.9109 7.55772C39.903 7.19316 40.9618 7.05567 42.0119 7.15503V7.09361ZM41.831 19.7147C43.7913 19.7147 44.8469 18.0258 44.8469 14.9856C44.8469 11.9455 43.9421 10.1644 41.831 10.1644C39.7198 10.1644 38.815 11.9148 38.815 14.9549C38.815 17.9951 39.9008 19.7147 41.831 19.7147ZM61.4345 7.27786C62.12 7.22986 62.8074 7.33833 63.4465 7.59538C64.0856 7.85242 64.6602 8.25154 65.1284 8.7636C65.5967 9.27565 65.9466 9.88772 66.1528 10.5551C66.359 11.2225 66.4163 11.9283 66.3203 12.6211V22.1714H61.6457V12.9589C61.6457 11.2699 60.9821 10.4101 59.5345 10.4101C58.0868 10.4101 57.1519 11.577 57.1519 13.2967V22.11H52.5074V7.73849H56.9106V10.0416C57.3344 9.19987 57.9851 8.49858 58.7863 8.01995C59.5876 7.54133 60.5062 7.30521 61.4345 7.33928V7.27786ZM79.5301 7.27786V0H84.1143V22.2328H79.8318V20.0832C79.3724 20.9037 78.6968 21.5772 77.8815 22.0275C77.0661 22.4779 76.1434 22.6873 75.2174 22.632C71.5983 22.632 69.1855 19.5612 69.1855 15.1699C69.1855 10.7786 71.6586 7.15503 75.4285 7.15503C76.2998 7.1443 77.1587 7.36529 77.9204 7.79615C78.6821 8.22701 79.32 8.8528 79.7714 9.61169C79.6794 8.85768 79.6291 8.09902 79.6206 7.33928L79.5301 7.27786ZM76.8459 19.7147C78.746 19.7147 79.8619 17.9029 79.8619 14.8935C79.8619 11.8841 78.927 10.2259 76.9968 10.2259C75.0666 10.2259 74.1316 12.0069 74.1316 15.0163C74.1316 18.0258 75.0062 19.7147 76.8459 19.7147ZM94.7606 7.09361C95.7758 7.01959 96.7947 7.17397 97.7448 7.54579C98.6948 7.91762 99.553 8.49778 100.258 9.24511C100.963 9.99245 101.498 10.8886 101.825 11.8701C102.152 12.8516 102.263 13.8943 102.15 14.9242C102.15 15.1085 102.15 15.3541 102.15 15.6919H92.1669C92.1669 17.4423 92.4685 19.684 94.9114 19.684C95.4497 19.7363 95.9867 19.5732 96.4089 19.2293C96.8311 18.8854 97.1053 18.3876 97.1734 17.8415H101.908C101.54 19.4327 100.597 20.8246 99.2675 21.7406C97.9377 22.6566 96.318 23.0296 94.7305 22.7855C93.7195 22.8815 92.7002 22.7483 91.7457 22.3955C90.7913 22.0427 89.9255 21.4791 89.2104 20.7451C88.4954 20.0112 87.9488 19.1251 87.61 18.1505C87.2712 17.1759 87.1486 16.137 87.2509 15.1085C87.138 14.0624 87.2521 13.0038 87.5851 12.0075C87.9182 11.0113 88.4621 10.1017 89.1784 9.34299C89.8947 8.58433 90.7661 7.99514 91.7307 7.61707C92.6952 7.23899 93.7295 7.08126 94.7606 7.15503V7.09361ZM92.1367 13.2353H97.1432C97.1432 10.9629 96.2686 9.91877 94.7305 9.91877C93.1924 9.91877 92.378 10.9321 92.1367 13.2353ZM113.248 14.003C115.902 14.9549 116.867 16.2447 116.867 18.21C116.867 21.0966 114.364 22.8162 110.564 22.8162C106.764 22.8162 104.351 21.0966 104.02 17.6265H108.604C108.755 18.9163 109.086 20.0218 110.624 20.0218C112.163 20.0218 112.464 19.3462 112.464 18.5478C112.464 17.7494 112.012 17.1966 110.443 16.6132L108.272 15.8148C105.708 14.8628 104.593 13.6959 104.593 11.6384C104.593 8.93611 107.005 7.15503 110.624 7.15503C115.842 7.15503 116.656 10.2259 116.837 11.9762H112.434C112.434 10.5636 111.71 9.85736 110.624 9.85736C109.539 9.85736 108.996 10.3487 108.996 11.1471C108.996 11.9455 109.418 12.6211 111.469 13.3581L113.248 14.003ZM134.149 7.18574C135.178 7.19404 136.197 7.38097 137.165 7.73849H142.804V10.5022H141.688C141.09 10.5203 140.492 10.4584 139.909 10.318C140.22 10.652 140.458 11.0487 140.609 11.4825C140.76 11.9162 140.819 12.3774 140.784 12.8361C140.784 16.5211 137.225 17.8415 134.119 17.8415C133.486 17.8873 132.851 17.8873 132.219 17.8415C132.088 17.9176 131.981 18.0304 131.911 18.1666C131.842 18.3027 131.812 18.4564 131.826 18.6092C131.826 19.1927 132.218 19.469 133.877 19.6533L135.717 19.8682C139.125 20.2675 142.533 21.0352 142.533 24.9351C142.533 28.8351 138.039 30.0941 134.39 30.0941C130.741 30.0941 126.79 29.1421 126.79 25.7335C126.79 22.3249 130.349 22.1407 130.53 22.11C130.711 22.0792 128.237 21.5879 128.237 19.6533C128.237 18.21 129.987 17.3195 130.168 17.2273C129.274 16.8661 128.515 16.2258 128 15.3983C127.485 14.5708 127.241 13.5986 127.303 12.6211C127.314 11.3006 127.815 10.0332 128.703 9.07137C129.592 8.10957 130.804 7.52402 132.098 7.4314C132.76 7.37557 133.426 7.37557 134.088 7.4314L134.149 7.18574ZM132.942 22.7855C132.942 22.7855 131.072 23.2769 131.072 24.843C131.072 26.4091 132.731 27.1461 134.571 27.1461C136.411 27.1461 138.19 26.5012 138.19 25.058C138.19 23.6147 137.315 23.369 134.963 23.0619L132.942 22.7855ZM134.088 15.2006C135.295 15.2006 136.26 14.4636 136.26 12.4983C136.26 10.5329 135.325 9.70381 134.088 9.70381C132.852 9.70381 132.007 10.5329 132.007 12.4983C132.007 14.4636 132.942 15.2006 134.088 15.2006ZM154.114 7.4314C154.8 7.3834 155.487 7.49187 156.126 7.74892C156.765 8.00596 157.34 8.40509 157.808 8.91714C158.276 9.4292 158.626 10.0413 158.832 10.7086C159.039 11.376 159.096 12.0819 159 12.7746V22.3249H154.325V13.1124C154.325 11.4235 153.662 10.5636 152.214 10.5636C150.767 10.5636 149.832 11.7306 149.832 13.4502V22.2635H145.187V7.73849H149.5V10.0416C149.924 9.19987 150.574 8.49858 151.375 8.01995C152.177 7.54133 153.095 7.30521 154.024 7.33928L154.114 7.4314ZM121.844 0.0921269C122.228 0.0417139 122.619 0.073993 122.991 0.186884C123.363 0.299774 123.707 0.490768 124.002 0.747535C124.296 1.0043 124.535 1.32114 124.702 1.6776C124.869 2.03405 124.961 2.42221 124.971 2.81701C124.982 3.21182 124.911 3.6045 124.764 3.96972C124.616 4.33493 124.395 4.66456 124.114 4.93733C123.834 5.2101 123.5 5.41995 123.135 5.55333C122.77 5.68672 122.381 5.74069 121.994 5.71174H121.844C121.457 5.75295 121.066 5.71098 120.697 5.58855C120.327 5.46612 119.987 5.26595 119.698 5.00104C119.409 4.73613 119.178 4.41237 119.02 4.05076C118.862 3.68915 118.78 3.29775 118.78 2.90193C118.78 2.50611 118.862 2.11472 119.02 1.75311C119.178 1.39149 119.409 1.06773 119.698 0.80282C119.987 0.537906 120.327 0.337745 120.697 0.215314C121.066 0.092883 121.457 0.0509163 121.844 0.0921269ZM119.521 22.3249V7.73849H124.196V22.2328L119.521 22.3249ZM8.65571 48.5498C9.46517 48.6044 10.2722 48.4116 10.9733 47.9961C11.6745 47.5806 12.2377 46.9613 12.5907 46.2176C12.9438 45.474 13.0707 44.6399 12.955 43.8223C12.8394 43.0047 12.4865 42.241 11.9417 41.629C11.3969 41.017 10.6849 40.5847 9.89714 40.3875C9.10936 40.1903 8.28164 40.2372 7.52023 40.5222C6.75882 40.8072 6.09844 41.3173 5.62367 41.9871C5.14891 42.6568 4.88142 43.4557 4.85561 44.2813C4.77426 44.8267 4.81326 45.3837 4.96964 45.9118C5.12603 46.44 5.39594 46.926 5.7598 47.3347C6.12366 47.7434 6.57229 48.0645 7.0732 48.2747C7.5741 48.4849 8.1147 48.5788 8.65571 48.5498ZM3.95087 57.3938C3.95087 59.8504 6.30327 60.9559 9.10809 60.9559C11.2796 60.9559 14.0543 59.8811 14.0543 57.2709C14.0543 54.6607 12.3352 54.2001 9.53036 53.8009L7.05727 53.371C6.25062 53.7109 5.54666 54.2621 5.01695 54.9686C4.48724 55.6752 4.15066 56.5119 4.04134 57.3938H3.95087ZM8.65571 39.2452C9.48814 39.2337 10.3125 39.4121 11.0684 39.7672H15.7432V40.8113H13.7828C13.2411 40.8611 12.696 40.8611 12.1542 40.8113C12.7049 41.2518 13.1392 41.8249 13.4183 42.4789C13.6973 43.1329 13.8122 43.8472 13.7526 44.5577C13.7704 45.2371 13.6495 45.9129 13.3977 46.5423C13.1458 47.1717 12.7684 47.7411 12.2894 48.2144C11.8104 48.6878 11.2401 49.0547 10.6147 49.2922C9.98922 49.5296 9.32215 49.6323 8.65571 49.5939C7.93786 49.6101 7.22289 49.4957 6.54452 49.2561C6.25732 49.4337 6.01326 49.6751 5.83049 49.9622C5.64771 50.2494 5.531 50.5748 5.48902 50.9143C5.48902 51.8049 6.45408 52.0812 7.90173 52.3269L10.043 52.7261C12.5462 53.1867 15.3209 53.9544 15.3209 57.1788C15.3209 60.4032 12.1542 61.9693 9.0478 61.9693C5.94139 61.9693 2.62385 60.8638 2.62385 57.5166C2.70215 56.5369 3.05697 55.6011 3.64557 54.822C4.23417 54.0429 5.03147 53.4537 5.94139 53.1253C5.94139 53.1253 4.22229 52.7261 4.22229 51.2214C4.27772 50.7358 4.44625 50.2707 4.71378 49.8648C4.98131 49.4589 5.34013 49.1238 5.76044 48.8876C4.84974 48.2539 4.16107 47.3412 3.79449 46.282C3.42792 45.2227 3.40246 44.0721 3.72187 42.9971C4.04129 41.9221 4.68895 40.9788 5.57075 40.3041C6.45255 39.6294 7.52259 39.2585 8.62552 39.2452H8.65571ZM19.9052 43.4829C20.2458 42.3063 20.961 41.2785 21.9384 40.5613C22.9158 39.8441 24.0996 39.4783 25.3036 39.5215V40.7499H24.9417C24.2304 40.7838 23.5332 40.9649 22.8928 41.2819C22.2523 41.599 21.6819 42.0455 21.2164 42.5942C20.7508 43.143 20.3998 43.7824 20.1848 44.4737C19.9697 45.165 19.8951 45.8936 19.9655 46.6152V54.1694H18.7289V39.7672H19.8448V43.4829H19.9052ZM28.7418 47.0451C28.7418 51.2828 30.6418 53.6474 33.8689 53.6474C37.0959 53.6474 38.996 51.2828 38.996 47.0451C38.996 42.8073 37.2166 40.2893 33.8689 40.2893C30.5212 40.2893 28.7418 42.7152 28.7418 47.0451ZM40.323 47.0451C40.323 51.7434 38.0007 54.7221 33.8689 54.7221C29.737 54.7221 27.4751 51.8663 27.4751 47.0451C27.4751 42.2239 29.8577 39.2452 33.8689 39.2452C37.8801 39.2452 40.323 42.0703 40.323 47.0451ZM55.4027 54.1694H54.2566V51.0986C53.9443 52.1668 53.2847 53.0951 52.3859 53.7313C51.4871 54.3674 50.4027 54.6735 49.3105 54.5993C46.2946 54.5993 44.5453 52.6954 44.5453 49.1639V39.9515H45.7818V48.9183C45.7818 51.9891 47.0184 53.5859 49.3708 53.5859C50.0127 53.6125 50.6529 53.5023 51.2505 53.2624C51.8482 53.0226 52.3901 52.6583 52.8415 52.1929C53.2929 51.7275 53.6439 51.1712 53.872 50.5598C54.1001 49.9483 54.2003 49.2951 54.1661 48.6419V39.7672H55.4329V54.1694H55.4027ZM61.7964 47.1372C61.7964 51.2828 63.6965 53.6781 66.6521 53.6781C69.6078 53.6781 71.176 51.0679 71.176 46.8608C71.176 42.6538 69.5474 40.4428 66.6521 40.4428C63.7568 40.4428 61.7964 42.8995 61.7964 47.1372ZM61.7964 41.9168C61.7964 42.5002 61.7964 43.3908 61.7964 43.3908C62.0699 42.2172 62.7386 41.1783 63.6863 40.4546C64.634 39.7309 65.8008 39.3681 66.9838 39.4294C70.422 39.4294 72.6236 42.2546 72.6236 46.7687C72.6236 51.2828 70.3315 54.7221 66.5918 54.7221C65.4709 54.7441 64.3756 54.38 63.4833 53.6888C62.5911 52.9977 61.9541 52.0201 61.6758 50.9143C61.6758 51.6513 61.6758 52.5419 61.6758 52.8489V61.3858H60.4694V39.89H61.525V42.0396L61.7964 41.9168Z" fill="white"/>
</svg>
