<svg width="940" height="160" viewBox="0 0 940 160" fill="none" xmlns="http://www.w3.org/2000/svg">
<path d="M378.553 1.97375C365.428 25.2742 360.724 53.4861 360.724 80.6412C360.724 109.026 366.561 134.254 378.553 159.309H370.775C355.536 136.706 347.108 108.321 347.108 80.6412C347.108 52.7815 355.398 24.7492 370.775 1.97375H378.553Z" fill="#F5FF33"/>
<path d="M448.731 141.396H434.466V81.1247H394.76V141.396H380.495V16.2938H394.76V67.4539H434.466V16.2938H448.731V141.396Z" fill="#F5FF33"/>
<path d="M532.358 78.8453C532.358 110.38 527.012 143.849 495.055 143.849C463.099 143.849 457.753 110.38 457.753 78.8453C457.753 47.3107 463.099 13.8418 495.055 13.8418C527.012 13.8418 532.358 47.3107 532.358 78.8453ZM472.715 78.8453C472.715 107.755 475.313 131.235 495.083 131.235C514.854 131.235 517.451 107.748 517.451 78.8453C517.451 49.9426 514.854 26.4556 495.083 26.4556C475.313 26.4556 472.715 49.9357 472.715 78.8453Z" fill="#F5FF33"/>
<path d="M541.434 16.2938H578.875C597.029 16.2938 608.531 27.8577 608.531 47.6558C608.531 61.3266 604.158 75.6882 590.709 79.1974V79.5428C600.753 80.7724 606.424 89.7112 607.073 100.398L608.047 121.771C608.697 135.587 610.811 139.117 614.209 141.396H597.029C594.598 138.764 593.458 129.48 593.133 123.346L592.166 103.9C591.026 86.727 582.274 85.677 574.986 85.677H555.699V141.396H541.434V16.2938ZM555.699 73.0632H569.798C578.226 73.0632 593.624 73.0632 593.624 48.8854C593.624 36.617 586.025 28.9077 572.713 28.9077H555.699V73.0632Z" fill="#F5FF33"/>
<path d="M617.449 16.2938H631.714V141.396H617.449V16.2938Z" fill="#F5FF33"/>
<path d="M636.735 128.43L688.766 29.9646H639.651V16.2938H703.666V30.4896L651.643 127.698H704.316V141.369H636.735V128.43Z" fill="#F5FF33"/>
<path d="M782.28 78.8453C782.28 110.38 776.926 143.849 744.977 143.849C713.028 143.849 707.674 110.38 707.674 78.8453C707.674 47.3107 713.021 13.8418 744.977 13.8418C776.933 13.8418 782.28 47.3107 782.28 78.8453ZM722.637 78.8453C722.637 107.755 725.227 131.235 744.998 131.235C764.768 131.235 767.366 107.748 767.366 78.8453C767.366 49.9426 764.775 26.4556 744.998 26.4556C725.22 26.4556 722.616 49.9357 722.616 78.8453H722.637Z" fill="#F5FF33"/>
<path d="M791.349 16.2938H809.828L848.077 120.721H848.401V16.2938H862.666V141.396H843.055L805.938 40.1262H805.614V141.396H791.349V16.2938Z" fill="#F5FF33"/>
<path d="M922.468 48.7128C922.468 35.5878 918.095 26.4554 904.507 26.4554C892.515 26.4554 885.386 33.467 885.386 46.7855C885.386 82.0159 940 60.9744 940 106.705C940 135.614 920.388 143.849 904.023 143.849C876.958 143.849 869.014 128.776 869.014 102.146H883.279C883.279 116.162 884.087 131.235 904.991 131.235C916.34 131.235 925.093 122.469 925.093 109.13C925.093 73.7333 870.472 94.236 870.472 48.3398C870.472 36.7759 875.01 13.8002 904.321 13.8002C926.357 13.8002 936.408 25.7163 936.732 48.6714L922.468 48.7128Z" fill="#F5FF33"/>
<path d="M32.1477 47.8564C-10.6814 -15.9521 22.601 -15.9521 43.2557 47.8564C22.601 -15.9521 91.6111 143.842 66.2452 101.123C91.5766 143.842 92.1569 143.842 66.4387 101.123C92.1569 143.842 92.1569 -15.9521 66.4387 47.8564C92.1569 -15.9521 117.882 -15.9521 75.0114 47.8564C117.882 -15.9521 117.882 175.48 75.0114 111.665C117.882 175.48 82.5134 175.48 63.2265 111.665C82.5134 175.48 15.5618 20.4802 40.9208 60.0143C15.5894 20.5079 15.0023 20.5079 40.7205 60.0143C15.0023 20.5079 15.0023 175.48 40.7205 111.665C15.0023 175.48 -10.7159 175.48 32.1477 111.665C-10.7159 175.48 -10.7159 -15.9521 32.1477 47.8564Z" fill="#F5FF33"/>
<path d="M137.604 47.8564C100.488 -15.9521 208.335 -15.9521 173.526 47.8564C208.307 -15.9521 208.307 4.95814 173.526 54.8264C208.307 4.95814 126.179 4.95814 146.149 54.8264C126.179 4.95814 126.179 65.0156 146.149 74.8594C126.179 65.0294 203.63 65.0294 171.971 74.8594C203.63 65.0294 203.63 85.9121 171.971 81.8295C203.63 85.9742 126.179 85.9742 146.149 81.8295C126.179 85.9742 126.179 154.577 146.149 104.709C126.179 154.577 211.775 154.577 174.693 104.709C211.809 154.577 211.809 175.494 174.693 111.679C211.809 175.494 100.46 175.494 137.577 111.679C100.488 175.48 100.488 -15.9521 137.604 47.8564Z" fill="#F5FF33"/>
<path d="M233.906 47.8564C165.124 -15.9521 190.842 -15.9521 242.479 47.8564C190.842 -15.9521 222.702 140.623 253.097 100.053C222.702 140.623 223.282 140.623 253.29 100.053C223.282 140.623 252.8 -15.9521 263.127 47.8564C252.8 -15.9521 283.782 -15.9521 273.489 47.8564C283.816 -15.9521 313.334 140.623 283.333 100.053C313.334 140.623 313.921 140.623 283.526 100.053C313.921 140.623 345.773 -15.9521 294.143 47.8564C345.773 -15.9521 371.512 -15.9521 302.716 47.8564C371.491 -15.9521 328.531 175.48 288.396 111.665C328.531 175.48 297.259 175.48 277.972 111.665C297.259 175.48 268.619 20.4802 268.425 60.0143C268.619 20.5079 268.032 20.5079 268.232 60.0143C268.032 20.5079 237.934 175.48 258.195 111.665C237.934 175.48 206.662 175.48 247.771 111.665C206.627 175.48 165.145 -15.9521 233.906 47.8564Z" fill="#F5FF33"/>
</svg>
