<svg width="941" height="84" viewBox="0 0 941 84" fill="none" xmlns="http://www.w3.org/2000/svg">
<path d="M0.524889 33.87C0.524889 51.33 10.8749 67.53 31.3049 67.53C51.7349 67.53 62.0849 51.33 62.0849 33.87C62.0849 16.41 51.7349 0.209999 31.3049 0.209999C10.8749 0.209999 0.524889 16.41 0.524889 33.87ZM9.07489 33.87C9.07489 20.91 15.6449 7.41 31.3049 7.41C46.9649 7.41 53.5349 20.91 53.5349 33.87C53.5349 46.83 46.9649 60.33 31.3049 60.33C15.6449 60.33 9.07489 46.83 9.07489 33.87ZM103.914 42.33C103.914 51.42 100.404 60.33 89.9638 60.33C79.4338 60.33 75.2938 51.87 75.2938 42.69C75.2938 33.96 79.2538 25.14 89.5138 25.14C99.4138 25.14 103.914 33.6 103.914 42.33ZM67.9138 83.82H75.5638V59.79H75.7438C79.1638 65.28 86.0038 67.08 90.7738 67.08C104.994 67.08 112.014 56.01 112.014 42.87C112.014 29.73 104.904 18.39 90.5938 18.39C84.2038 18.39 78.2638 20.64 75.7438 25.77H75.5638V19.47H67.9138V83.82ZM149.523 51.24C148.173 57.27 143.763 60.33 137.463 60.33C127.293 60.33 122.703 53.13 122.973 45.03H157.803C158.253 33.78 153.213 18.39 136.743 18.39C124.053 18.39 114.873 28.65 114.873 42.6C115.323 56.82 122.343 67.08 137.193 67.08C147.633 67.08 155.013 61.5 157.083 51.24H149.523ZM122.973 38.28C123.513 31.17 128.283 25.14 136.293 25.14C143.853 25.14 149.343 30.99 149.703 38.28H122.973ZM162.133 66H169.783V39.72C169.783 31.35 174.283 25.14 183.553 25.14C189.403 25.14 193.003 28.83 193.003 34.5V66H200.653V35.4C200.653 25.41 196.873 18.39 184.633 18.39C177.973 18.39 172.753 21.09 169.513 26.85H169.333V19.47H162.133V66ZM205.573 51.33C206.023 62.85 214.843 67.08 225.283 67.08C234.733 67.08 245.083 63.48 245.083 52.41C245.083 43.41 237.523 40.89 229.873 39.18C222.763 37.47 214.663 36.57 214.663 31.08C214.663 26.4 219.973 25.14 224.563 25.14C229.603 25.14 234.823 27.03 235.363 32.97H243.013C242.383 21.63 234.193 18.39 223.933 18.39C215.833 18.39 206.563 22.26 206.563 31.62C206.563 40.53 214.213 43.05 221.773 44.76C229.423 46.47 236.983 47.46 236.983 53.4C236.983 59.25 230.503 60.33 225.733 60.33C219.433 60.33 213.493 58.17 213.223 51.33H205.573ZM282.012 5.52H274.362V19.47H266.442V26.22H274.362V55.83C274.362 64.38 277.512 66 285.432 66H291.282V59.25H287.772C283.002 59.25 282.012 58.62 282.012 55.11V26.22H291.282V19.47H282.012V5.52ZM296.181 66H303.831V39.72C303.831 31.35 308.331 25.14 317.601 25.14C323.451 25.14 327.051 28.83 327.051 34.5V66H334.701V35.4C334.701 25.41 330.921 18.39 318.681 18.39C313.101 18.39 306.531 20.73 304.011 26.31H303.831V1.74H296.181V66ZM374.72 51.24C373.37 57.27 368.96 60.33 362.66 60.33C352.49 60.33 347.9 53.13 348.17 45.03H383C383.45 33.78 378.41 18.39 361.94 18.39C349.25 18.39 340.07 28.65 340.07 42.6C340.52 56.82 347.54 67.08 362.39 67.08C372.83 67.08 380.21 61.5 382.28 51.24H374.72ZM348.17 38.28C348.71 31.17 353.48 25.14 361.49 25.14C369.05 25.14 374.54 30.99 374.9 38.28H348.17ZM409.949 66H418.049V14.43H418.229L451.799 66H461.159V1.74H453.059V53.85H452.879L419.039 1.74H409.949V66ZM502.26 51.24C500.91 57.27 496.5 60.33 490.2 60.33C480.03 60.33 475.44 53.13 475.71 45.03H510.54C510.99 33.78 505.95 18.39 489.48 18.39C476.79 18.39 467.61 28.65 467.61 42.6C468.06 56.82 475.08 67.08 489.93 67.08C500.37 67.08 507.75 61.5 509.82 51.24H502.26ZM475.71 38.28C476.25 31.17 481.02 25.14 489.03 25.14C496.59 25.14 502.08 30.99 502.44 38.28H475.71ZM575.8 19.47H567.88L557.44 57.54H557.26L547.54 19.47H539.17L529.81 57.54H529.63L519.1 19.47H510.64L525.58 66H533.86L543.22 29.01H543.4L552.85 66H560.95L575.8 19.47ZM602.182 66H610.732V36.57H644.572V66H653.122V1.74H644.572V29.37H610.732V1.74H602.182V66ZM659.753 42.78C659.753 56.37 667.583 67.08 682.343 67.08C697.103 67.08 704.933 56.37 704.933 42.78C704.933 29.1 697.103 18.39 682.343 18.39C667.583 18.39 659.753 29.1 659.753 42.78ZM667.853 42.78C667.853 31.44 674.333 25.14 682.343 25.14C690.353 25.14 696.833 31.44 696.833 42.78C696.833 54.03 690.353 60.33 682.343 60.33C674.333 60.33 667.853 54.03 667.853 42.78ZM710.083 66H717.733V45.3C717.733 33.51 722.233 26.49 734.563 26.49V18.39C726.283 18.12 721.153 21.81 717.463 29.28H717.283V19.47H710.083V66ZM737.174 66H744.824V19.47H737.174V66ZM744.824 1.74H737.174V11.1H744.824V1.74ZM749.295 66H788.535V59.25H758.835L787.275 24.69V19.47H751.095V26.22H777.375L749.295 60.15V66ZM790.197 42.78C790.197 56.37 798.027 67.08 812.787 67.08C827.547 67.08 835.377 56.37 835.377 42.78C835.377 29.1 827.547 18.39 812.787 18.39C798.027 18.39 790.197 29.1 790.197 42.78ZM798.297 42.78C798.297 31.44 804.777 25.14 812.787 25.14C820.797 25.14 827.277 31.44 827.277 42.78C827.277 54.03 820.797 60.33 812.787 60.33C804.777 60.33 798.297 54.03 798.297 42.78ZM840.796 66H848.446V39.72C848.446 31.35 852.947 25.14 862.217 25.14C868.067 25.14 871.666 28.83 871.666 34.5V66H879.317V35.4C879.317 25.41 875.537 18.39 863.296 18.39C856.636 18.39 851.417 21.09 848.177 26.85H847.996V19.47H840.796V66ZM884.236 51.33C884.686 62.85 893.506 67.08 903.946 67.08C913.396 67.08 923.746 63.48 923.746 52.41C923.746 43.41 916.186 40.89 908.536 39.18C901.426 37.47 893.326 36.57 893.326 31.08C893.326 26.4 898.636 25.14 903.226 25.14C908.266 25.14 913.486 27.03 914.026 32.97H921.676C921.046 21.63 912.856 18.39 902.596 18.39C894.496 18.39 885.226 22.26 885.226 31.62C885.226 40.53 892.876 43.05 900.436 44.76C908.086 46.47 915.646 47.46 915.646 53.4C915.646 59.25 909.166 60.33 904.396 60.33C898.096 60.33 892.156 58.17 891.886 51.33H884.236ZM930.316 66H940.306V56.01H930.316V66Z" fill="#F5FF33"/>
</svg>
