<svg width="146" height="11" viewBox="0 0 146 11" fill="none" xmlns="http://www.w3.org/2000/svg">
<path d="M0.746348 4.41C0.746348 6.56 2.46635 8.17 4.51635 8.17C6.55635 8.17 8.26635 6.56 8.26635 4.41C8.26635 2.3 6.55635 0.69 4.51635 0.69C2.46635 0.69 0.746348 2.3 0.746348 4.41ZM1.42635 4.41C1.42635 2.63 2.76635 1.24 4.51635 1.24C6.24635 1.24 7.58635 2.63 7.58635 4.41C7.58635 6.24 6.24635 7.62 4.51635 7.62C2.76635 7.62 1.42635 6.24 1.42635 4.41ZM5.85635 5.15C5.76635 5.74 5.29635 6.17 4.63635 6.17C3.68635 6.17 3.09635 5.35 3.09635 4.41C3.09635 3.45 3.62635 2.7 4.61635 2.7C5.27635 2.7 5.74635 3.11 5.85635 3.67H6.48635C6.33635 2.67 5.55635 2.15 4.60635 2.15C3.23635 2.15 2.41635 3.1 2.41635 4.43C2.41635 5.74 3.28635 6.72 4.63635 6.72C5.55635 6.72 6.28635 6.12 6.49635 5.15H5.85635ZM12.9776 3.42C12.9476 2.57 13.3676 1.66 14.3576 1.66C15.1076 1.66 15.7276 2.17 15.7276 2.94C15.7276 3.92 15.1176 4.36 13.9176 5.1C12.9176 5.72 12.0676 6.32 11.9276 8H16.5576V7.25H12.9176C13.0876 6.37 14.0176 5.92 14.9076 5.38C15.7876 4.83 16.6276 4.2 16.6276 2.95C16.6276 1.63 15.6476 0.909999 14.4076 0.909999C12.9076 0.909999 12.0576 1.98 12.1276 3.42H12.9776ZM17.8642 4.52C17.8642 6.08 18.0042 8.12 20.2242 8.12C22.4442 8.12 22.5842 6.08 22.5842 4.52C22.5842 2.95 22.4442 0.909999 20.2242 0.909999C18.0042 0.909999 17.8642 2.95 17.8642 4.52ZM18.7642 4.51C18.7642 3.46 18.7742 1.66 20.2242 1.66C21.6742 1.66 21.6842 3.46 21.6842 4.51C21.6842 5.57 21.6742 7.37 20.2242 7.37C18.7742 7.37 18.7642 5.57 18.7642 4.51ZM24.4909 3.42C24.4609 2.57 24.8809 1.66 25.8709 1.66C26.6209 1.66 27.2409 2.17 27.2409 2.94C27.2409 3.92 26.6309 4.36 25.4309 5.1C24.4309 5.72 23.5809 6.32 23.4409 8H28.0709V7.25H24.4309C24.6009 6.37 25.5309 5.92 26.4209 5.38C27.3009 4.83 28.1409 4.2 28.1409 2.95C28.1409 1.63 27.1609 0.909999 25.9209 0.909999C24.4209 0.909999 23.5709 1.98 23.6409 3.42H24.4909ZM30.2475 3.42C30.2175 2.57 30.6375 1.66 31.6275 1.66C32.3775 1.66 32.9975 2.17 32.9975 2.94C32.9975 3.92 32.3875 4.36 31.1875 5.1C30.1875 5.72 29.3375 6.32 29.1975 8H33.8275V7.25H30.1875C30.3575 6.37 31.2875 5.92 32.1775 5.38C33.0575 4.83 33.8975 4.2 33.8975 2.95C33.8975 1.63 32.9175 0.909999 31.6775 0.909999C30.1775 0.909999 29.3275 1.98 29.3975 3.42H30.2475ZM43.5074 2.95C43.4474 1.38 42.3374 0.69 40.8774 0.69C39.5774 0.69 38.2874 1.33 38.2874 2.78C38.2874 4.09 39.4374 4.42 40.5774 4.67C41.7174 4.92 42.8574 5.09 42.8574 6.07C42.8574 7.1 41.9074 7.37 41.0474 7.37C39.9674 7.37 38.9674 6.85 38.9674 5.65H38.0674C38.0674 7.39 39.4174 8.17 41.0174 8.17C42.3174 8.17 43.8074 7.56 43.8074 6.04C43.8074 4.64 42.6674 4.24 41.5274 3.98C40.3774 3.72 39.2374 3.59 39.2374 2.71C39.2374 1.78 40.0374 1.49 40.8374 1.49C41.8174 1.49 42.4974 1.93 42.6074 2.95H43.5074ZM45.1517 8H46.0517V2.27H46.0717L49.8017 8H50.8417V0.86H49.9417V6.65H49.9217L46.1617 0.86H45.1517V8ZM58.2785 0.86H57.3285V5.42C57.3285 6.68 56.6685 7.37 55.4685 7.37C54.2085 7.37 53.4885 6.68 53.4885 5.42V0.86H52.5385V5.42C52.5385 7.32 53.6285 8.17 55.4685 8.17C57.2485 8.17 58.2785 7.22 58.2785 5.42V0.86ZM61.6153 8H62.5653V1.66H64.9453V0.86H59.2353V1.66H61.6153V8ZM68.9607 8H69.9107V0.86H68.9607V8ZM71.5686 8H72.4186V5.08C72.4186 4.15 72.9186 3.46 73.9486 3.46C74.5986 3.46 74.9986 3.87 74.9986 4.5V8H75.8486V4.6C75.8486 3.49 75.4286 2.71 74.0686 2.71C73.3286 2.71 72.7486 3.01 72.3886 3.65H72.3686V2.83H71.5686V8ZM81.9453 0.86H81.0953V3.52H81.0753C80.6953 2.91 79.9353 2.71 79.4053 2.71C77.8253 2.71 77.0453 3.94 77.0453 5.4C77.0453 6.86 77.8353 8.12 79.4253 8.12C80.1353 8.12 80.7953 7.87 81.0753 7.3H81.0953V8H81.9453V0.86ZM77.9453 5.46C77.9453 4.45 78.3353 3.46 79.4953 3.46C80.6653 3.46 81.1253 4.4 81.1253 5.42C81.1253 6.39 80.6853 7.37 79.5453 7.37C78.4453 7.37 77.9453 6.43 77.9453 5.46ZM87.733 2.83H86.883V5.75C86.883 6.68 86.383 7.37 85.353 7.37C84.703 7.37 84.303 6.96 84.303 6.33V2.83H83.453V6.23C83.453 7.34 83.873 8.12 85.233 8.12C85.973 8.12 86.553 7.82 86.913 7.18H86.933V8H87.733V2.83ZM88.8796 6.37C88.9296 7.65 89.9096 8.12 91.0696 8.12C92.1196 8.12 93.2696 7.72 93.2696 6.49C93.2696 5.49 92.4296 5.21 91.5796 5.02C90.7896 4.83 89.8896 4.73 89.8896 4.12C89.8896 3.6 90.4796 3.46 90.9896 3.46C91.5496 3.46 92.1296 3.67 92.1896 4.33H93.0396C92.9696 3.07 92.0596 2.71 90.9196 2.71C90.0196 2.71 88.9896 3.14 88.9896 4.18C88.9896 5.17 89.8396 5.45 90.6796 5.64C91.5296 5.83 92.3696 5.94 92.3696 6.6C92.3696 7.25 91.6496 7.37 91.1196 7.37C90.4196 7.37 89.7596 7.13 89.7296 6.37H88.8796ZM95.5896 1.28H94.7396V2.83H93.8596V3.58H94.7396V6.87C94.7396 7.82 95.0896 8 95.9696 8H96.6196V7.25H96.2296C95.6996 7.25 95.5896 7.18 95.5896 6.79V3.58H96.6196V2.83H95.5896V1.28ZM97.7339 8H98.5839V5.7C98.5839 4.39 99.0839 3.61 100.454 3.61V2.71C99.5339 2.68 98.9639 3.09 98.5539 3.92H98.5339V2.83H97.7339V8ZM101.344 8H102.194V2.83H101.344V8ZM102.194 0.86H101.344V1.9H102.194V0.86ZM106.911 6.2C106.911 6.67 106.451 7.37 105.331 7.37C104.811 7.37 104.331 7.17 104.331 6.61C104.331 5.98 104.811 5.78 105.371 5.68C105.941 5.58 106.581 5.57 106.911 5.33V6.2ZM108.291 7.32C108.181 7.36 108.101 7.37 108.031 7.37C107.761 7.37 107.761 7.19 107.761 6.79V4.13C107.761 2.92 106.751 2.71 105.821 2.71C104.671 2.71 103.681 3.16 103.631 4.44H104.481C104.521 3.68 105.051 3.46 105.771 3.46C106.311 3.46 106.921 3.58 106.921 4.32C106.921 4.96 106.121 4.9 105.181 5.08C104.301 5.25 103.431 5.5 103.431 6.67C103.431 7.7 104.201 8.12 105.141 8.12C105.861 8.12 106.491 7.87 106.961 7.32C106.961 7.88 107.241 8.12 107.681 8.12C107.951 8.12 108.141 8.07 108.291 7.98V7.32ZM109.332 8H110.182V0.86H109.332V8ZM114.822 8H117.272C119.652 8 120.702 6.65 120.702 4.26C120.702 1.96 119.472 0.86 117.272 0.86H114.822V8ZM115.772 1.66H117.372C119.122 1.66 119.752 2.69 119.752 4.39C119.752 7.02 118.002 7.2 117.352 7.2H115.772V1.66ZM125.493 6.36C125.343 7.03 124.853 7.37 124.153 7.37C123.023 7.37 122.513 6.57 122.543 5.67H126.413C126.463 4.42 125.903 2.71 124.073 2.71C122.663 2.71 121.643 3.85 121.643 5.4C121.693 6.98 122.473 8.12 124.123 8.12C125.283 8.12 126.103 7.5 126.333 6.36H125.493ZM122.543 4.92C122.603 4.13 123.133 3.46 124.023 3.46C124.863 3.46 125.473 4.11 125.513 4.92H122.543ZM127.164 6.37C127.214 7.65 128.194 8.12 129.354 8.12C130.404 8.12 131.554 7.72 131.554 6.49C131.554 5.49 130.714 5.21 129.864 5.02C129.074 4.83 128.174 4.73 128.174 4.12C128.174 3.6 128.764 3.46 129.274 3.46C129.834 3.46 130.414 3.67 130.474 4.33H131.324C131.254 3.07 130.344 2.71 129.204 2.71C128.304 2.71 127.274 3.14 127.274 4.18C127.274 5.17 128.124 5.45 128.964 5.64C129.814 5.83 130.654 5.94 130.654 6.6C130.654 7.25 129.934 7.37 129.404 7.37C128.704 7.37 128.044 7.13 128.014 6.37H127.164ZM132.744 8H133.594V2.83H132.744V8ZM133.594 0.86H132.744V1.9H133.594V0.86ZM137.191 7.31C136.071 7.31 135.731 6.27 135.731 5.34C135.731 4.35 136.171 3.46 137.261 3.46C138.331 3.46 138.731 4.4 138.731 5.31C138.731 6.28 138.311 7.31 137.191 7.31ZM139.571 2.83H138.771V3.57H138.761C138.451 3 137.871 2.71 137.221 2.71C135.431 2.71 134.831 4.22 134.831 5.44C134.831 6.85 135.601 8.06 137.141 8.06C137.791 8.06 138.471 7.75 138.751 7.12H138.771V7.46C138.771 8.62 138.331 9.42 137.221 9.42C136.661 9.42 135.921 9.2 135.881 8.58H135.031C135.081 9.71 136.201 10.1 137.171 10.1C138.801 10.1 139.571 9.24 139.571 7.56V2.83ZM141.053 8H141.903V5.08C141.903 4.15 142.403 3.46 143.433 3.46C144.083 3.46 144.483 3.87 144.483 4.5V8H145.333V4.6C145.333 3.49 144.913 2.71 143.553 2.71C142.813 2.71 142.233 3.01 141.873 3.65H141.853V2.83H141.053V8Z" fill="white"/>
</svg>
