<svg width="89" height="60" viewBox="0 0 89 60" fill="none" xmlns="http://www.w3.org/2000/svg">
<g clip-path="url(#clip0_308_550)">
<path d="M39.5557 60V40H49.4446C49.4446 40 40.0625 40.9042 39.5557 60Z" fill="#F5FF33"/>
<path d="M19.7778 40H39.5556V20C39.5556 25.3043 37.4719 30.3914 33.7628 34.1421C30.0538 37.8929 25.0232 40 19.7778 40Z" fill="#F5FF33"/>
<path d="M0 40H19.7778V20C19.7778 25.3043 17.6941 30.3914 13.985 34.1421C10.2759 37.8929 5.24539 40 0 40H0Z" fill="#F5FF33"/>
<path d="M19.7778 20H39.5556V0C39.5556 5.30433 37.4719 10.3914 33.7628 14.1421C30.0538 17.8929 25.0232 20 19.7778 20Z" fill="#F5FF33"/>
<path d="M69.2221 0H49.4443V20C49.4443 14.6957 51.5281 9.60859 55.2371 5.85786C58.9462 2.10714 63.9767 0 69.2221 0V0Z" fill="#F5FF33"/>
<path d="M69.2222 60H88.9999V40C88.9999 45.3043 86.9162 50.3914 83.2072 54.1421C79.4981 57.8929 74.4676 60 69.2222 60Z" fill="#F5FF33"/>
<path d="M88.9999 20V0H69.2222C74.4676 0 79.4981 2.10714 83.2072 5.85786C86.9162 9.60859 88.9999 14.6957 88.9999 20Z" fill="#F5FF33"/>
<path d="M49.4443 40V60H69.2221C63.9767 60 58.9462 57.8929 55.2371 54.1421C51.5281 50.3914 49.4443 45.3043 49.4443 40Z" fill="#F5FF33"/>
</g>
<defs>
<clipPath id="clip0_308_550">
<rect width="89" height="60" fill="white"/>
</clipPath>
</defs>
</svg>
